<?xml version="1.0" encoding="iso-8859-1"?>
<!-- Generator: Adobe Illustrator 19.0.0, SVG Export Plug-In . SVG Version: 6.00 Build 0)  -->
<svg version="1.1" id="Capa_1" xmlns="http://www.w3.org/2000/svg" xmlns:xlink="http://www.w3.org/1999/xlink" x="0px" y="0px"
	 viewBox="0 0 512 512" style="enable-background:new 0 0 512 512;" xml:space="preserve">
<g>
	<g>
		<path d="M451,135.5v-15c0-57.897-47.103-105-105-105c-17.526,0-160.024,0-180,0c-57.897,0-105,47.103-105,105v15H0v90h61
			c0,13.958,0,102.807,0,121h90v150h300v-271h61v-90H451z M151,316.5H91c0-11.256,0-77.189,0-91h60
			C151,236.363,151,304.882,151,316.5z M151,195.5H30v-30h121V195.5z M91,135.5c0-16.542,13.458-30,30-30s30,13.458,30,30H91z
			 M421,466.5H181v-30h240V466.5z M421,406.5H181v-30h240V406.5z M421,346.5H181c0-4.907,0-204.638,0-211c0-33.084-26.916-60-60-60
			c-5.781,0-11.372,0.821-16.666,2.354C117.886,58.316,140.474,45.5,166,45.5c19.363,0,157.402,0,180,0c41.355,0,75,33.645,75,75
			V346.5z M482,195.5h-31v-30h31V195.5z"/>
	</g>
</g>
<g>
</g>
<g>
</g>
<g>
</g>
<g>
</g>
<g>
</g>
<g>
</g>
<g>
</g>
<g>
</g>
<g>
</g>
<g>
</g>
<g>
</g>
<g>
</g>
<g>
</g>
<g>
</g>
<g>
</g>
</svg>
