<?xml version="1.0" encoding="iso-8859-1"?>
<!-- Generator: Adobe Illustrator 19.0.0, SVG Export Plug-In . SVG Version: 6.00 Build 0)  -->
<svg version="1.1" id="Capa_1" xmlns="http://www.w3.org/2000/svg" xmlns:xlink="http://www.w3.org/1999/xlink" x="0px" y="0px"
	 viewBox="0 0 496.944 496.944" style="enable-background:new 0 0 496.944 496.944;" xml:space="preserve">
<g>
	<g>
		<g>
			<path d="M192.472,464h32v20.944l24,12l24-12V464h32v-48h-112V464z M256.472,475.056l-8,4l-8-4V464h16V475.056z M208.472,432h80
				v16h-80V432z"/>
			<path d="M254.528,104l35.728-35.72c4.008-4.024,6.216-9.352,6.216-15.024c0-11.72-9.536-21.256-21.256-21.256h-53.488
				c-11.72,0-21.256,9.536-21.256,21.256c0,5.664,2.208,11,6.224,15.032L242.416,104H254.528z M216.472,53.256
				c0-2.896,2.36-5.256,5.256-5.256h53.488c2.896,0,5.256,2.36,5.256,5.256c0,1.424-0.536,2.712-1.536,3.72l-30.464,30.456
				l-30.456-30.448C217.008,55.968,216.472,54.68,216.472,53.256z"/>
			<path d="M423.224,426.84l-52.736-165.88c7.272-8.24,11.84-18.28,13.376-28.96h16.608v-16h-16.656
				c-0.192-1.384-0.344-2.768-0.64-4.16c-1.664-7.84-5.104-15.12-9.824-21.416l11.688-11.688l-11.312-11.312l-11.672,11.672
				c-6.36-4.776-13.728-8.224-21.656-9.872c-1.312-0.272-2.616-0.456-3.92-0.632V152h-16v16.584
				c-9.384,1.328-18.136,4.992-25.568,10.544l-11.688-11.688l-10.752,10.736v-46.864l40.4-40.4
				c10.064-10.064,15.6-23.432,15.6-37.656C328.472,23.888,304.584,0,275.216,0H221.72c-29.36,0-53.248,23.888-53.248,53.256
				c0,14.224,5.536,27.6,15.6,37.656l40.4,40.4v46.864l-10.744-10.744L202.04,179.12c-7.432-5.552-16.176-9.216-25.568-10.536V152
				h-16v16.6c-1.304,0.184-2.616,0.36-3.928,0.632c-7.928,1.648-15.296,5.096-21.656,9.872l-11.672-11.672l-11.312,11.312
				l11.688,11.688c-4.728,6.288-8.16,13.576-9.824,21.416c-0.296,1.384-0.448,2.768-0.64,4.16H96.472v16h16.608
				c1.536,10.68,6.104,20.72,13.376,28.96L73.72,426.84c-0.824,2.592-1.248,5.296-1.248,8.032v2.632
				C72.472,452.112,84.36,464,98.968,464c11.568,0,21.712-7.4,25.24-18.424l54.816-171.288l-15.24-4.872l-54.816,171.288
				c-1.4,4.36-5.416,7.296-10,7.296c-5.792,0-10.496-4.704-10.496-10.496v-2.632c0-1.08,0.168-2.152,0.496-3.184l55.696-175.208
				l-3.648-3.448c-10.248-9.688-14.584-23.84-11.608-37.856c3.184-14.992,15.4-27.152,30.384-30.272
				c15.952-3.312,31.408,2.904,40.544,15.096h-31.864c-13.232,0-24,10.768-24,24s10.768,24,24,24h24v152h16V280h16v120h16V280h16
				v120h16V280h16v120h16V248h24c13.232,0,24-10.768,24-24s-10.768-24-24-24H296.6c9.136-12.192,24.584-18.408,40.536-15.096
				c14.992,3.12,27.2,15.28,30.392,30.272c2.976,14.016-1.36,28.168-11.608,37.856l-3.648,3.448l55.704,175.216
				c0.328,1.024,0.496,2.096,0.496,3.176v2.632c0,5.792-4.704,10.496-10.496,10.496c-4.584,0-8.6-2.936-10-7.296L333.16,269.416
				l-15.24,4.872l54.816,171.288C376.264,456.6,386.408,464,397.976,464c14.608,0,26.496-11.888,26.496-26.496v-2.632
				C424.472,432.136,424.048,429.432,423.224,426.84z M195.384,79.6c-7.04-7.04-10.912-16.392-10.912-26.344
				c0-20.544,16.712-37.256,37.256-37.256h53.496c20.536,0,37.248,16.712,37.248,37.256c0,9.952-3.872,19.312-10.912,26.344
				l-40.4,40.4h-25.376L195.384,79.6z M224.472,179.312V184h16v-48h16v48h16v-4.688l11.136,11.136
				c-2.184,2.944-4.128,6.128-5.736,9.552h-58.8c-1.616-3.424-3.552-6.608-5.736-9.552L224.472,179.312z M328.472,216
				c4.408,0,8,3.592,8,8s-3.592,8-8,8h-40v32h-80v-32h-40c-4.408,0-8-3.592-8-8s3.592-8,8-8H328.472z"/>
		</g>
	</g>
</g>
<g>
</g>
<g>
</g>
<g>
</g>
<g>
</g>
<g>
</g>
<g>
</g>
<g>
</g>
<g>
</g>
<g>
</g>
<g>
</g>
<g>
</g>
<g>
</g>
<g>
</g>
<g>
</g>
<g>
</g>
</svg>
