<?xml version="1.0" encoding="iso-8859-1"?>
<!-- Generator: Adobe Illustrator 19.0.0, SVG Export Plug-In . SVG Version: 6.00 Build 0)  -->
<svg version="1.1" id="Capa_1" xmlns="http://www.w3.org/2000/svg" xmlns:xlink="http://www.w3.org/1999/xlink" x="0px" y="0px"
	 viewBox="0 0 512.01 512.01" style="enable-background:new 0 0 512.01 512.01;" xml:space="preserve">
<g>
	<g>
		<path d="M501.338,0c-2.954,0-5.624,1.201-7.555,3.138l-306.21,306.201l-7.537-7.536c-4.167-4.167-10.917-4.167-15.084,0
			L9.365,457.385c-12.48,12.479-12.48,32.771,0,45.25c6.042,6.042,14.084,9.375,22.626,9.375c8.563,0,16.605-3.333,22.647-9.375
			l94.929-94.939c1.275,34.177,29.28,61.637,63.764,61.637c35.293,0,64.002-28.708,64.002-64c0-2.568-0.253-52.451-18.031-100.676
			c7.673,2.77,15.442,4.499,23.281,4.499c19.938,0,40.126-8.948,59.127-26.802c20.521-19.302,31.834-42.813,31.834-66.198
			c0-9.033-1.938-17.672-5.259-25.875c29.661-1.863,65.583-22.423,87.262-44.073c13.625-13.615,25.688-31.437,35.126-50.917V480
			c0,5.885-4.792,10.667-10.667,10.667c-5.875,0-10.667-4.781-10.667-10.667v-42.667c0-4.313-2.604-8.208-6.583-9.854
			c-3.938-1.667-8.584-0.75-11.625,2.313l-10.667,10.667c-4.167,4.167-4.167,10.917,0,15.083c2.083,2.083,4.813,3.125,7.542,3.125
			V480c0,17.646,14.355,32,32.001,32s32.001-14.354,32.001-32V10.667C512.005,4.771,507.234,0,501.338,0z M232.033,295.056
			c9.19,19.033,14.909,39.885,18.392,58.316c-10.486-7.508-23.234-12.039-37.086-12.039c-0.124,0-0.238,0.035-0.362,0.036
			c0.595-3.319-0.197-6.835-2.763-9.401l-7.547-7.547L232.033,295.056z M39.568,487.552c-4.042,4.021-11.062,4.021-15.104,0
			c-4.167-4.156-4.167-10.927,0-15.083l148.042-148.042l15.083,15.083L39.568,487.552z M256.005,405.335
			c0,23.531-19.146,42.665-42.667,42.665c-23.521,0-42.667-19.135-42.667-42.667s19.146-42.667,42.667-42.667
			c23.521,0,42.667,19.134,42.667,42.665V405.335z M327.089,266.813c-25.967,24.419-51.576,27.504-76.273,9.461l90.527-90.527
			c7.138,9.128,10.871,19.294,10.871,30.41C352.214,233.344,343.047,251.802,327.089,266.813z M440.464,131.125
			c-22.458,22.448-56.5,39.438-77.563,38.198c-1.651-0.082-2.87-0.555-4.279-0.857L487.415,39.673
			C480.514,73.357,462.926,108.663,440.464,131.125z"/>
	</g>
</g>
<g>
</g>
<g>
</g>
<g>
</g>
<g>
</g>
<g>
</g>
<g>
</g>
<g>
</g>
<g>
</g>
<g>
</g>
<g>
</g>
<g>
</g>
<g>
</g>
<g>
</g>
<g>
</g>
<g>
</g>
</svg>
