<?xml version="1.0" encoding="iso-8859-1"?>
<!-- Generator: Adobe Illustrator 19.0.0, SVG Export Plug-In . SVG Version: 6.00 Build 0)  -->
<svg version="1.1" id="Capa_1" xmlns="http://www.w3.org/2000/svg" xmlns:xlink="http://www.w3.org/1999/xlink" x="0px" y="0px"
	 viewBox="0 0 477.542 477.542" style="enable-background:new 0 0 477.542 477.542;" xml:space="preserve">
<g>
	<g>
		<path d="M229.536,154.771c-13.255,0-24,10.745-24,24s10.745,24,24,24s24-10.745,24-24S242.791,154.771,229.536,154.771z
			 M229.536,186.771c-4.418,0-8-3.582-8-8s3.582-8,8-8s8,3.582,8,8S233.954,186.771,229.536,186.771z"/>
	</g>
</g>
<g>
	<g>
		<path d="M475.694,221.657c-1.521-1.83-3.778-2.888-6.158-2.886h-76.48l-57.92-63.2c-19.204-20.877-46.266-32.77-74.632-32.8
			h-54.968v-32h-16v32h-8c-3.445-0.001-6.503,2.204-7.592,5.472l-30.176,90.528h-18.232c-2.122,0-4.156,0.844-5.656,2.344
			l-34.344,34.344l-18.344-18.344c-3.124-3.123-8.188-3.123-11.312,0l-32,32c-3.123,3.124-3.123,8.188,0,11.312l6.344,6.344
			l-9.152,9.152l-10-9.584L0,297.891l32,30.656l11.072-11.552l-10.448-10l8.912-8.912l6.344,6.344c3.124,3.123,8.188,3.123,11.312,0
			l4.704-4.704c3.908,9.203,12.978,15.144,22.976,15.048h286.664c1.87,0.001,3.682-0.652,5.12-1.848l96-80
			C478.054,230.099,478.518,225.055,475.694,221.657z M342.016,186.771h-48.48c-4.418,0-8-3.582-8-8s3.582-8,8-8h33.816
			L342.016,186.771z M187.304,138.771h73.2c17.828,0.021,35.204,5.616,49.696,16h-16.664c-13.255,0-24,10.745-24,24s10.745,24,24,24
			h63.152l14.664,16h-210.72L187.304,138.771z M69.104,271.891l-15.568,15.568l-12.688-12.688l20.688-20.688l12.688,12.688
			L69.104,271.891z M370.64,298.771H86.872c-5.037,0.003-9.123-4.077-9.126-9.114c-0.002-2.421,0.959-4.743,2.67-6.454
			l10.776-10.776l37.656-37.656H447.44L370.64,298.771z"/>
	</g>
</g>
<g>
	<g>
		<rect x="21.536" y="354.771" width="16" height="16"/>
	</g>
</g>
<g>
	<g>
		<rect x="37.536" y="338.771" width="16" height="16"/>
	</g>
</g>
<g>
	<g>
		<rect x="53.536" y="354.771" width="16" height="16"/>
	</g>
</g>
<g>
	<g>
		<rect x="117.536" y="346.771" width="16" height="16"/>
	</g>
</g>
<g>
	<g>
		<rect x="133.536" y="330.771" width="16" height="16"/>
	</g>
</g>
<g>
	<g>
		<rect x="149.536" y="346.771" width="16" height="16"/>
	</g>
</g>
<g>
	<g>
		<rect x="237.536" y="370.771" width="16" height="16"/>
	</g>
</g>
<g>
	<g>
		<rect x="253.536" y="354.771" width="16" height="16"/>
	</g>
</g>
<g>
	<g>
		<rect x="269.536" y="370.771" width="16" height="16"/>
	</g>
</g>
<g>
	<g>
		<rect x="333.536" y="362.771" width="16" height="16"/>
	</g>
</g>
<g>
	<g>
		<rect x="349.536" y="346.771" width="16" height="16"/>
	</g>
</g>
<g>
	<g>
		<rect x="365.536" y="362.771" width="16" height="16"/>
	</g>
</g>
<g>
	<g>
		<rect x="421.536" y="314.771" width="16" height="16"/>
	</g>
</g>
<g>
	<g>
		<rect x="437.536" y="298.771" width="16" height="16"/>
	</g>
</g>
<g>
	<g>
		<rect x="453.536" y="314.771" width="16" height="16"/>
	</g>
</g>
<g>
</g>
<g>
</g>
<g>
</g>
<g>
</g>
<g>
</g>
<g>
</g>
<g>
</g>
<g>
</g>
<g>
</g>
<g>
</g>
<g>
</g>
<g>
</g>
<g>
</g>
<g>
</g>
<g>
</g>
</svg>
