<?xml version="1.0" encoding="iso-8859-1"?>
<!-- Generator: Adobe Illustrator 19.0.0, SVG Export Plug-In . SVG Version: 6.00 Build 0)  -->
<svg version="1.1" id="Capa_1" xmlns="http://www.w3.org/2000/svg" xmlns:xlink="http://www.w3.org/1999/xlink" x="0px" y="0px"
	 viewBox="0 0 512.001 512.001" style="enable-background:new 0 0 512.001 512.001;" xml:space="preserve">
<g>
	<g>
		<path d="M448.758,225.212c-43.608,19.005-65.651,26.134-68.166,28.042c-2.739,2.082-4.79,4.851-6.021,7.969
			c-1.272-1.087-2.544-2.154-3.826-3.2c4.611-6.21,19.6-26.315,22.288-33.026c8.261-10.965,5.811-28.057-5.128-35.693
			c-9.764-6.8-19.929-13.077-30.226-18.667c-5.857-3.18-13.19-1.662-17.436,3.59c-1.364,1.692-3.036,3.385-4.985,5.057
			c0.503-2.749,0.892-5.692,1.169-8.78c0.544-6.082-2.872-11.734-8.513-14.062c-16.616-6.851-33.95-12.308-51.499-16.195
			c-5.026-1.108-10.216,0.636-13.549,4.564c-2.236,2.636-4.687,5.631-7.323,8.975c3.415-8.384-2.099-17.821-11.169-18.954
			c-69.225-8.602-89.501,20.733-131.562,73.889c-32.175,17.857-57.54,45.232-73.602,79.52c-3.374,7.21-2.626,15.682,1.969,22.103
			c25.726,35.977,75.853,64.514,147.378,64.514c15.857,0,32.442-1.374,49.745-4.133c23.576,18.398,51.924,25.848,78.269,23.58
			c9.801-0.852,13.733-12.828,6.739-19.467c-4.851-4.585-10.308-11.775-16.103-21.129c19.17-6.257,39.037-13.908,59.56-22.934
			l8.082-2.974c0.687,5.928,4.123,11.118,9.375,14.082c1.423,0.773-2.26-0.595,69.222,21.693
			c29.101,9.057,58.555-12.636,58.555-43.016v-54.073C512.001,234.063,478.64,212.212,448.758,225.212z M240.22,149.826
			c-2.082,3.764-3.723,7.58-4.892,11.364c-4.61,14.898,15.074,24.946,24.401,12.441c5.405-7.231,10.205-13.344,14.267-18.154
			c16.011,3.59,31.816,8.554,46.996,14.759c-0.359,3.528-0.882,6.769-1.569,9.641c-2.969,12.529,11.371,21.991,21.693,14.39
			c4.103-3.026,7.58-6.216,10.369-9.487c9.395,5.159,18.688,10.923,27.621,17.139c3.768,2.635,4.682,9.865,1.61,13.857
			c-3.711,4.897,2.59-0.474-22.031,32.678c-62.466-47.629-141.523-77.661-215.769-52.965
			C171.531,160.103,190.577,144.205,240.22,149.826z M172.28,358.939c-57.474-3.802-97.876-28.608-118.588-57.54
			c-1.364-1.908-1.569-4.451-0.554-6.636c19.304-41.224,52.629-70.18,93.151-84.207c2.626,1.826,6.934,5.087,11.826,9.805
			C189.687,250.849,201.681,297.646,172.28,358.939z M259.871,366.652c10.482-2.267,21.211-5.016,32.175-8.236
			c4.615,7.693,9.487,14.934,14.441,20.883C294.662,379.155,277.574,376.724,259.871,366.652z M361.238,316.415
			c-5.245,1.747-89.95,43.002-172.271,43.078c24.819-55.954,21.348-114.096-24.319-154.055
			c70.762-15.393,145.801,21.19,200.897,68.289c16.947,14.412,41.685,12.401,37.437,24.472c-1.749,5.096-6.772,4.818-13.364,7.785
			C387,306.946,379.667,309.641,361.238,316.415z M458.01,348.887l-66.72-20.749c-1.771-1.476-1-3.519-1.262-5.908l13.867-5.098
			c13.259-4.872,18.95-20.635,11.652-32.524c-5.841-9.495-16.782-11.509-26.862-15.282c0.058-0.807-0.354-1.991,0.687-3.292
			c6.708-2.574,36.832-14.216,65.53-26.719c19.317-8.42,41.714,5.349,41.714,27.17v54.073h0
			C496.616,340.546,477.222,354.853,458.01,348.887z"/>
	</g>
</g>
<g>
	<g>
		<circle cx="99.1" cy="271.351" r="12.459"/>
	</g>
</g>
<g>
	<g>
		<path d="M69.398,177.856c-4.249,0-7.693,3.444-7.693,7.692c0,9.69-8.127,17.478-17.992,16.866
			c-14.972-0.93-21.73-20.262-9.447-30.079c11.587-9.261,18.231-23.494,18.231-39.05v-32.921c26.827-7.713,26.857-45.878,0-53.599
			V12.53c0-4.248-3.443-7.693-7.693-7.693s-7.693,3.444-7.693,7.693v34.236c-11.646,3.349-20.194,14.091-20.194,26.8
			c0,12.709,8.549,23.451,20.194,26.8v32.923c0.001,10.694-4.653,20.798-12.452,27.031c-23.77,18.996-10.359,57.516,20.179,57.516
			c18.074,0,32.251-14.755,32.251-32.287C77.091,181.301,73.648,177.856,69.398,177.856z M32.303,73.566
			c0-6.894,5.608-12.502,12.502-12.502s12.502,5.608,12.502,12.502c0,6.436-4.89,11.749-11.15,12.426
			c-0.945-0.168-1.759-0.168-2.705,0C37.193,85.315,32.303,80.002,32.303,73.566z"/>
	</g>
</g>
<g>
	<g>
		<path d="M274.551,489.262c-2.805-3.188-7.667-3.5-10.856-0.692c-4.841,4.259-12.139,4.323-17.072-0.015
			c-10.671-9.391-26.687-9.413-37.385,0.006c-4.87,4.288-12.178,4.297-17.059,0c-3.191-2.807-8.052-2.496-10.857,0.692
			c-2.806,3.19-2.497,8.05,0.692,10.857c10.7,9.416,26.717,9.395,37.39-0.003c4.852-4.272,12.152-4.319,17.074,0.012
			C255.125,516.523,284.466,500.531,274.551,489.262z"/>
	</g>
</g>
<g>
	<g>
		<path d="M344.097,439.189c-2.806-3.19-7.666-3.501-10.856-0.695c-4.843,4.261-12.14,4.324-17.073-0.014
			c-10.672-9.391-26.687-9.413-37.386,0.006c-4.87,4.288-12.179,4.297-17.06,0c-3.191-2.807-8.052-2.496-10.857,0.692
			c-9.924,11.278,19.447,27.263,38.083,10.855c4.852-4.272,12.152-4.319,17.074,0.012
			C324.6,466.387,354.061,450.519,344.097,439.189z"/>
	</g>
</g>
<g>
	<g>
		<path d="M95.225,407.949c-2.806-3.19-7.669-3.501-10.857-0.694c-4.84,4.258-12.139,4.325-17.072-0.016
			c-10.676-9.39-26.689-9.411-37.385,0.007c-4.892,4.306-12.196,4.28-17.059,0.001c-3.191-2.807-8.05-2.496-10.857,0.692
			c-9.924,11.275,19.439,27.262,38.082,10.855c4.852-4.273,12.152-4.319,17.074,0.012C75.799,435.21,105.141,419.218,95.225,407.949
			z"/>
	</g>
</g>
<g>
	<g>
		<path d="M455.75,480.489c-2.806-3.192-7.667-3.504-10.857-0.696c-2.399,2.109-6.14,2.461-9.116-0.045
			c-8.398-7.35-20.958-7.348-29.352,0.04c-2.588,2.278-6.47,2.283-9.064,0.001c-3.189-2.808-8.05-2.497-10.857,0.692
			c-9.118,10.361,14.83,24.284,30.087,10.855c2.443-2.152,6.248-2.425,9.116,0.044C441.063,504.827,464.721,490.689,455.75,480.489z
			"/>
	</g>
</g>
<g>
	<g>
		<path d="M128.008,461.654c-2.805-3.19-7.668-3.503-10.857-0.696c-2.487,2.187-6.32,2.378-9.076-0.01
			c-8.393-7.382-20.979-7.398-29.391,0.005c-2.599,2.288-6.48,2.274-9.064,0.001c-3.189-2.807-8.052-2.496-10.857,0.692
			c-9.115,10.357,14.832,24.286,30.086,10.855c2.635-2.318,6.55-2.247,9.077,0.009C113.246,485.99,137.041,471.923,128.008,461.654z
			"/>
	</g>
</g>
<g>
	<g>
		<path d="M438.981,388.89c-2.806-3.19-7.667-3.503-10.857-0.696c-2.599,2.285-6.477,2.274-9.062,0.001
			c-8.632-7.552-21.169-7.259-29.404-0.007c-2.593,2.282-6.476,2.281-9.066,0.001c-3.189-2.808-8.05-2.497-10.857,0.692
			c-2.806,3.19-2.497,8.05,0.692,10.857c8.408,7.403,20.999,7.389,29.396-0.001c2.414-2.126,6.219-2.449,9.115,0.044
			C424.268,413.205,448.004,399.149,438.981,388.89z"/>
	</g>
</g>
<g>
</g>
<g>
</g>
<g>
</g>
<g>
</g>
<g>
</g>
<g>
</g>
<g>
</g>
<g>
</g>
<g>
</g>
<g>
</g>
<g>
</g>
<g>
</g>
<g>
</g>
<g>
</g>
<g>
</g>
</svg>
