<?xml version="1.0" encoding="iso-8859-1"?>
<!-- Generator: Adobe Illustrator 19.0.0, SVG Export Plug-In . SVG Version: 6.00 Build 0)  -->
<svg version="1.1" id="Capa_1" xmlns="http://www.w3.org/2000/svg" xmlns:xlink="http://www.w3.org/1999/xlink" x="0px" y="0px"
	 viewBox="0 0 496 496" style="enable-background:new 0 0 496 496;" xml:space="preserve">
<g>
	<g>
		<g>
			<path d="M407.192,144H496V96H368c-22.056,0-40,17.944-40,40c0,13.128,6.448,24.704,16.248,32H344v40h-24
				c-13.232,0-24,10.768-24,24v9.856c-16.016,3.648-30.008,12.616-40,24.984V216c0-30.872-25.128-56-56-56v-8
				c0-13.232-10.768-24-24-24h-24V72h-0.224c7.752-5.776,13.416-14.192,15.416-24H248V0H128c-22.056,0-40,17.944-40,40
				c0,13.128,6.448,24.704,16.248,32H104v56H80c-13.232,0-24,10.768-24,24v8c-30.872,0-56,25.128-56,56v240
				c0,22.056,17.944,40,40,40h176c10.776,0,20.528-4.328,27.728-11.28C247.976,491.472,255.448,496,264,496h208
				c13.232,0,24-10.768,24-24V312c0-34.2-23.984-62.848-56-70.144V232c0-13.232-10.768-24-24-24h-24v-40h-0.224
				C399.528,162.224,405.192,153.808,407.192,144z M168,144h8c4.416,0,8,3.584,8,8v8h-16V144z M152,144v16h-16v-16H152z M120,128
				V79.192c2.584,0.528,5.264,0.808,8,0.808c2.752,0,5.408-0.344,8-0.88V128H120z M104,40c0-13.232,10.768-24,24-24h104v16h-80v8
				c0,13.232-10.768,24-24,24S104,53.232,104,40z M104,144h16v16h-16V144z M72,152c0-4.416,3.584-8,8-8h8v16H72V152z M240,312v144
				c0,13.232-10.768,24-24,24H40c-13.232,0-24-10.768-24-24V216c0-22.056,17.944-40,40-40h144c22.056,0,40,17.944,40,40V312z
				 M344,224h16v16h-16V224z M312,232c0-4.416,3.584-8,8-8h8v16h-16V232z M480,432h-16v16h16v24c0,4.416-3.584,8-8,8H264
				c-4.416,0-8-3.584-8-8v-16v-8h192v-16H256V320h224V432z M408,224h8c4.416,0,8,3.584,8,8v8h-16V224z M424,256
				c28.152,0,51.456,20.912,55.36,48H256.64c3.904-27.088,27.208-48,55.36-48H424z M392,224v16h-16v-16H392z M360,208v-32.808
				c2.584,0.528,5.264,0.808,8,0.808c2.752,0,5.408-0.344,8-0.88V208H360z M392,136c0,13.232-10.768,24-24,24s-24-10.768-24-24
				s10.768-24,24-24h112v16h-88V136z"/>
			<path d="M32,448h192V208H32V448z M48,224h160v208H48V224z"/>
			<path d="M146.736,275.568C143.152,268.44,135.976,264,128,264s-15.16,4.44-18.736,11.576l-24.32,48.648
				c-3.232,6.48-4.944,13.72-4.944,20.944C80,370.992,101.008,392,126.832,392h2.328c25.832,0,46.84-21.008,46.84-46.832
				c0-7.216-1.712-14.464-4.944-20.944L146.736,275.568z M129.168,376h-2.328C109.832,376,96,362.168,96,345.168
				c0-4.752,1.128-9.52,3.256-13.792l24.32-48.632C124.424,281.048,126.12,280,128,280s3.576,1.048,4.424,2.736l24.32,48.632
				c2.128,4.272,3.256,9.048,3.256,13.8C160,362.168,146.168,376,129.168,376z"/>
			<path d="M368,336h-96v80h96V336z M352,400h-64v-48h64V400z"/>
			<rect x="384" y="336" width="16" height="16"/>
			<rect x="416" y="336" width="48" height="16"/>
			<rect x="384" y="368" width="80" height="16"/>
			<rect x="448" y="400" width="16" height="16"/>
			<rect x="384" y="400" width="48" height="16"/>
		</g>
	</g>
</g>
<g>
</g>
<g>
</g>
<g>
</g>
<g>
</g>
<g>
</g>
<g>
</g>
<g>
</g>
<g>
</g>
<g>
</g>
<g>
</g>
<g>
</g>
<g>
</g>
<g>
</g>
<g>
</g>
<g>
</g>
</svg>
