<?xml version="1.0" encoding="iso-8859-1"?>
<!-- Generator: Adobe Illustrator 19.0.0, SVG Export Plug-In . SVG Version: 6.00 Build 0)  -->
<svg version="1.1" id="Capa_1" xmlns="http://www.w3.org/2000/svg" xmlns:xlink="http://www.w3.org/1999/xlink" x="0px" y="0px"
	 viewBox="0 0 473.04 473.04" style="enable-background:new 0 0 473.04 473.04;" xml:space="preserve">
<g>
	<g>
		<path d="M324.878,22.72l-29.68-21.2c-1.35-0.978-2.973-1.509-4.64-1.52h-120c-4.418,0-8,3.582-8,8s3.582,8,8,8h54.64v18.08h-5.68
			c-9.18,1.003-15.808,9.258-14.805,18.437c0.002,0.014,0.003,0.028,0.005,0.043v19.6c-0.049,0.853-0.049,1.707,0,2.56
			c-21.6,2.56-25.12,19.76-25.12,30.32v27.52c0.025,1.404,0.212,2.8,0.56,4.16c-18.96,4.88-35.36,19.44-35.36,49.12V422
			c0,24.72,13.44,51.04,51.04,51.04h76.8c37.68,0,51.04-26.4,51.04-51.04V186.08c0-30.56-17.44-45.2-37.2-49.6
			c0.125-1.223,0.125-2.456,0-3.68v-28.08c0-22.72-13.84-28.96-25.12-30.32c0.049-0.853,0.049-1.707,0-2.56V52.56
			c0.833-9.188-5.933-17.315-15.12-18.16h-5.68V16.08h47.2l27.84,19.68c3.601,2.563,8.597,1.721,11.16-1.88
			C329.321,30.279,328.479,25.283,324.878,22.72z M307.998,186.08V422c0,16-6.08,35.04-35.04,35.04h-76.8
			c-28.96,0-35.04-19.04-35.04-35.04V186.08c0-28.96,19.04-35.04,35.04-35.04h76.8C288.878,150.96,307.998,157.04,307.998,186.08z
			 M256.478,90c13.6,0,14.72,6.96,14.72,14.72v27.84c0,1.193-0.967,2.16-2.16,2.16h-71.04c-1.193,0-2.16-0.967-2.16-2.16v-27.84
			c0-13.6,6.96-14.72,14.72-14.72H256.478z M245.918,50c0.279,0.685,0.415,1.42,0.4,2.16v19.6c0.015,0.74-0.121,1.475-0.4,2.16
			h-24.8c-0.279-0.685-0.415-1.42-0.4-2.16v-19.2c-0.015-0.74,0.121-1.475,0.4-2.16L245.918,50z"/>
	</g>
</g>
<g>
	<g>
		<path d="M279.278,246.4h-83.28c-8.837,0-16,7.163-16,16v83.28c0,8.837,7.163,16,16,16h83.28c8.837,0,16-7.163,16-16V262.4
			C295.278,253.563,288.115,246.4,279.278,246.4z M195.998,345.68V262.4h83.28l0.08,83.28H195.998z"/>
	</g>
</g>
<g>
</g>
<g>
</g>
<g>
</g>
<g>
</g>
<g>
</g>
<g>
</g>
<g>
</g>
<g>
</g>
<g>
</g>
<g>
</g>
<g>
</g>
<g>
</g>
<g>
</g>
<g>
</g>
<g>
</g>
</svg>
