<svg xmlns="http://www.w3.org/2000/svg" width="445.786" height="445.786"><path d="M220.804 212.325l-42.082 42.073c-5.167 5.161-5.167 13.565 0 18.73 5.166 5.16 13.571 5.16 18.737 0l42.087-42.074c5.151-5.165 5.151-13.561 0-18.729-5.174-5.166-13.578-5.166-18.742 0zm16.523 16.919l-24.813 24.811c-4.062 4.059-10.657 4.059-14.719 0-4.062-4.071-4.062-10.66 0-14.721l24.812-24.807c4.061-4.069 10.648-4.06 14.72 0 4.06 4.068 4.06 10.656 0 14.717z"/><path d="M399.94 151.626L299.872 51.56l.013-.005-18.568-18.564-54.068 54.066c-19.385 19.387-24.635 47.5-15.916 71.688L3.364 366.717c-3.338 3.349-3.338 8.761 0 12.104l64.462 64.461a8.572 8.572 0 0 0 12.112 0l207.972-207.97c24.181 8.732 52.29 3.475 71.684-15.914l54.06-54.062-13.708-13.724-.006.014zm-157.102 82.723l-42.085 42.075c-6.98 6.987-18.34 6.987-25.327 0-6.985-6.983-6.979-18.338 0-25.324l42.083-42.08c6.981-6.982 18.342-6.988 25.33 0 6.98 6.992 6.98 18.347-.001 25.329zM393.979 133.279c-5.197-12.908-17.663-29.976-33.344-45.65-15.674-15.678-32.744-28.145-45.654-33.349l-7.787-3.144 89.945 89.938-3.16-7.795zM327.691 38.039a2.694 2.694 0 0 0 3.622-1.248l16.089-32.887c.65-1.352.099-2.977-1.254-3.625a2.69 2.69 0 0 0-3.615 1.245L326.457 34.42a2.657 2.657 0 0 0-.21 1.838 2.73 2.73 0 0 0 1.444 1.781zM352.46 53.114a2.72 2.72 0 0 0 3.796-.602l21.554-29.595a2.714 2.714 0 0 0-4.389-3.189L351.872 49.33a2.706 2.706 0 0 0-.436 2.246 2.669 2.669 0 0 0 1.024 1.538zM373.563 71.032c.114.448.341.867.673 1.223a2.729 2.729 0 0 0 3.848.071l26.353-25.407c1.078-1.04 1.116-2.766.076-3.83a2.709 2.709 0 0 0-3.839-.074L374.32 68.422a2.692 2.692 0 0 0-.757 2.61zM391.979 94.033a2.708 2.708 0 0 0 4.148 1.592l30.368-20.44a2.698 2.698 0 0 0 .733-3.768 2.694 2.694 0 0 0-3.754-.733L393.095 91.13a2.692 2.692 0 0 0-1.116 2.903zM444.694 103.273a2.707 2.707 0 0 0-3.577-1.376l-33.469 14.854a2.712 2.712 0 0 0-1.377 3.578c.594 1.368 2.209 1.984 3.577 1.379l33.468-14.854a2.718 2.718 0 0 0 1.378-3.581z"/></svg>