<svg enable-background="new 0 0 445.786 445.786" height="445.786" viewBox="0 0 445.786 445.786" width="445.786" xmlns="http://www.w3.org/2000/svg"><path d="m220.804 212.325-42.082 42.073c-5.167 5.161-5.167 13.565 0 18.73 5.166 5.16 13.571 5.16 18.737 0l42.087-42.074c5.151-5.165 5.151-13.561 0-18.729-5.174-5.166-13.578-5.166-18.742 0zm16.523 16.919-24.813 24.811c-4.062 4.059-10.657 4.059-14.719 0-4.062-4.071-4.062-10.66 0-14.721l24.812-24.807c4.061-4.069 10.648-4.06 14.72 0 4.06 4.068 4.06 10.656 0 14.717z"/><path d="m399.94 151.626-100.068-100.066.013-.005-18.568-18.564-54.068 54.066c-19.385 19.387-24.635 47.5-15.916 71.688l-207.969 207.972c-3.338 3.349-3.338 8.761 0 12.104l64.462 64.461c3.35 3.343 8.764 3.338 12.112 0l207.972-207.97c24.181 8.732 52.29 3.475 71.684-15.914l54.06-54.062-13.708-13.724zm-157.102 82.723-42.085 42.075c-6.98 6.987-18.34 6.987-25.327 0-6.985-6.983-6.979-18.338 0-25.324l42.083-42.08c6.981-6.982 18.342-6.988 25.33 0 6.98 6.992 6.98 18.347-.001 25.329z"/><path d="m393.979 133.279c-5.197-12.908-17.663-29.976-33.344-45.65-15.674-15.678-32.744-28.145-45.654-33.349l-7.787-3.144 89.945 89.938z"/><path d="m327.691 38.039c1.349.662 2.978.102 3.622-1.248l16.089-32.887c.65-1.352.099-2.977-1.254-3.625-1.346-.663-2.966-.101-3.615 1.245l-16.076 32.896c-.298.594-.358 1.245-.21 1.838.191.751.7 1.416 1.444 1.781z"/><path d="m352.46 53.114c1.213.878 2.914.615 3.796-.602l21.554-29.595c.877-1.198.607-2.903-.603-3.784-1.201-.878-2.899-.616-3.786.595l-21.549 29.602c-.49.673-.621 1.502-.436 2.246.137.602.497 1.144 1.024 1.538z"/><path d="m373.563 71.032c.114.448.341.867.673 1.223 1.046 1.075 2.76 1.113 3.848.071l26.353-25.407c1.078-1.04 1.116-2.766.076-3.83-1.037-1.084-2.756-1.117-3.839-.074l-26.354 25.407c-.733.701-.984 1.696-.757 2.61z"/><path d="m391.979 94.033c.08.298.197.588.383.859.832 1.242 2.518 1.573 3.765.733l30.368-20.44c1.255-.835 1.577-2.528.733-3.768-.826-1.242-2.512-1.574-3.754-.733l-30.379 20.446c-.976.657-1.392 1.828-1.116 2.903z"/><path d="m444.694 103.273c-.607-1.371-2.209-1.984-3.577-1.376l-33.469 14.854c-1.219.542-1.839 1.872-1.53 3.127.042.15.088.301.153.451.594 1.368 2.209 1.984 3.577 1.379l33.468-14.854c1.369-.61 1.98-2.208 1.378-3.581z"/></svg>