<svg xmlns="http://www.w3.org/2000/svg" viewBox="0 0 512 512"><path d="M318.441 59.999c-51.556 0-93.5 41.944-93.5 93.5s41.944 93.5 93.5 93.5 93.5-41.944 93.5-93.5-41.944-93.5-93.5-93.5zm0 157c-35.014 0-63.5-28.486-63.5-63.5s28.486-63.5 63.5-63.5 63.5 28.486 63.5 63.5-28.486 63.5-63.5 63.5z"/><path d="M479.495 306.05v.001c-37.873 0-68.685 30.812-68.685 68.685v68.579c0 21.331-17.354 38.685-38.685 38.685-18.586 0-34.148-13.177-37.846-30.678 26.718-7.026 46.483-31.383 46.483-60.276v-97.233c54.951-24.442 91.179-79.546 91.179-140.313 0-84.64-68.859-153.5-153.5-153.5H0v132.185l167.261 47.982c4.384 25 14.923 48.524 30.791 68.561 15.511 19.586 35.433 35.024 58.068 45.085v97.232c0 29.38 20.442 54.06 47.845 60.606 4.13 33.953 33.111 60.348 68.161 60.348 37.873 0 68.685-30.812 68.685-68.685v-68.579c0-21.331 17.354-38.685 38.685-38.685H512v-30h-32.505zM60.048 118.2L30 109.58V29.999h30.048V118.2zm135.611 48.631l-1.076-10.037-104.535-29.987V29.999h228.394c68.098 0 123.5 55.402 123.5 123.5 0 51.767-32.674 98.425-81.304 116.104l-9.875 3.59v35.539H286.12v-35.539l-9.875-3.59c-43.975-15.989-75.607-56.33-80.586-102.772zm122.783 256.536c-17.822 0-32.322-14.499-32.322-32.321v-52.313h64.643v52.313c0 17.821-14.499 32.321-32.321 32.321z"/></svg>