<svg enable-background="new 0 0 512 512" viewBox="0 0 512 512" xmlns="http://www.w3.org/2000/svg"><path d="m451 135.5v-15c0-57.897-47.103-105-105-105-17.526 0-160.024 0-180 0-57.897 0-105 47.103-105 105v15h-61v90h61v121h90v150h300v-271h61v-90zm-300 181h-60c0-11.256 0-77.189 0-91h60zm0-121h-121v-30h121zm-60-60c0-16.542 13.458-30 30-30s30 13.458 30 30zm330 331h-240v-30h240zm0-60h-240v-30h240zm0-60h-240c0-4.907 0-204.638 0-211 0-33.084-26.916-60-60-60-5.781 0-11.372.821-16.666 2.354 13.552-19.538 36.14-32.354 61.666-32.354h180c41.355 0 75 33.645 75 75zm61-151h-31v-30h31z"/></svg>