<svg xmlns="http://www.w3.org/2000/svg" viewBox="0 0 512 512"><path d="M451 135.5v-15c0-57.897-47.103-105-105-105H166c-57.897 0-105 47.103-105 105v15H0v90h61v121h90v150h300v-271h61v-90h-61zm-300 181H91v-91h60v91zm0-121H30v-30h121v30zm-60-60c0-16.542 13.458-30 30-30s30 13.458 30 30H91zm330 331H181v-30h240v30zm0-60H181v-30h240v30zm0-60H181v-211c0-33.084-26.916-60-60-60-5.781 0-11.372.821-16.666 2.354C117.886 58.316 140.474 45.5 166 45.5h180c41.355 0 75 33.645 75 75v226zm61-151h-31v-30h31v30z"/></svg>