<svg enable-background="new 0 0 480 480" viewBox="0 0 480 480" xmlns="http://www.w3.org/2000/svg"><path d="m94.896 204.68c-19.872 42.669-19.872 91.939 0 134.608 26.281 56.442 82.844 92.582 145.104 92.712 62.316.017 118.973-36.148 145.193-92.68 37.18-80.163 2.335-175.288-77.828-212.468s-175.289-2.335-212.469 77.828zm275.85 6.8c33.424 72.164 2.019 157.761-70.145 191.185s-157.761 2.019-191.185-70.145c-17.878-38.38-17.878-82.7 0-121.08 23.647-50.798 74.552-83.325 130.584-83.44 56.127-.032 107.157 32.551 130.746 83.48z"/><path d="m127.096 211.84c-.001.001-.001.003-.002.004-2.075 3.901-.595 8.745 3.306 10.82 9.791 5.221 17.807 13.237 23.028 23.028 14.529 27.248 4.219 61.115-23.028 75.644-.001.001-.003.001-.004.002-3.9 2.077-5.377 6.922-3.3 10.822 22.175 41.77 65.613 67.87 112.904 67.84 47.33.029 90.813-26.063 113.059-67.84 33.225-62.398 9.577-139.916-52.821-173.141s-139.917-9.577-173.142 52.821zm208.079 1.024c32.678 52.52 16.592 121.586-35.927 154.263-52.52 32.678-121.586 16.592-154.263-35.927 7.129-4.932 13.309-11.111 18.24-18.24 22.604-32.678 14.437-77.492-18.24-100.096 9.065-14.57 21.357-26.862 35.927-35.927 52.519-32.678 121.585-16.593 154.263 35.927z"/><path d="m432 0h-384c-4.418 0-8 3.582-8 8v464c0 4.418 3.582 8 8 8h384c4.418 0 8-3.582 8-8v-464c0-4.418-3.582-8-8-8zm-8 64h-56c-4.418 0-8 3.582-8 8s3.582 8 8 8h56v384h-368v-384h280c4.418 0 8-3.582 8-8s-3.582-8-8-8h-280v-48h368z"/><circle cx="88" cy="40" r="16"/><circle cx="136" cy="40" r="16"/><path d="m392 32h16v16h-16z"/><path d="m360 32h16v16h-16z"/><path d="m328 32h16v16h-16z"/></svg>