<svg xmlns="http://www.w3.org/2000/svg" viewBox="0 0 480 480"><path d="M94.896 204.68a159.419 159.419 0 0 0 0 134.608C121.177 395.73 177.74 431.87 240 432c62.316.017 118.973-36.148 145.193-92.68 37.18-80.163 2.335-175.288-77.828-212.468s-175.289-2.335-212.469 77.828zm275.85 6.8c33.424 72.164 2.019 157.761-70.145 191.185s-157.761 2.019-191.185-70.145a143.375 143.375 0 0 1 0-121.08C133.063 160.642 183.968 128.115 240 128c56.127-.032 107.157 32.551 130.746 83.48z"/><path d="M127.096 211.84l-.002.004a8 8 0 0 0 3.306 10.82 55.912 55.912 0 0 1 23.028 23.028c14.529 27.248 4.219 61.115-23.028 75.644l-.004.002a8 8 0 0 0-3.3 10.822C149.271 373.93 192.709 400.03 240 400c47.33.029 90.813-26.063 113.059-67.84 33.225-62.398 9.577-139.916-52.821-173.141s-139.917-9.577-173.142 52.821zm208.079 1.024c32.678 52.52 16.592 121.586-35.927 154.263-52.52 32.678-121.586 16.592-154.263-35.927a71.953 71.953 0 0 0 18.24-18.24c22.604-32.678 14.437-77.492-18.24-100.096a111.99 111.99 0 0 1 35.927-35.927c52.519-32.678 121.585-16.593 154.263 35.927z"/><path d="M432 0H48a8 8 0 0 0-8 8v464a8 8 0 0 0 8 8h384a8 8 0 0 0 8-8V8a8 8 0 0 0-8-8zm-8 64h-56a8 8 0 0 0 0 16h56v384H56V80h280a8 8 0 0 0 0-16H56V16h368v48z"/><circle cx="88" cy="40" r="16"/><circle cx="136" cy="40" r="16"/><path d="M392 32h16v16h-16zM360 32h16v16h-16zM328 32h16v16h-16z"/></svg>