<svg xmlns="http://www.w3.org/2000/svg" viewBox="0 0 512 512"><path d="M511.906 414.594l-38.969-292.229c-2.813-21.115-20.99-37.031-42.292-37.031H181.333c-5.896 0-10.667 4.771-10.667 10.667s4.771 10.667 10.667 10.667h249.313c10.646 0 19.74 7.958 21.146 18.51l14.604 109.49H181.333C81.344 234.667 0 316.01 0 416a10.66 10.66 0 0 0 10.667 10.667h490.667c3.073 0 6-1.323 8.021-3.635a10.673 10.673 0 0 0 2.551-8.438zm-490.218-9.261C27.198 322.062 96.698 256 181.333 256H469.24l19.906 149.333H21.688z"/><circle cx="256" cy="330.667" r="21.333"/></svg>