<svg enable-background="new 0 0 512 512" viewBox="0 0 512 512" xmlns="http://www.w3.org/2000/svg"><path d="m511.906 414.594-38.969-292.229c-2.813-21.115-20.99-37.031-42.292-37.031h-249.312c-5.896 0-10.667 4.771-10.667 10.667s4.771 10.667 10.667 10.667h249.313c10.646 0 19.74 7.958 21.146 18.51l14.604 109.49h-285.063c-99.989-.001-181.333 81.342-181.333 181.332 0 5.896 4.771 10.667 10.667 10.667h490.667c3.073 0 6-1.323 8.021-3.635 2.03-2.324 2.958-5.397 2.551-8.438zm-490.218-9.261c5.51-83.271 75.01-149.333 159.645-149.333h287.907l19.906 149.333z"/><circle cx="256" cy="330.667" r="21.333"/></svg>