<svg xmlns="http://www.w3.org/2000/svg" viewBox="0 0 297 297"><path d="M159.087 224.46V105.399H64.359V224.46c0 6.862 5.582 12.444 12.444 12.444h69.839c6.862 0 12.445-5.582 12.445-12.444zM297 115.987c0-5.838-4.75-10.587-10.587-10.587H174.689v21.174h111.723c5.838 0 10.588-4.749 10.588-10.587zM0 115.987c0 5.838 4.749 10.587 10.587 10.587h38.17V105.4h-38.17C4.749 105.399 0 110.149 0 115.987zM124.63 89.797h144.557c5.306 0 9.058-5.191 7.393-10.229l-21.582-65.319a11.145 11.145 0 0 0-10.582-7.648h-67.072c-10.3 0-18.762 8.014-19.479 18.135-.462 6.516 4.362 12.42 10.893 12.536 5.291.093 9.758-3.5 11.001-8.382h56.602l6.834 20.684h-74.108c-23.132 0-42.213 17.671-44.457 40.223zM174.689 231.235l77.586 57.031a11.093 11.093 0 0 0 6.546 2.133c3.443 0 6.841-1.592 9.021-4.591 3.621-4.978 2.521-11.948-2.457-15.567L176.641 205.7l87.345-63.523h-37.894L174.69 179.56v51.675zM74.526 252.507l-24.523 17.734c-4.978 3.62-6.078 10.589-2.458 15.567a11.13 11.13 0 0 0 9.021 4.591c2.274 0 4.568-.693 6.546-2.133l49.169-35.759c.001 0-37.003.06-37.755 0z"/></svg>