<svg enable-background="new 0 0 297 297" viewBox="0 0 297 297" xmlns="http://www.w3.org/2000/svg"><path d="m159.087 224.46v-119.061h-94.728v119.061c0 6.862 5.582 12.444 12.444 12.444h69.839c6.862 0 12.445-5.582 12.445-12.444z"/><path d="m297 115.987c0-5.838-4.75-10.587-10.587-10.587h-111.724v21.174h111.723c5.838 0 10.588-4.749 10.588-10.587z"/><path d="m0 115.987c0 5.838 4.749 10.587 10.587 10.587h38.17v-21.174h-38.17c-5.838-.001-10.587 4.749-10.587 10.587z"/><path d="m124.63 89.797h144.557c5.306 0 9.058-5.191 7.393-10.229l-21.582-65.319c-1.508-4.564-5.774-7.648-10.582-7.648h-67.072c-10.3 0-18.762 8.014-19.479 18.135-.462 6.516 4.362 12.42 10.893 12.536 5.291.093 9.758-3.5 11.001-8.382h56.602l6.834 20.684h-74.108c-23.132 0-42.213 17.671-44.457 40.223z"/><path d="m174.689 231.235 77.586 57.031c1.98 1.44 4.273 2.133 6.546 2.133 3.443 0 6.841-1.592 9.021-4.591 3.621-4.978 2.521-11.948-2.457-15.567l-88.744-64.541 87.345-63.523h-37.894l-51.402 37.383v51.675z"/><path d="m74.526 252.507-24.523 17.734c-4.978 3.62-6.078 10.589-2.458 15.567 2.181 2.998 5.577 4.591 9.021 4.591 2.274 0 4.568-.693 6.546-2.133l49.169-35.759c.001 0-37.003.06-37.755 0z"/></svg>