<svg xmlns="http://www.w3.org/2000/svg" viewBox="0 0 489.83 489.83"><path d="M398.915 0h-308c-7.857 0-14.25 6.393-14.25 14.25v82.912a4.25 4.25 0 0 0 4.25 4.25h25.416v41.084c0 7.857 6.393 14.25 14.25 14.25h34.052v5.683c0 6.087 4.952 11.039 11.039 11.039h19.823c6.087 0 11.039-4.952 11.039-11.039v-5.682h32.047c7.857 0 14.25-6.393 14.25-14.25v-41.084h41.316c13.857 0 25.131 11.274 25.131 25.132v236.742c0 13.858-11.273 25.132-25.131 25.132h-59.574c11.929-4.791 20.378-16.469 20.378-30.09V339.88c26.761-2.233 47.88-24.74 47.88-52.05s-21.119-49.816-47.88-52.05v-11.061a4.25 4.25 0 0 0-4.25-4.25H109.249a4.25 4.25 0 0 0-4.25 4.25v133.61c0 13.622 8.449 25.299 20.377 30.09H80.915a4.25 4.25 0 0 0-4.25 4.25v82.912c0 7.857 6.393 14.25 14.25 14.25h308c7.857 0 14.25-6.393 14.25-14.25V14.25c0-7.857-6.393-14.25-14.25-14.25zM244.952 267.325c9.501 1.982 16.668 10.431 16.668 20.504 0 10.074-7.166 18.521-16.668 20.504v-41.008zm39.38 20.504c0 22.625-17.309 41.322-39.38 43.525v-14.397c14.211-2.081 25.168-14.36 25.168-29.128 0-14.769-10.957-27.047-25.168-29.129v-14.396c22.07 2.203 39.38 20.9 39.38 43.525zm-170.833 70.499v-129.36h15.167v74.861a4.25 4.25 0 0 0 8.5 0v-74.861h99.287v129.36c0 13.189-10.73 23.918-23.919 23.918h-75.116c-13.189 0-23.919-10.73-23.919-23.918zm74.535-195.9c0 1.4-1.139 2.539-2.539 2.539h-19.823a2.542 2.542 0 0 1-2.539-2.539v-5.683h24.901v5.683zm46.298-19.932c0 3.17-2.58 5.75-5.75 5.75h-108c-3.17 0-5.75-2.58-5.75-5.75v-41.084h119.5v41.084zM404.665 475.58c0 3.17-2.58 5.75-5.75 5.75h-308c-3.17 0-5.75-2.58-5.75-5.75v-10.501h96.75a4.25 4.25 0 0 0 0-8.5h-96.75v-17.5h285.75a4.25 4.25 0 0 0 0-8.5H85.165v-33.661h198.983c18.544 0 33.631-15.087 33.631-33.632V126.544c0-18.544-15.087-33.632-33.631-33.632H85.165V66.079h164.75a4.25 4.25 0 0 0 0-8.5H85.165v-16.5h73.75a4.25 4.25 0 0 0 0-8.5h-73.75V14.25c0-3.17 2.58-5.75 5.75-5.75h308c3.17 0 5.75 2.58 5.75 5.75v461.33z"/><path d="M132.915 320.579a4.25 4.25 0 0 0-4.25 4.25v22a4.25 4.25 0 0 0 8.5 0v-22a4.25 4.25 0 0 0-4.25-4.25zM357.915 156.545c-9.199 0-16.682 7.483-16.682 16.681 0 9.199 7.484 16.683 16.683 16.683s16.682-7.484 16.682-16.683c-.001-9.198-7.485-16.681-16.683-16.681zm0 24.863c-4.512 0-8.183-3.671-8.183-8.183 0-4.511 3.67-8.181 8.182-8.181 4.512 0 8.183 3.67 8.183 8.181 0 4.512-3.67 8.183-8.182 8.183zM357.915 150.079c4.456 0 8.645-1.735 11.796-4.886a16.575 16.575 0 0 0 4.886-11.797c0-9.198-7.484-16.681-16.683-16.681s-16.682 7.483-16.682 16.681c0 9.199 7.484 16.683 16.683 16.683zm-.001-24.864c4.512 0 8.183 3.67 8.183 8.182 0 2.185-.851 4.24-2.396 5.786a8.128 8.128 0 0 1-5.785 2.396c-4.512 0-8.183-3.671-8.183-8.183-.001-4.511 3.669-8.181 8.181-8.181z"/></svg>