<svg enable-background="new 0 0 446 446" viewBox="0 0 446 446" xmlns="http://www.w3.org/2000/svg"><path d="m438.5 56.5h-431c-4.142 0-7.5 3.358-7.5 7.5v298c0 4.142 3.358 7.5 7.5 7.5h19.5v6.232c0 7.591 6.176 13.768 13.768 13.768h50.465c7.591 0 13.768-6.176 13.768-13.768v-6.232h236v6.232c0 7.591 6.176 13.768 13.768 13.768h50.465c7.592 0 13.768-6.176 13.768-13.768v-6.232h19.5c4.143 0 7.5-3.358 7.5-7.5v-298c-.002-4.142-3.359-7.5-7.502-7.5zm-7.5 249.5h-93.5v-234.5h93.5zm-416-234.5h312.5v283h-312.5zm75 303h-48v-5h48zm314 0h-48v-5h48zm-66.5-20v-38.5h93.5v38.5z"/><path d="m295.459 347c12.153 0 22.041-9.888 22.041-22.041v-223.918c0-12.153-9.887-22.041-22.041-22.041h-250.918c-12.153 0-22.041 9.888-22.041 22.041v223.918c0 12.154 9.888 22.041 22.041 22.041zm-262.959-22.041v-223.918c0-6.639 5.401-12.041 12.041-12.041h250.918c6.64 0 12.041 5.401 12.041 12.041v223.918c0 6.64-5.401 12.041-12.041 12.041h-250.918c-6.64 0-12.041-5.401-12.041-12.041z"/><path d="m292.5 327c2.762 0 5-2.239 5-5v-218c0-2.761-2.238-5-5-5h-245c-2.761 0-5 2.239-5 5v218c0 2.761 2.239 5 5 5zm-240-218h235v208h-235z"/><path d="m386 148c16.267 0 29.5-13.233 29.5-29.5s-13.233-29.5-29.5-29.5-29.5 13.233-29.5 29.5 13.234 29.5 29.5 29.5zm0-49c10.752 0 19.5 8.748 19.5 19.5s-8.748 19.5-19.5 19.5-19.5-8.748-19.5-19.5 8.749-19.5 19.5-19.5z"/><path d="m386 214.878c16.267 0 29.5-13.233 29.5-29.5s-13.233-29.5-29.5-29.5-29.5 13.233-29.5 29.5 13.234 29.5 29.5 29.5zm0-49c10.752 0 19.5 8.748 19.5 19.5s-8.748 19.5-19.5 19.5-19.5-8.748-19.5-19.5 8.749-19.5 19.5-19.5z"/><path d="m361.5 268h49c2.762 0 5-2.239 5-5s-2.238-5-5-5h-49c-2.762 0-5 2.239-5 5s2.239 5 5 5z"/><path d="m410.5 277h-49c-2.762 0-5 2.239-5 5s2.238 5 5 5h49c2.762 0 5-2.239 5-5s-2.238-5-5-5z"/><path d="m262 297h-184c-2.761 0-5 2.239-5 5s2.239 5 5 5h184c2.762 0 5-2.239 5-5s-2.238-5-5-5z"/><path d="m378.034 188.909c.93-.93 1.47-2.22 1.47-3.53 0-1.32-.54-2.61-1.47-3.54-.931-.93-2.221-1.46-3.53-1.46-1.32 0-2.61.53-3.54 1.46s-1.46 2.22-1.46 3.54c0 1.31.53 2.6 1.46 3.53s2.22 1.47 3.54 1.47c1.309 0 2.599-.54 3.53-1.47z"/><path d="m378.034 122.039c.93-.93 1.47-2.22 1.47-3.54s-.54-2.6-1.47-3.53c-.931-.93-2.221-1.47-3.53-1.47-1.32 0-2.61.54-3.54 1.47s-1.46 2.22-1.46 3.53c0 1.32.53 2.61 1.46 3.54s2.22 1.46 3.54 1.46c1.309 0 2.599-.53 3.53-1.46z"/></svg>