<svg xmlns="http://www.w3.org/2000/svg" viewBox="0 0 446 446"><path d="M438.5 56.5H7.5A7.5 7.5 0 0 0 0 64v298a7.5 7.5 0 0 0 7.5 7.5H27v6.232c0 7.591 6.176 13.768 13.768 13.768h50.465c7.591 0 13.768-6.176 13.768-13.768V369.5h236v6.232c0 7.591 6.176 13.768 13.768 13.768h50.465c7.592 0 13.768-6.176 13.768-13.768V369.5h19.5a7.5 7.5 0 0 0 7.5-7.5V64a7.503 7.503 0 0 0-7.502-7.5zM431 306h-93.5V71.5H431V306zM15 71.5h312.5v283H15v-283zm75 303H42v-5h48v5zm314 0h-48v-5h48v5zm-66.5-20V316H431v38.5h-93.5z"/><path d="M295.459 347c12.153 0 22.041-9.888 22.041-22.041V101.041C317.5 88.888 307.613 79 295.459 79H44.541C32.388 79 22.5 88.888 22.5 101.041v223.918C22.5 337.113 32.388 347 44.541 347h250.918zM32.5 324.959V101.041C32.5 94.402 37.901 89 44.541 89h250.918c6.64 0 12.041 5.401 12.041 12.041v223.918c0 6.64-5.401 12.041-12.041 12.041H44.541c-6.64 0-12.041-5.401-12.041-12.041z"/><path d="M292.5 327a5 5 0 0 0 5-5V104a5 5 0 0 0-5-5h-245a5 5 0 0 0-5 5v218a5 5 0 0 0 5 5h245zm-240-218h235v208h-235V109zM386 148c16.267 0 29.5-13.233 29.5-29.5S402.267 89 386 89s-29.5 13.233-29.5 29.5S369.734 148 386 148zm0-49c10.752 0 19.5 8.748 19.5 19.5S396.752 138 386 138s-19.5-8.748-19.5-19.5S375.249 99 386 99zM386 214.878c16.267 0 29.5-13.233 29.5-29.5s-13.233-29.5-29.5-29.5-29.5 13.233-29.5 29.5 13.234 29.5 29.5 29.5zm0-49c10.752 0 19.5 8.748 19.5 19.5s-8.748 19.5-19.5 19.5-19.5-8.748-19.5-19.5 8.749-19.5 19.5-19.5zM361.5 268h49a5 5 0 1 0 0-10h-49a5 5 0 1 0 0 10zM410.5 277h-49a5 5 0 1 0 0 10h49a5 5 0 1 0 0-10z"/><path d="M262 297H78a5 5 0 0 0 0 10h184a5 5 0 1 0 0-10zM378.034 188.909a5.04 5.04 0 0 0 1.47-3.53c0-1.32-.54-2.61-1.47-3.54a5.034 5.034 0 0 0-3.53-1.46c-1.32 0-2.61.53-3.54 1.46s-1.46 2.22-1.46 3.54c0 1.31.53 2.6 1.46 3.53.93.93 2.22 1.47 3.54 1.47 1.309 0 2.599-.54 3.53-1.47zM378.034 122.039c.93-.93 1.47-2.22 1.47-3.54 0-1.32-.54-2.6-1.47-3.53a5.043 5.043 0 0 0-3.53-1.47c-1.32 0-2.61.54-3.54 1.47a5.03 5.03 0 0 0-1.46 3.53c0 1.32.53 2.61 1.46 3.54.93.93 2.22 1.46 3.54 1.46 1.309 0 2.599-.53 3.53-1.46z"/></svg>