<svg enable-background="new 0 0 58.748 58.748" viewBox="0 0 58.748 58.748" xmlns="http://www.w3.org/2000/svg"><g fill="#010002"><path d="m22.931 33.822c-.388-.379-.764-.754-1.102-1.145l-13.222 13.066c-2.977.133-7.286.361-7.502.576-.216.213-1.08 1.245-1.102 1.596-.087 1.363 1.957 2.885 4.066 4.97 2.095 2.069 3.583 4.121 4.951 4.067.365-.014 1.417-.865 1.638-1.084l.518-7.039 13.507-13.347c-.461-.393-.932-.853-1.453-1.368zm-17.988 16.872-.187.186c-.155.152-.407.152-.562 0l-2.435-2.406c-.155-.152-.155-.402 0-.555l.187-.186c.155-.152.407-.152.562 0l2.435 2.406c.155.152.155.402 0 .555zm4.496 4.443-.187.186c-.155.152-.407.152-.562 0l-2.435-2.407c-.155-.153-.155-.402 0-.555l.187-.186c.155-.153.407-.153.562 0l2.435 2.406c.155.154.155.403 0 .556z"/><path d="m51.604 10.844c-1.18.479-1.893 1.837-2.292 2.974-.403 1.147-.684 2.331-.867 3.531l3.979-4.646c.569-.564 1.245-1.003 1.947-1.374-.882-.532-1.854-.856-2.767-.485z"/><path d="m58.071 7.831-4.496-4.442c-1.055-1.042-2.278-1.593-3.539-1.593-1.316 0-2.636.615-3.812 1.778l-17.399 16.128c-.049-.025-.098-.05-.154-.067-.346-.108-.709-.174-1.067-.164-.347.009-.688.09-1 .28-.587.358-.827.993-.908 1.642-.019.152-.037.306-.04.456-.006.328.12.57.309.731-.615.665-1.169 1.297-1.65 1.888l8.533 8.432c2.547-2.06 6.108-5.411 11.36-10.601l1.95-2.278c.053-3.173.597-6.631 2.356-9.025 2.276-3.094 5.294-2.46 7.917-.602 1.098-.459 2.215-.933 2.311-1.424.05-.259-.189-.663-.671-1.139z"/><path d="m21.601 29.77c.004 1.355.942 2.273 2.029 3.335l.302.297c1.423 1.407 2.363 2.338 3.62 2.338.917 0 2.044-.461 3.687-1.619l-8.138-8.042c-1.008 1.487-1.503 2.704-1.5 3.691z"/></g></svg>