<svg xmlns="http://www.w3.org/2000/svg" viewBox="0 0 58.748 58.748"><g fill="#010002"><path d="M22.931 33.822a18.988 18.988 0 0 1-1.102-1.145L8.607 45.743c-2.977.133-7.286.361-7.502.576-.216.213-1.08 1.245-1.102 1.596-.087 1.363 1.957 2.885 4.066 4.97 2.095 2.069 3.583 4.121 4.951 4.067.365-.014 1.417-.865 1.638-1.084l.518-7.039 13.507-13.347a27.778 27.778 0 0 1-1.453-1.368l-.299-.292zM4.943 50.694l-.187.186a.403.403 0 0 1-.562 0l-2.435-2.406a.39.39 0 0 1 0-.555l.187-.186a.403.403 0 0 1 .562 0l2.435 2.406a.39.39 0 0 1 0 .555zm4.496 4.443l-.187.186a.403.403 0 0 1-.562 0l-2.435-2.407a.39.39 0 0 1 0-.555l.187-.186a.401.401 0 0 1 .562 0l2.435 2.406a.39.39 0 0 1 0 .556zM51.604 10.844c-1.18.479-1.893 1.837-2.292 2.974a19.515 19.515 0 0 0-.867 3.531l3.979-4.646c.569-.564 1.245-1.003 1.947-1.374-.882-.532-1.854-.856-2.767-.485z"/><path d="M58.071 7.831l-4.496-4.442c-1.055-1.042-2.278-1.593-3.539-1.593-1.316 0-2.636.615-3.812 1.778L28.825 19.702c-.049-.025-.098-.05-.154-.067a3.302 3.302 0 0 0-1.067-.164 1.99 1.99 0 0 0-1 .28c-.587.358-.827.993-.908 1.642a4.433 4.433 0 0 0-.04.456c-.006.328.12.57.309.731a40.08 40.08 0 0 0-1.65 1.888l8.533 8.432c2.547-2.06 6.108-5.411 11.36-10.601l1.95-2.278c.053-3.173.597-6.631 2.356-9.025 2.276-3.094 5.294-2.46 7.917-.602 1.098-.459 2.215-.933 2.311-1.424.05-.259-.189-.663-.671-1.139zM21.601 29.77c.004 1.355.942 2.273 2.029 3.335l.302.297c1.423 1.407 2.363 2.338 3.62 2.338.917 0 2.044-.461 3.687-1.619l-8.138-8.042c-1.008 1.487-1.503 2.704-1.5 3.691z"/></g></svg>