<svg xmlns="http://www.w3.org/2000/svg" viewBox="0 0 463 463"><path d="M345.52 63.784l12.745-15.724c3.619-4.464 4.332-10.461 1.858-15.649S352.544 24 346.796 24h-65.262v-.5c0-12.958-10.542-23.5-23.5-23.5h-16c-12.958 0-23.5 10.542-23.5 23.5v.5h-56.5a7.501 7.501 0 0 0-7.486 7.954L156.975 72h-32.053a23.457 23.457 0 0 0-17.931 8.311 23.462 23.462 0 0 0-5.25 19.054l18.172 109.028c2.138 12.827 12.141 23.159 24.894 25.711l22.262 4.452 3.213 53.01c-9.594 5.011-16.302 14.827-16.879 26.361l-6.86 137.198a7.497 7.497 0 0 0 7.491 7.875h192a7.5 7.5 0 0 0 7.491-7.875l-6.86-137.198c-.577-11.533-7.285-21.349-16.879-26.361l13.498-222.714a7.469 7.469 0 0 0 2.236-5.068zM147.749 219.395c-6.68-1.336-11.92-6.748-13.04-13.468l-18.172-109.03c-.417-2.506.257-4.953 1.899-6.892S122.382 87 124.922 87h32.963l8.247 136.071-18.383-3.676zM233.534 23.5c0-4.687 3.813-8.5 8.5-8.5h16c4.687 0 8.5 3.813 8.5 8.5v.5h-33v-.5zm98.149 295.177L338.15 448H161.919l6.466-129.323c.439-8.791 7.678-15.677 16.479-15.677h130.34c8.801 0 16.04 6.886 16.479 15.677zm-38.295-69.885a7.497 7.497 0 0 0-10.062 3.354l-7.208 14.417-26.084 19.563-26.083-19.563-7.208-14.417a7.501 7.501 0 0 0-13.416 6.709l8 16a7.504 7.504 0 0 0 2.208 2.646l14 10.5h-42.441L171.942 71h156.185l-13.151 217h-42.441l14-10.5a7.477 7.477 0 0 0 2.208-2.646l8-16a7.5 7.5 0 0 0-3.355-10.062zM171.033 56l-1.03-17 176.297.001L332.521 56H171.033z"/><path d="M250.035 336a39.266 39.266 0 0 0-22.109 6.784l-4.587-4.587a7.501 7.501 0 0 0-10.606 10.607l4.587 4.587a39.274 39.274 0 0 0-6.784 22.109c0 21.78 17.72 39.5 39.5 39.5a39.266 39.266 0 0 0 22.109-6.784l4.587 4.587c1.464 1.464 3.384 2.196 5.303 2.196s3.839-.732 5.303-2.196a7.5 7.5 0 0 0 0-10.607l-4.587-4.587a39.274 39.274 0 0 0 6.784-22.109c0-21.78-17.72-39.5-39.5-39.5zm-.001 64c-13.509 0-24.5-10.99-24.5-24.5 0-4.027.983-7.827 2.711-11.182l32.97 32.97A24.333 24.333 0 0 1 250.034 400zm21.789-13.318l-32.97-32.97A24.336 24.336 0 0 1 250.034 351c13.509 0 24.5 10.99 24.5 24.5 0 4.027-.983 7.827-2.711 11.182zM301.825 223.953l4.849-80.002a7.5 7.5 0 0 0-14.973-.908l-4.849 80.002a7.5 7.5 0 0 0 14.973.908zM300.673 118.985a7.5 7.5 0 0 0 7.94-7.032l.97-16.004a7.5 7.5 0 0 0-7.033-7.94c-4.132-.281-7.689 2.897-7.94 7.032l-.97 16.004a7.501 7.501 0 0 0 7.033 7.94z"/></svg>