<svg enable-background="new 0 0 463 463" viewBox="0 0 463 463" xmlns="http://www.w3.org/2000/svg"><path d="m345.52 63.784 12.745-15.724c3.619-4.464 4.332-10.461 1.858-15.649s-7.579-8.411-13.327-8.411h-65.262v-.5c0-12.958-10.542-23.5-23.5-23.5h-16c-12.958 0-23.5 10.542-23.5 23.5v.5h-56.5c-2.068 0-4.044.854-5.461 2.359-1.417 1.506-2.15 3.53-2.025 5.595l2.427 40.046h-32.053c-6.921 0-13.457 3.029-17.931 8.311-4.474 5.281-6.387 12.226-5.25 19.054l18.172 109.028c2.138 12.827 12.141 23.159 24.894 25.711l22.262 4.452 3.213 53.01c-9.594 5.011-16.302 14.827-16.879 26.361l-6.86 137.198c-.103 2.052.641 4.056 2.057 5.544s3.38 2.331 5.434 2.331h192c2.054 0 4.019-.843 5.434-2.331 1.416-1.488 2.159-3.492 2.057-5.544l-6.86-137.198c-.577-11.533-7.285-21.349-16.879-26.361l13.498-222.714c1.324-1.299 2.162-3.085 2.236-5.068zm-197.771 155.611c-6.68-1.336-11.92-6.748-13.04-13.468l-18.172-109.03c-.417-2.506.257-4.953 1.899-6.892s3.946-3.005 6.486-3.005h32.963l8.247 136.071zm85.785-195.895c0-4.687 3.813-8.5 8.5-8.5h16c4.687 0 8.5 3.813 8.5 8.5v.5h-33zm98.149 295.177 6.467 129.323h-176.231l6.466-129.323c.439-8.791 7.678-15.677 16.479-15.677h130.34c8.801 0 16.04 6.886 16.479 15.677zm-38.295-69.885c-3.705-1.855-8.209-.351-10.062 3.354l-7.208 14.417-26.084 19.563-26.083-19.563-7.208-14.417c-1.852-3.704-6.356-5.205-10.062-3.354-3.705 1.853-5.207 6.357-3.354 10.063l8 16c.521 1.041 1.276 1.947 2.208 2.646l14 10.5h-42.441l-13.152-217.001h156.185l-13.151 217h-42.441l14-10.5c.932-.698 1.688-1.604 2.208-2.646l8-16c1.852-3.705.35-8.209-3.355-10.062zm-122.355-192.792-1.03-17 176.297.001-13.779 16.999z"/><path d="m250.035 336c-8.185 0-15.796 2.503-22.109 6.784l-4.587-4.587c-2.929-2.928-7.678-2.928-10.606 0-2.929 2.93-2.929 7.678 0 10.607l4.587 4.587c-4.28 6.313-6.784 13.924-6.784 22.109 0 21.78 17.72 39.5 39.5 39.5 8.185 0 15.796-2.503 22.109-6.784l4.587 4.587c1.464 1.464 3.384 2.196 5.303 2.196s3.839-.732 5.303-2.196c2.929-2.93 2.929-7.678 0-10.607l-4.587-4.587c4.28-6.313 6.784-13.924 6.784-22.109 0-21.78-17.72-39.5-39.5-39.5zm-.001 64c-13.509 0-24.5-10.99-24.5-24.5 0-4.027.983-7.827 2.711-11.182l32.97 32.97c-3.354 1.729-7.154 2.712-11.181 2.712zm21.789-13.318-32.97-32.97c3.355-1.729 7.154-2.712 11.181-2.712 13.509 0 24.5 10.99 24.5 24.5 0 4.027-.983 7.827-2.711 11.182z"/><path d="m301.825 223.953 4.849-80.002c.25-4.135-2.898-7.689-7.033-7.94-4.128-.252-7.689 2.897-7.94 7.032l-4.849 80.002c-.25 4.135 2.898 7.689 7.033 7.94.154.01.308.014.46.014 3.936 0 7.239-3.066 7.48-7.046z"/><path d="m300.673 118.985c.155.01.308.014.461.014 3.935 0 7.238-3.066 7.479-7.046l.97-16.004c.25-4.135-2.898-7.689-7.033-7.94-4.132-.281-7.689 2.897-7.94 7.032l-.97 16.004c-.25 4.135 2.899 7.689 7.033 7.94z"/></svg>