<svg xmlns="http://www.w3.org/2000/svg" viewBox="0 0 410.567 410.567"><path d="M353.938 17.072c-3.905-3.905-3.905-10.237 0-14.142 3.906-3.906 10.236-3.906 14.143 0l1.345 1.344c3.905 3.905 3.905 10.237 0 14.142-1.953 1.953-4.512 2.929-7.071 2.929s-5.118-.976-7.071-2.929l-1.346-1.344zm-1.345 111.355c15.947 0 28.922 12.974 28.922 28.92s-12.975 28.92-28.922 28.92-28.921-12.974-28.921-28.92 12.974-28.92 28.921-28.92zm0 20c-4.919 0-8.921 4.002-8.921 8.92 0 4.919 4.002 8.92 8.921 8.92 4.92 0 8.922-4.001 8.922-8.92 0-4.918-4.002-8.92-8.922-8.92zm45.312 124.914v11.99c0 15.622-12.709 28.331-28.33 28.331h-8.332v53.915c0 23.705-19.285 42.99-42.99 42.99H92.315c-23.704 0-42.989-19.285-42.989-42.99v-53.915h-8.332c-15.622 0-28.331-12.709-28.331-28.331v-11.99c0-15.622 12.709-28.331 28.331-28.331h8.332v-29.551c0-5.523 4.478-10 10-10h291.917c5.522 0 10 4.477 10 10v29.551h8.332c15.621 0 28.33 12.709 28.33 28.331zm-348.58-8.331h-8.332c-4.594 0-8.331 3.737-8.331 8.331v11.99c0 4.594 3.737 8.331 8.331 8.331h8.332V265.01zm291.917-39.551H69.325v142.118c0 12.677 10.313 22.99 22.989 22.99h225.938c12.677 0 22.99-10.313 22.99-22.99V225.459zm36.663 47.882c0-4.594-3.737-8.331-8.33-8.331h-8.332v28.652h8.332c4.593 0 8.33-3.737 8.33-8.331v-11.99zM326.242 80.148a9.97 9.97 0 0 0 7.068-2.926l1.346-1.345c3.907-3.904 3.909-10.235.005-14.142-3.902-3.908-10.235-3.909-14.142-.005l-1.346 1.345c-3.907 3.904-3.909 10.235-.005 14.142a9.971 9.971 0 0 0 7.074 2.931zm-82.886 105.539c0 5.523 4.478 10 10 10s10-4.477 10-10c0-7.899 6.427-14.326 14.325-14.326 7.899 0 14.326 6.427 14.326 14.326 0 5.523 4.478 10 10 10s10-4.477 10-10c0-18.927-15.398-34.326-34.326-34.326-18.927 0-34.325 15.398-34.325 34.326zM56.58 170.719c-1.271-5.375 2.056-10.762 7.431-12.033l108.636-25.685-1.916-8.109c-3.594-15.203 5.851-30.495 21.053-34.088l11.668-2.758c15.197-3.594 30.494 5.849 34.089 21.051l1.918 8.109L348.094 91.52c5.373-1.269 10.762 2.056 12.032 7.431 1.271 5.375-2.056 10.762-7.431 12.033L68.613 178.15c-.773.183-1.548.271-2.31.271-4.53-.001-8.635-3.101-9.723-7.702zm133.614-50.428l1.917 8.108 27.884-6.593-1.917-8.108c-.905-3.828-4.334-6.415-8.107-6.415a8.37 8.37 0 0 0-1.917.224l-11.668 2.759c-4.472 1.058-7.249 5.554-6.192 10.025z"/></svg>