<svg xmlns="http://www.w3.org/2000/svg" viewBox="0 0 447.738 447.738"><path d="M208.776 248.205c1.18.793 2.542 1.189 3.903 1.189s2.723-.396 3.903-1.189a45.944 45.944 0 0 0 20.369-38.195 45.94 45.94 0 0 0-20.369-38.194 6.998 6.998 0 0 0-7.806 0 45.946 45.946 0 0 0-20.371 38.194 45.95 45.95 0 0 0 20.371 38.195zm3.903-61.685a31.948 31.948 0 0 1 10.271 23.489c0 9.005-3.768 17.48-10.271 23.49a31.95 31.95 0 0 1-10.273-23.49 31.95 31.95 0 0 1 10.273-23.489zm106.917 239.442a7 7 0 0 1-7 7H204.293a7 7 0 0 1-6.547-9.477l45.644-120.68c17.797-47.064 41.806-72.985 67.604-72.985 25.799 0 49.809 25.92 67.606 72.986l1.007 2.669a7 7 0 0 1-13.098 4.944l-1.006-2.665c-15.364-40.629-35.232-63.934-54.509-63.934s-39.146 23.305-54.51 63.938l-42.06 111.204h98.171a7 7 0 0 1 7.001 7zM72.203 298.187c-8.958-24.379-5.195-51.503 10.064-72.557a7 7 0 0 1 7.328-2.693c22.761 5.556 41.611 20.808 51.717 41.847a7 7 0 0 1-12.619 6.063c-7.587-15.795-21.193-27.612-37.773-32.99a63.755 63.755 0 0 0-5.576 55.502 63.727 63.727 0 0 0 29.181 33.927c-4.997-10.812-8.631-22.229-10.865-34.162a7.002 7.002 0 0 1 5.89-8.221 6.991 6.991 0 0 1 7.882 5.705c3.662 19.512 11.47 37.5 23.209 53.464a6.999 6.999 0 0 1-5.633 11.146 6.99 6.99 0 0 1-5.646-2.854 148.196 148.196 0 0 1-4.054-5.797c-24.548-6.521-44.33-24.504-53.105-48.38zm103.631 120.775h-6.679V163.531c0-15.444 10.484-28.886 25.496-32.687a7.001 7.001 0 0 0 5.282-6.786V79.299h25.491v44.759a7 7 0 0 0 5.283 6.786c15.011 3.799 25.494 17.24 25.494 32.687v65.395a7 7 0 1 0 14 0v-65.395c0-20-12.409-37.623-30.777-44.595V77.867a6.99 6.99 0 0 0 2.756-5.567V21.776a7 7 0 0 0-7-7h-45.005a7 7 0 0 0-7 7v50.523a6.99 6.99 0 0 0 2.757 5.568v41.069c-18.368 6.973-30.778 24.596-30.778 44.594v262.432a7 7 0 0 0 7 7h13.679a7 7 0 0 0 .001-14zm21.342-390.186h31.005v36.523h-31.005V28.776zm146.426 268.456a7 7 0 1 1 0 14h-2.101a7 7 0 1 1 0-14h2.101zm-207.93 71.098c-4.753-.457-9.503-.641-14.236-.67-20.201-14.955-46.295-19.271-70.276-11.515C26.448 364.136 7.424 383.832.27 408.83a7.001 7.001 0 0 0 2.402 7.428c13.943 10.966 30.914 16.697 48.139 16.697a77.853 77.853 0 0 0 23.965-3.786 77.729 77.729 0 0 0 49.201-47.489c3.446.059 6.899.254 10.354.586 3.846.36 7.268-2.45 7.638-6.298a7 7 0 0 0-6.297-7.638zm-65.203 47.518a63.75 63.75 0 0 1-55.238-7.755 63.75 63.75 0 0 1 40.237-38.628 63.707 63.707 0 0 1 40.724.481 146.514 146.514 0 0 0-16.564 4.002 5.27 5.27 0 0 0-.178.057l-.006.002a6.997 6.997 0 0 0-4.424 8.854 7.003 7.003 0 0 0 8.693 4.479 131.328 131.328 0 0 1 24.847-5.008 63.732 63.732 0 0 1-38.091 33.516zm261.684-33.179a7 7 0 0 1-7 7h-2.102a7 7 0 1 1 0-14h2.102a7 7 0 0 1 7 7zm80.351 18.033a7 7 0 0 1-7 7h-2.101a7 7 0 1 1 0-14h2.101a7 7 0 0 1 7 7zm-125.017-96.47a7 7 0 0 1-7 7h-2.102a7 7 0 1 1 0-14h2.102a7 7 0 0 1 7 7zm159.799 119.254l-21.888-57.873c-11.675-30.874-25.928-37.355-35.828-37.355-9.901 0-24.154 6.481-35.829 37.354l-21.888 57.874a7.003 7.003 0 0 0 6.547 9.477h102.338a7 7 0 0 0 6.548-9.477zm-98.755-4.524l18.304-48.398c6.703-17.725 15.201-28.307 22.734-28.307 7.532 0 16.031 10.582 22.733 28.308l18.304 48.397h-82.075zm-58.694-85.244a7 7 0 0 1 7-7h2.101a7 7 0 1 1 0 14h-2.101a7 7 0 0 1-7-7zm0-55.891a7 7 0 0 1 7-7h2.101a7 7 0 1 1 0 14h-2.101a7 7 0 0 1-7-7zm20.108 33.405a7 7 0 1 1 0-14h2.1a7 7 0 1 1 0 14h-2.1zm13.106-26.405a7 7 0 1 1 0-14h2.102a7 7 0 1 1 0 14h-2.102z"/></svg>