<svg enable-background="new 0 0 447.738 447.738" viewBox="0 0 447.738 447.738" xmlns="http://www.w3.org/2000/svg"><path d="m208.776 248.205c1.18.793 2.542 1.189 3.903 1.189s2.723-.396 3.903-1.189c12.754-8.566 20.369-22.845 20.369-38.195s-7.614-29.628-20.369-38.194c-2.36-1.586-5.445-1.586-7.806 0-12.755 8.567-20.371 22.846-20.371 38.194.001 15.349 7.616 29.627 20.371 38.195zm3.903-61.685c6.503 6.01 10.271 14.485 10.271 23.489 0 9.005-3.768 17.48-10.271 23.49-6.504-6.011-10.273-14.486-10.273-23.49 0-9.003 3.769-17.478 10.273-23.489zm106.917 239.442c0 3.866-3.134 7-7 7h-108.303c-2.299 0-4.452-1.129-5.759-3.021-1.307-1.893-1.602-4.306-.788-6.456l45.644-120.68c17.797-47.064 41.806-72.985 67.604-72.985 25.799 0 49.809 25.92 67.606 72.986l1.007 2.669c1.365 3.617-.46 7.655-4.077 9.021-3.619 1.367-7.656-.461-9.021-4.077l-1.006-2.665c-15.364-40.629-35.232-63.934-54.509-63.934s-39.146 23.305-54.51 63.938l-42.06 111.204h98.171c3.867 0 7.001 3.134 7.001 7zm-247.393-127.775c-8.958-24.379-5.195-51.503 10.064-72.557 1.668-2.303 4.563-3.366 7.328-2.693 22.761 5.556 41.611 20.808 51.717 41.847 1.674 3.485.206 7.667-3.279 9.341s-7.667.205-9.34-3.278c-7.587-15.795-21.193-27.612-37.773-32.99-10.242 16.621-12.365 37.024-5.576 55.502 5.385 14.653 15.827 26.6 29.181 33.927-4.997-10.812-8.631-22.229-10.865-34.162-.019-.099-.035-.198-.049-.298-.547-3.827 2.112-7.377 5.939-7.923 3.755-.539 7.229 2.003 7.882 5.705 3.662 19.512 11.47 37.5 23.209 53.464 2.291 3.114 1.623 7.495-1.492 9.786-1.249.918-2.702 1.36-4.141 1.36-2.151 0-4.273-.987-5.646-2.854-1.402-1.906-2.753-3.839-4.054-5.797-24.548-6.521-44.33-24.504-53.105-48.38zm103.631 120.775h-6.679v-255.431c0-15.444 10.484-28.886 25.496-32.687 3.106-.787 5.282-3.582 5.282-6.786v-44.759h25.491v44.759c0 3.204 2.176 6 5.283 6.786 15.011 3.799 25.494 17.24 25.494 32.687v65.395c0 3.866 3.134 7 7 7s7-3.134 7-7v-65.395c0-20-12.409-37.623-30.777-44.595v-41.069c1.675-1.279 2.756-3.297 2.756-5.567v-50.524c0-3.866-3.134-7-7-7h-45.005c-3.866 0-7 3.134-7 7v50.523c0 2.271 1.082 4.289 2.757 5.568v41.069c-18.368 6.973-30.778 24.596-30.778 44.594v262.432c0 3.866 3.134 7 7 7h13.679c3.866 0 7-3.134 7-7s-3.133-7-6.999-7zm21.342-390.186h31.005v36.523h-31.005zm146.426 268.456c3.866 0 7 3.134 7 7s-3.134 7-7 7h-2.101c-3.866 0-7-3.134-7-7s3.134-7 7-7zm-207.93 71.098c-4.753-.457-9.503-.641-14.236-.67-20.201-14.955-46.295-19.271-70.276-11.515-24.712 7.991-43.736 27.687-50.89 52.685-.782 2.734.167 5.67 2.402 7.428 13.943 10.966 30.914 16.697 48.139 16.697 8.026 0 16.111-1.246 23.965-3.786 22.971-7.43 41.027-24.975 49.201-47.489 3.446.059 6.899.254 10.354.586 3.846.36 7.268-2.45 7.638-6.298s-2.449-7.268-6.297-7.638zm-65.203 47.518c-18.727 6.057-39.03 3.134-55.238-7.755 6.761-18.314 21.507-32.57 40.237-38.628 13.463-4.356 27.74-4.07 40.724.481-5.565 1.005-11.091 2.339-16.564 4.002-.06.018-.119.037-.178.057l-.006.002c-3.668 1.223-5.647 5.186-4.424 8.854 1.204 3.612 5.071 5.589 8.693 4.479 8.17-2.481 16.472-4.153 24.847-5.008-7.459 15.839-21.144 28.035-38.091 33.516zm261.684-33.179c0 3.866-3.134 7-7 7h-2.102c-3.866 0-7-3.134-7-7s3.134-7 7-7h2.102c3.866 0 7 3.134 7 7zm80.351 18.033c0 3.866-3.134 7-7 7h-2.101c-3.866 0-7-3.134-7-7s3.134-7 7-7h2.101c3.866 0 7 3.133 7 7zm-125.017-96.47c0 3.866-3.134 7-7 7h-2.102c-3.866 0-7-3.134-7-7s3.134-7 7-7h2.102c3.866 0 7 3.134 7 7zm159.799 119.254-21.888-57.873c-11.675-30.874-25.928-37.355-35.828-37.355-9.901 0-24.154 6.481-35.829 37.354l-21.888 57.874c-.813 2.151-.519 4.563.788 6.456 1.307 1.892 3.46 3.021 5.759 3.021h102.338c2.299 0 4.452-1.129 5.759-3.021 1.307-1.893 1.602-4.305.789-6.456zm-98.755-4.524 18.304-48.398c6.703-17.725 15.201-28.307 22.734-28.307 7.532 0 16.031 10.582 22.733 28.308l18.304 48.397zm-58.694-85.244c0-3.866 3.134-7 7-7h2.101c3.866 0 7 3.134 7 7s-3.134 7-7 7h-2.101c-3.866 0-7-3.134-7-7zm0-55.891c0-3.866 3.134-7 7-7h2.101c3.866 0 7 3.134 7 7s-3.134 7-7 7h-2.101c-3.866 0-7-3.134-7-7zm20.108 33.405c-3.866 0-7-3.134-7-7s3.134-7 7-7h2.1c3.866 0 7 3.134 7 7s-3.134 7-7 7zm13.106-26.405c-3.866 0-7-3.134-7-7s3.134-7 7-7h2.102c3.866 0 7 3.134 7 7s-3.134 7-7 7z"/></svg>