<svg enable-background="new 0 0 496.944 496.944" viewBox="0 0 496.944 496.944" xmlns="http://www.w3.org/2000/svg"><path d="m192.472 464h32v20.944l24 12 24-12v-20.944h32v-48h-112zm64 11.056-8 4-8-4v-11.056h16zm-48-43.056h80v16h-80z"/><path d="m254.528 104 35.728-35.72c4.008-4.024 6.216-9.352 6.216-15.024 0-11.72-9.536-21.256-21.256-21.256h-53.488c-11.72 0-21.256 9.536-21.256 21.256 0 5.664 2.208 11 6.224 15.032l35.72 35.712zm-38.056-50.744c0-2.896 2.36-5.256 5.256-5.256h53.488c2.896 0 5.256 2.36 5.256 5.256 0 1.424-.536 2.712-1.536 3.72l-30.464 30.456-30.456-30.448c-1.008-1.016-1.544-2.304-1.544-3.728z"/><path d="m423.224 426.84-52.736-165.88c7.272-8.24 11.84-18.28 13.376-28.96h16.608v-16h-16.656c-.192-1.384-.344-2.768-.64-4.16-1.664-7.84-5.104-15.12-9.824-21.416l11.688-11.688-11.312-11.312-11.672 11.672c-6.36-4.776-13.728-8.224-21.656-9.872-1.312-.272-2.616-.456-3.92-.632v-16.592h-16v16.584c-9.384 1.328-18.136 4.992-25.568 10.544l-11.688-11.688-10.752 10.736v-46.864l40.4-40.4c10.064-10.064 15.6-23.432 15.6-37.656 0-29.368-23.888-53.256-53.256-53.256h-53.496c-29.36 0-53.248 23.888-53.248 53.256 0 14.224 5.536 27.6 15.6 37.656l40.4 40.4v46.864l-10.744-10.744-11.688 11.688c-7.432-5.552-16.176-9.216-25.568-10.536v-16.584h-16v16.6c-1.304.184-2.616.36-3.928.632-7.928 1.648-15.296 5.096-21.656 9.872l-11.672-11.672-11.312 11.312 11.688 11.688c-4.728 6.288-8.16 13.576-9.824 21.416-.296 1.384-.448 2.768-.64 4.16h-16.656v16h16.608c1.536 10.68 6.104 20.72 13.376 28.96l-52.736 165.872c-.824 2.592-1.248 5.296-1.248 8.032v2.632c0 14.608 11.888 26.496 26.496 26.496 11.568 0 21.712-7.4 25.24-18.424l54.816-171.288-15.24-4.872-54.816 171.288c-1.4 4.36-5.416 7.296-10 7.296-5.792 0-10.496-4.704-10.496-10.496v-2.632c0-1.08.168-2.152.496-3.184l55.696-175.208-3.648-3.448c-10.248-9.688-14.584-23.84-11.608-37.856 3.184-14.992 15.4-27.152 30.384-30.272 15.952-3.312 31.408 2.904 40.544 15.096h-31.864c-13.232 0-24 10.768-24 24s10.768 24 24 24h24v152h16v-120h16v120h16v-120h16v120h16v-120h16v120h16v-152h24c13.232 0 24-10.768 24-24s-10.768-24-24-24h-31.872c9.136-12.192 24.584-18.408 40.536-15.096 14.992 3.12 27.2 15.28 30.392 30.272 2.976 14.016-1.36 28.168-11.608 37.856l-3.648 3.448 55.704 175.216c.328 1.024.496 2.096.496 3.176v2.632c0 5.792-4.704 10.496-10.496 10.496-4.584 0-8.6-2.936-10-7.296l-54.816-171.288-15.24 4.872 54.816 171.288c3.528 11.024 13.672 18.424 25.24 18.424 14.608 0 26.496-11.888 26.496-26.496v-2.632c0-2.736-.424-5.44-1.248-8.032zm-227.84-347.24c-7.04-7.04-10.912-16.392-10.912-26.344 0-20.544 16.712-37.256 37.256-37.256h53.496c20.536 0 37.248 16.712 37.248 37.256 0 9.952-3.872 19.312-10.912 26.344l-40.4 40.4h-25.376zm29.088 99.712v4.688h16v-48h16v48h16v-4.688l11.136 11.136c-2.184 2.944-4.128 6.128-5.736 9.552h-58.8c-1.616-3.424-3.552-6.608-5.736-9.552zm104 36.688c4.408 0 8 3.592 8 8s-3.592 8-8 8h-40v32h-80v-32h-40c-4.408 0-8-3.592-8-8s3.592-8 8-8z"/></svg>