<svg xmlns="http://www.w3.org/2000/svg" viewBox="0 0 496.944 496.944"><path d="M192.472 464h32v20.944l24 12 24-12V464h32v-48h-112v48zm64 11.056l-8 4-8-4V464h16v11.056zm-48-43.056h80v16h-80v-16zM254.528 104l35.728-35.72c4.008-4.024 6.216-9.352 6.216-15.024 0-11.72-9.536-21.256-21.256-21.256h-53.488c-11.72 0-21.256 9.536-21.256 21.256 0 5.664 2.208 11 6.224 15.032L242.416 104h12.112zm-38.056-50.744A5.265 5.265 0 0 1 221.728 48h53.488a5.265 5.265 0 0 1 5.256 5.256 5.188 5.188 0 0 1-1.536 3.72l-30.464 30.456-30.456-30.448a5.195 5.195 0 0 1-1.544-3.728z"/><path d="M423.224 426.84l-52.736-165.88A55.609 55.609 0 0 0 383.864 232h16.608v-16h-16.656c-.192-1.384-.344-2.768-.64-4.16-1.664-7.84-5.104-15.12-9.824-21.416l11.688-11.688-11.312-11.312-11.672 11.672c-6.36-4.776-13.728-8.224-21.656-9.872-1.312-.272-2.616-.456-3.92-.632V152h-16v16.584a55.711 55.711 0 0 0-25.568 10.544l-11.688-11.688-10.752 10.736v-46.864l40.4-40.4c10.064-10.064 15.6-23.432 15.6-37.656C328.472 23.888 304.584 0 275.216 0H221.72c-29.36 0-53.248 23.888-53.248 53.256 0 14.224 5.536 27.6 15.6 37.656l40.4 40.4v46.864l-10.744-10.744-11.688 11.688a55.579 55.579 0 0 0-25.568-10.536V152h-16v16.6c-1.304.184-2.616.36-3.928.632-7.928 1.648-15.296 5.096-21.656 9.872l-11.672-11.672-11.312 11.312 11.688 11.688c-4.728 6.288-8.16 13.576-9.824 21.416-.296 1.384-.448 2.768-.64 4.16H96.472v16h16.608a55.609 55.609 0 0 0 13.376 28.96L73.72 426.84a26.49 26.49 0 0 0-1.248 8.032v2.632C72.472 452.112 84.36 464 98.968 464c11.568 0 21.712-7.4 25.24-18.424l54.816-171.288-15.24-4.872-54.816 171.288a10.473 10.473 0 0 1-10 7.296c-5.792 0-10.496-4.704-10.496-10.496v-2.632c0-1.08.168-2.152.496-3.184l55.696-175.208-3.648-3.448c-10.248-9.688-14.584-23.84-11.608-37.856 3.184-14.992 15.4-27.152 30.384-30.272 15.952-3.312 31.408 2.904 40.544 15.096h-31.864c-13.232 0-24 10.768-24 24s10.768 24 24 24h24v152h16V280h16v120h16V280h16v120h16V280h16v120h16V248h24c13.232 0 24-10.768 24-24s-10.768-24-24-24H296.6c9.136-12.192 24.584-18.408 40.536-15.096 14.992 3.12 27.2 15.28 30.392 30.272 2.976 14.016-1.36 28.168-11.608 37.856l-3.648 3.448 55.704 175.216c.328 1.024.496 2.096.496 3.176v2.632c0 5.792-4.704 10.496-10.496 10.496-4.584 0-8.6-2.936-10-7.296L333.16 269.416l-15.24 4.872 54.816 171.288A26.414 26.414 0 0 0 397.976 464c14.608 0 26.496-11.888 26.496-26.496v-2.632c0-2.736-.424-5.44-1.248-8.032zM195.384 79.6c-7.04-7.04-10.912-16.392-10.912-26.344 0-20.544 16.712-37.256 37.256-37.256h53.496c20.536 0 37.248 16.712 37.248 37.256 0 9.952-3.872 19.312-10.912 26.344l-40.4 40.4h-25.376l-40.4-40.4zm29.088 99.712V184h16v-48h16v48h16v-4.688l11.136 11.136a55.986 55.986 0 0 0-5.736 9.552h-58.8a56.507 56.507 0 0 0-5.736-9.552l11.136-11.136zm104 36.688c4.408 0 8 3.592 8 8s-3.592 8-8 8h-40v32h-80v-32h-40c-4.408 0-8-3.592-8-8s3.592-8 8-8h160z"/></svg>