<svg enable-background="new 0 0 480.002 480.002" viewBox="0 0 480.002 480.002" xmlns="http://www.w3.org/2000/svg"><path d="m472.001 392h-308.688l-109.656-109.656c-3.07-3.178-8.134-3.266-11.312-.196s-3.266 8.134-.196 11.312c.064.067.13.132.196.196l38.528 38.528-44.872 59.816h-28c-4.418 0-8 3.582-8 8s3.582 8 8 8h41.056l-39.712 59.56c-2.452 3.676-1.46 8.644 2.216 11.096s8.644 1.46 11.096-2.216l45.624-68.44h99.72v64c0 4.418 3.582 8 8 8s8-3.582 8-8v-64h219.72l45.6 68.44c2.452 3.676 7.42 4.668 11.096 2.216s4.668-7.42 2.216-11.096l-39.688-59.56h49.056c4.418 0 8-3.582 8-8s-3.582-8-8-8zm-416 0 36.296-48.392 48.392 48.392z"/><path d="m448.001 336h-252.688l-11.312-11.312v-161.488c4.769 3.088 10.319 4.753 16 4.8 6.407-.036 12.636-2.113 17.784-5.928 3.719-2.656 8.713-2.656 12.432 0 10.534 7.917 25.034 7.917 35.568 0 3.719-2.656 8.713-2.656 12.432 0 11.28 8.443 26.937 7.808 37.496-1.52 2.744-2.291 4.286-5.714 4.184-9.288-2.832-70.728-65.728-127.264-143.896-127.264-85.976 0-141.416 56.528-143.912 127.248-.089 3.581 1.456 7.008 4.2 9.312 5.477 4.746 12.466 7.383 19.712 7.44 6.407-.036 12.636-2.113 17.784-5.928 3.719-2.656 8.713-2.656 12.432 0 10.534 7.917 25.034 7.917 35.568 0 3.719-2.656 8.713-2.656 12.432 0 9.886 7.492 23.42 7.944 33.784 1.128v145.52l-58.344-58.344c-3.124-3.123-8.188-3.123-11.312 0l-24 24c-3.123 3.124-3.123 8.188 0 11.312l96 96c1.505 1.489 3.539 2.32 5.656 2.312h272c4.418 0 8-3.582 8-8v-32c0-4.418-3.582-8-8-8zm-287.632-186.864c-2.414 1.821-5.345 2.824-8.368 2.864-3.023-.043-5.953-1.046-8.368-2.864-9.333-6.735-21.931-6.735-31.264 0-4.923 3.825-11.813 3.825-16.736 0-9.333-6.735-21.931-6.735-31.264 0-2.414 1.821-5.345 2.824-8.368 2.864-2.795-.031-5.517-.898-7.816-2.488 3.456-64.6 55.68-109.512 127.816-109.512 68.336 0 124 47.92 127.792 109.536-2.296 1.576-5.008 2.433-7.792 2.464-3.023-.043-5.953-1.046-8.368-2.864-9.333-6.736-21.931-6.736-31.264 0-4.923 3.825-11.813 3.825-16.736 0-9.333-6.736-21.931-6.736-31.264 0-4.923 3.825-11.813 3.825-16.736 0-9.333-6.736-21.931-6.736-31.264 0zm279.632 218.864h-260.688l-88-88 12.688-12.688 66.336 66.336 16 16c1.501 1.505 3.539 2.352 5.664 2.352h248z"/><path d="m408.001 35.552c-20.121.022-36.426 16.327-36.448 36.448 0 20.13 16.318 36.448 36.448 36.448s36.448-16.318 36.448-36.448-16.318-36.448-36.448-36.448zm0 56.896c-11.293 0-20.448-9.155-20.448-20.448.013-11.288 9.16-20.435 20.448-20.448 11.293 0 20.448 9.155 20.448 20.448s-9.155 20.448-20.448 20.448z"/><path d="m358.217 64h-14.216c-4.418 0-8 3.582-8 8s3.582 8 8 8h14.216c4.418 0 8-3.582 8-8s-3.582-8-8-8z"/><path d="m378.465 31.152-10.064-10.064c-3.178-3.069-8.243-2.981-11.312.197-2.994 3.1-2.994 8.015 0 11.115l10.064 10.064c3.178 3.07 8.242 2.982 11.312-.196 2.994-3.101 2.994-8.016 0-11.116z"/><path d="m408.001 0c-4.418 0-8 3.582-8 8v14.216c0 4.418 3.582 8 8 8s8-3.582 8-8v-14.216c0-4.418-3.582-8-8-8z"/><path d="m458.913 21.088c-3.124-3.123-8.188-3.123-11.312 0l-10.064 10.064c-3.178 3.07-3.266 8.134-.196 11.312s8.134 3.266 11.312.196c.067-.064.132-.13.196-.196l10.064-10.064c3.123-3.124 3.123-8.188 0-11.312z"/><path d="m472.001 64h-14.216c-4.418 0-8 3.582-8 8s3.582 8 8 8h14.216c4.418 0 8-3.582 8-8s-3.582-8-8-8z"/><path d="m458.913 111.6-10.064-10.064c-3.124-3.123-8.188-3.123-11.312 0-3.123 3.124-3.123 8.188 0 11.312l10.064 10.064c3.178 3.07 8.242 2.982 11.312-.196 2.994-3.101 2.994-8.016 0-11.116z"/><path d="m408.001 113.784c-4.418 0-8 3.582-8 8v14.216c0 4.418 3.582 8 8 8s8-3.582 8-8v-14.216c0-4.418-3.582-8-8-8z"/><path d="m378.269 101.536c-3.1-2.994-8.015-2.994-11.116 0l-10.064 10.064c-3.178 3.07-3.266 8.134-.196 11.312s8.134 3.266 11.312.196c.067-.064.132-.13.196-.196l10.064-10.064c3.069-3.178 2.982-8.243-.196-11.312z"/></svg>