<svg xmlns="http://www.w3.org/2000/svg" viewBox="0 0 480.002 480.002"><path d="M472.001 392H163.313L53.657 282.344a8 8 0 0 0-11.312-.196 8 8 0 0 0 0 11.508l38.528 38.528L36.001 392h-28a8 8 0 0 0 0 16h41.056L9.345 467.56a8.001 8.001 0 0 0 13.312 8.88L68.281 408h99.72v64a8 8 0 0 0 16 0v-64h219.72l45.6 68.44a8.001 8.001 0 0 0 13.312-8.88L422.945 408h49.056a8 8 0 0 0 0-16zm-416 0l36.296-48.392L140.689 392H56.001z"/><path d="M448.001 336H195.313l-11.312-11.312V163.2a29.893 29.893 0 0 0 16 4.8 30.155 30.155 0 0 0 17.784-5.928 10.694 10.694 0 0 1 12.432 0 29.601 29.601 0 0 0 35.568 0 10.694 10.694 0 0 1 12.432 0c11.28 8.443 26.937 7.808 37.496-1.52a11.666 11.666 0 0 0 4.184-9.288C317.065 80.536 254.169 24 176.001 24 90.025 24 34.585 80.528 32.089 151.248a11.776 11.776 0 0 0 4.2 9.312A30.466 30.466 0 0 0 56.001 168a30.155 30.155 0 0 0 17.784-5.928 10.694 10.694 0 0 1 12.432 0 29.601 29.601 0 0 0 35.568 0 10.694 10.694 0 0 1 12.432 0 29.29 29.29 0 0 0 33.784 1.128v145.52l-58.344-58.344a8 8 0 0 0-11.312 0l-24 24a8 8 0 0 0 0 11.312l96 96a7.998 7.998 0 0 0 5.656 2.312h272a8 8 0 0 0 8-8v-32a8 8 0 0 0-8-8zM160.369 149.136a14.206 14.206 0 0 1-8.368 2.864 14.25 14.25 0 0 1-8.368-2.864 26.714 26.714 0 0 0-31.264 0 13.639 13.639 0 0 1-16.736 0 26.714 26.714 0 0 0-31.264 0A14.206 14.206 0 0 1 56.001 152a14.015 14.015 0 0 1-7.816-2.488C51.641 84.912 103.865 40 176.001 40c68.336 0 124 47.92 127.792 109.536a14.044 14.044 0 0 1-7.792 2.464 14.25 14.25 0 0 1-8.368-2.864 26.71 26.71 0 0 0-31.264 0 13.639 13.639 0 0 1-16.736 0 26.71 26.71 0 0 0-31.264 0 13.639 13.639 0 0 1-16.736 0 26.71 26.71 0 0 0-31.264 0zM440.001 368H179.313l-88-88 12.688-12.688 66.336 66.336 16 16a8 8 0 0 0 5.664 2.352h248v16zM408.001 35.552c-20.121.022-36.426 16.327-36.448 36.448 0 20.13 16.318 36.448 36.448 36.448S444.449 92.13 444.449 72s-16.318-36.448-36.448-36.448zm0 56.896c-11.293 0-20.448-9.155-20.448-20.448.013-11.288 9.16-20.435 20.448-20.448 11.293 0 20.448 9.155 20.448 20.448s-9.155 20.448-20.448 20.448zM358.217 64h-14.216a8 8 0 0 0 0 16h14.216a8 8 0 0 0 0-16zM378.465 31.152l-10.064-10.064A8 8 0 0 0 357.089 32.4l10.064 10.064a8 8 0 0 0 11.312-11.312zM408.001 0a8 8 0 0 0-8 8v14.216a8 8 0 0 0 16 0V8a8 8 0 0 0-8-8zM458.913 21.088a8 8 0 0 0-11.312 0l-10.064 10.064a8 8 0 0 0-.196 11.312 8 8 0 0 0 11.508 0L458.913 32.4a8 8 0 0 0 0-11.312zM472.001 64h-14.216a8 8 0 0 0 0 16h14.216a8 8 0 0 0 0-16zM458.913 111.6l-10.064-10.064a8 8 0 0 0-11.312 0 8 8 0 0 0 0 11.312l10.064 10.064a8 8 0 0 0 11.312-11.312zM408.001 113.784a8 8 0 0 0-8 8V136a8 8 0 0 0 16 0v-14.216a8 8 0 0 0-8-8zM378.269 101.536a8.001 8.001 0 0 0-11.116 0L357.089 111.6a8 8 0 0 0-.196 11.312 8 8 0 0 0 11.508 0l10.064-10.064a8 8 0 0 0-.196-11.312z"/></svg>