<svg enable-background="new 0 0 512.01 512.01" viewBox="0 0 512.01 512.01" xmlns="http://www.w3.org/2000/svg"><path d="m501.338 0c-2.954 0-5.624 1.201-7.555 3.138l-306.21 306.201-7.537-7.536c-4.167-4.167-10.917-4.167-15.084 0l-155.587 155.582c-12.48 12.479-12.48 32.771 0 45.25 6.042 6.042 14.084 9.375 22.626 9.375 8.563 0 16.605-3.333 22.647-9.375l94.929-94.939c1.275 34.177 29.28 61.637 63.764 61.637 35.293 0 64.002-28.708 64.002-64 0-2.568-.253-52.451-18.031-100.676 7.673 2.77 15.442 4.499 23.281 4.499 19.938 0 40.126-8.948 59.127-26.802 20.521-19.302 31.834-42.813 31.834-66.198 0-9.033-1.938-17.672-5.259-25.875 29.661-1.863 65.583-22.423 87.262-44.073 13.625-13.615 25.688-31.437 35.126-50.917v384.709c0 5.885-4.792 10.667-10.667 10.667s-10.667-4.781-10.667-10.667v-42.667c0-4.313-2.604-8.208-6.583-9.854-3.938-1.667-8.584-.75-11.625 2.313l-10.667 10.667c-4.167 4.167-4.167 10.917 0 15.083 2.083 2.083 4.813 3.125 7.542 3.125v21.333c0 17.646 14.355 32 32.001 32s32.001-14.354 32.001-32v-469.333c-.003-5.896-4.774-10.667-10.67-10.667zm-269.305 295.056c9.19 19.033 14.909 39.885 18.392 58.316-10.486-7.508-23.234-12.039-37.086-12.039-.124 0-.238.035-.362.036.595-3.319-.197-6.835-2.763-9.401l-7.547-7.547zm-192.465 192.496c-4.042 4.021-11.062 4.021-15.104 0-4.167-4.156-4.167-10.927 0-15.083l148.042-148.042 15.083 15.083zm216.437-82.217c0 23.531-19.146 42.665-42.667 42.665s-42.667-19.135-42.667-42.667 19.146-42.667 42.667-42.667 42.667 19.134 42.667 42.665zm71.084-138.522c-25.967 24.419-51.576 27.504-76.273 9.461l90.527-90.527c7.138 9.128 10.871 19.294 10.871 30.41 0 17.187-9.167 35.645-25.125 50.656zm113.375-135.688c-22.458 22.448-56.5 39.438-77.563 38.198-1.651-.082-2.87-.555-4.279-.857l128.793-128.793c-6.901 33.684-24.489 68.99-46.951 91.452z"/></svg>