<svg enable-background="new 0 0 492 492" viewBox="0 0 492 492" xmlns="http://www.w3.org/2000/svg"><g fill="#010002"><path d="m88 126c5.333 9.667 15.167 19.667 29.5 30s32.5 18.5 54.5 24.5l297 83 22-81-297-83 54-38-19-5-54 39-98-27-1 8c-.667 5.333-.167 12.5 1.5 21.5s5.167 18.333 10.5 28z"/><path d="m338 274.5 128 36 4-17-136-38c2 6 3.333 12.333 4 19z"/><path d="m227 226.5-227-63v18l214 59c4-5.333 8.333-10 13-14z"/><path d="m491 390.5-226-62c.667 0 1.5.167 2.5.5s1.833.5 2.5.5c14 0 26-5 36-15s15-22 15-36-5-26-15-36-22-15-36-15-26 4.833-36 14.5c-10 9.666-15 21.833-15 36.5 0 21.333 9.667 36.667 29 46l-248-69 1 180c10.667 0 20.667-2 30-6 10-4.667 20.333-7 31-7s21 2.333 31 7c10 4 20.167 6 30.5 6s20.5-2 30.5-6c10-4.667 20.333-7 31-7s21 2.333 31 7c10 4 20.167 6 30.5 6s20.5-2 30.5-6c10-4.667 20.333-7 31-7s21 2.333 31 7c9.333 4 19.333 6 30 6s20.667-2 30-6c10-4.667 20.333-7 31-7 10.666 0 21.332 2.333 32 7 9.333 4 19.333 6 30 6zm-243-112.5c0-6.333 2.167-11.5 6.5-15.5s9.5-6 15.5-6 11.167 2 15.5 6 6.5 9.167 6.5 15.5-2.167 11.667-6.5 16-9.5 6.5-15.5 6.5-11.167-2.167-15.5-6.5-6.5-9.666-6.5-16z"/></g></svg>