<svg enable-background="new 0 0 397.928 397.928" viewBox="0 0 397.928 397.928" xmlns="http://www.w3.org/2000/svg"><path d="m352.744 210.555c-.871 1.966-1.98 4.307-3.33 6.858 1.352-2.553 2.461-4.893 3.33-6.858z"/><path d="m7.57 241.057c11.039 0 16.16 4.052 22.645 9.182 7.375 5.835 15.736 12.449 32.039 12.449s24.662-6.614 32.037-12.449c6.484-5.13 11.605-9.182 22.643-9.182 11.037 0 16.16 4.052 22.642 9.182 7.377 5.835 15.734 12.449 32.039 12.449 16.303 0 24.662-6.614 32.037-12.449 6.484-5.13 11.607-9.182 22.645-9.182s16.158 4.052 22.645 9.182c7.375 5.835 15.734 12.449 32.037 12.449 16.305 0 24.664-6.613 32.041-12.448 6.486-5.13 11.607-9.183 22.648-9.183s16.162 4.052 22.648 9.183c7.375 5.835 15.736 12.448 32.041 12.448 4.182 0 7.57-3.389 7.57-7.571s-3.389-7.571-7.57-7.571c-11.041 0-16.162-4.052-22.648-9.183-3.043-2.406-6.264-4.939-10.129-7.091 7.246-11.567 10.695-21.806 10.854-22.287.174-.521.275-1.046.324-1.57h8.107c.008.001.014 0 .021 0 3.865 0 7-3.134 7-7 0-1.574-.52-3.026-1.396-4.195-2.926-4.508-26.15-39.425-56.486-60.176-49.172-33.637-104.736-42.37-107.078-42.725-2.959-.446-5.875 1.032-7.258 3.685s-.926 5.892 1.137 8.06c.248.261 24.908 26.205 33.854 37.357 3.348 4.173 4.344 9.297 2.541 13.054-2.924 6.093-12.883 9.588-27.322 9.588-17.955 0-27.52-5.953-37.645-12.255-9.73-6.055-19.791-12.316-36.07-12.316h-97.589c-13.463 0-36.049 7.785-36.049 59.923 0 3.866 3.133 7 7 7h11.721c.623 6.878 3.545 21.001 16.088 37.512-3.52-1.658-6.449-3.972-9.725-6.563-7.377-5.835-15.734-12.449-32.039-12.449-4.182 0-7.57 3.39-7.57 7.571 0 4.182 3.389 7.571 7.57 7.571zm21.108-47.642c.859-19.127 5.672-38.923 21.896-38.923h97.588c12.279 0 19.875 4.728 28.672 10.203 10.822 6.735 23.088 14.369 45.043 14.369 26.063 0 36.107-9.534 39.945-17.531 4.182-8.715 2.557-19.395-4.242-27.871-4.379-5.458-12.064-13.996-19.088-21.624 20.172 5.46 51.299 16.196 79.608 35.561 1.221.835 2.43 1.698 3.627 2.584.33.244.652.503.98.751.865.653 1.73 1.306 2.584 1.982.318.254.629.518.947.775.854.689 1.707 1.378 2.545 2.086.262.222.517.452.779.675.883.757 1.766 1.516 2.633 2.29.199.179.392.362.592.541.918.829 1.834 1.662 2.73 2.506.139.13.272.263.41.394.951.899 1.893 1.803 2.816 2.713.082.08.158.16.238.239.975.963 1.936 1.929 2.879 2.898.043.046.086.092.131.138.971 1 1.928 2.002 2.861 3.001.004.003.006.007.01.01 7.611 8.141 13.984 16.147 18.523 22.235h-323.848-10.859zm18.607 14h306.787c-.109.275-.23.571-.359.879-.023.06-.051.126-.078.187-.109.265-.225.538-.346.824-.025.058-.053.118-.078.178-.135.316-.277.644-.428.984-.014.029-.025.059-.039.088-.869 1.965-1.979 4.305-3.33 6.858v.002c-1.137 2.145-2.44 4.437-3.92 6.78-.494.781-1.006 1.568-1.539 2.356-2.52-.407-5.266-.636-8.287-.636-16.305 0-24.666 6.614-32.041 12.449-6.486 5.13-11.607 9.182-22.648 9.182-11.037 0-16.158-4.052-22.645-9.182-7.375-5.835-15.734-12.449-32.037-12.449s-24.662 6.614-32.037 12.449c-6.486 5.13-11.607 9.182-22.645 9.182-11.037 0-16.16-4.052-22.643-9.182-7.377-5.835-15.736-12.449-32.039-12.449s-24.662 6.614-32.037 12.449c-4.6 3.639-8.539 6.714-14.363 8.207-.322.082-.623.18-.957.252-17.648-17.573-21.482-32.779-22.291-39.408z"/><path d="m390.357 289.546c-11.041 0-16.162-4.052-22.648-9.183-7.377-5.835-15.736-12.448-32.041-12.448s-24.666 6.614-32.041 12.449c-6.486 5.13-11.607 9.182-22.648 9.182-11.037 0-16.158-4.052-22.645-9.182-7.375-5.835-15.734-12.449-32.037-12.449s-24.662 6.614-32.037 12.449c-6.486 5.13-11.607 9.182-22.645 9.182-11.037 0-16.16-4.052-22.643-9.182-7.377-5.835-15.736-12.449-32.039-12.449s-24.662 6.614-32.037 12.449c-6.484 5.13-11.605 9.182-22.643 9.182-11.039 0-16.16-4.052-22.645-9.182-7.377-5.835-15.734-12.449-32.039-12.449-4.182 0-7.57 3.39-7.57 7.571 0 4.182 3.389 7.571 7.57 7.571 11.039 0 16.16 4.052 22.645 9.182 7.375 5.835 15.736 12.449 32.039 12.449s24.662-6.614 32.037-12.449c6.484-5.13 11.605-9.182 22.643-9.182 11.037 0 16.16 4.052 22.642 9.182 7.377 5.835 15.734 12.449 32.039 12.449 16.303 0 24.662-6.614 32.037-12.449 6.484-5.13 11.607-9.182 22.645-9.182s16.158 4.052 22.645 9.182c7.375 5.835 15.734 12.449 32.037 12.449 16.305 0 24.664-6.613 32.041-12.448 6.486-5.13 11.607-9.183 22.648-9.183s16.162 4.052 22.648 9.183c7.375 5.835 15.736 12.448 32.041 12.448 4.182 0 7.57-3.389 7.57-7.571s-3.387-7.571-7.569-7.571z"/></svg>