<svg xmlns="http://www.w3.org/2000/svg" viewBox="0 0 477.542 477.542"><path d="M229.536 154.771c-13.255 0-24 10.745-24 24s10.745 24 24 24 24-10.745 24-24-10.745-24-24-24zm0 32a8 8 0 1 1 0-16 8 8 0 0 1 0 16z"/><path d="M475.694 221.657a7.999 7.999 0 0 0-6.158-2.886h-76.48l-57.92-63.2a101.552 101.552 0 0 0-74.632-32.8h-54.968v-32h-16v32h-8a8 8 0 0 0-7.592 5.472l-30.176 90.528h-18.232a8 8 0 0 0-5.656 2.344l-34.344 34.344-18.344-18.344a8 8 0 0 0-11.312 0l-32 32a8 8 0 0 0 0 11.312l6.344 6.344-9.152 9.152-10-9.584L0 297.891l32 30.656 11.072-11.552-10.448-10 8.912-8.912 6.344 6.344a8 8 0 0 0 11.312 0l4.704-4.704a24.705 24.705 0 0 0 22.976 15.048h286.664a8 8 0 0 0 5.12-1.848l96-80a8 8 0 0 0 1.038-11.266zm-133.678-34.886h-48.48a8 8 0 0 1 0-16h33.816l14.664 16zm-154.712-48h73.2a85.497 85.497 0 0 1 49.696 16h-16.664c-13.255 0-24 10.745-24 24s10.745 24 24 24h63.152l14.664 16h-210.72l26.672-80zm-118.2 133.12l-15.568 15.568-12.688-12.688 20.688-20.688 12.688 12.688-5.12 5.12zm301.536 26.88H86.872a9.12 9.12 0 0 1-6.456-15.568l10.776-10.776 37.656-37.656H447.44l-76.8 64zM21.536 354.771h16v16h-16zM37.536 338.771h16v16h-16zM53.536 354.771h16v16h-16zM117.536 346.771h16v16h-16zM133.536 330.771h16v16h-16zM149.536 346.771h16v16h-16zM237.536 370.771h16v16h-16zM253.536 354.771h16v16h-16zM269.536 370.771h16v16h-16zM333.536 362.771h16v16h-16zM349.536 346.771h16v16h-16zM365.536 362.771h16v16h-16zM421.536 314.771h16v16h-16zM437.536 298.771h16v16h-16zM453.536 314.771h16v16h-16z"/></svg>