<svg enable-background="new 0 0 477.542 477.542" viewBox="0 0 477.542 477.542" xmlns="http://www.w3.org/2000/svg"><path d="m229.536 154.771c-13.255 0-24 10.745-24 24s10.745 24 24 24 24-10.745 24-24-10.745-24-24-24zm0 32c-4.418 0-8-3.582-8-8s3.582-8 8-8 8 3.582 8 8-3.582 8-8 8z"/><path d="m475.694 221.657c-1.521-1.83-3.778-2.888-6.158-2.886h-76.48l-57.92-63.2c-19.204-20.877-46.266-32.77-74.632-32.8h-54.968v-32h-16v32h-8c-3.445-.001-6.503 2.204-7.592 5.472l-30.176 90.528h-18.232c-2.122 0-4.156.844-5.656 2.344l-34.344 34.344-18.344-18.344c-3.124-3.123-8.188-3.123-11.312 0l-32 32c-3.123 3.124-3.123 8.188 0 11.312l6.344 6.344-9.152 9.152-10-9.584-11.072 11.552 32 30.656 11.072-11.552-10.448-10 8.912-8.912 6.344 6.344c3.124 3.123 8.188 3.123 11.312 0l4.704-4.704c3.908 9.203 12.978 15.144 22.976 15.048h286.664c1.87.001 3.682-.652 5.12-1.848l96-80c3.398-2.824 3.862-7.868 1.038-11.266zm-133.678-34.886h-48.48c-4.418 0-8-3.582-8-8s3.582-8 8-8h33.816zm-154.712-48h73.2c17.828.021 35.204 5.616 49.696 16h-16.664c-13.255 0-24 10.745-24 24s10.745 24 24 24h63.152l14.664 16h-210.72zm-118.2 133.12-15.568 15.568-12.688-12.688 20.688-20.688 12.688 12.688zm301.536 26.88h-283.768c-5.037.003-9.123-4.077-9.126-9.114-.002-2.421.959-4.743 2.67-6.454l10.776-10.776 37.656-37.656h318.592z"/><path d="m21.536 354.771h16v16h-16z"/><path d="m37.536 338.771h16v16h-16z"/><path d="m53.536 354.771h16v16h-16z"/><path d="m117.536 346.771h16v16h-16z"/><path d="m133.536 330.771h16v16h-16z"/><path d="m149.536 346.771h16v16h-16z"/><path d="m237.536 370.771h16v16h-16z"/><path d="m253.536 354.771h16v16h-16z"/><path d="m269.536 370.771h16v16h-16z"/><path d="m333.536 362.771h16v16h-16z"/><path d="m349.536 346.771h16v16h-16z"/><path d="m365.536 362.771h16v16h-16z"/><path d="m421.536 314.771h16v16h-16z"/><path d="m437.536 298.771h16v16h-16z"/><path d="m453.536 314.771h16v16h-16z"/></svg>