<svg enable-background="new 0 0 470 470" viewBox="0 0 470 470" xmlns="http://www.w3.org/2000/svg"><path d="m462.5 434.217c-12.674 0-24.3-5.896-31.896-16.174-1.414-1.914-3.652-3.043-6.032-3.043-2.389.002-4.628 1.136-6.04 3.054-7.45 10.121-19.358 16.163-31.854 16.163-12.489 0-24.412-6.046-31.896-16.174-1.414-1.914-3.652-3.043-6.032-3.043s-4.618 1.129-6.032 3.043c-7.484 10.127-19.408 16.174-31.896 16.174-12.65 0-24.264-5.896-31.863-16.175-1.415-1.913-3.653-3.042-6.032-3.042s-4.617 1.129-6.031 3.043c-7.484 10.127-19.408 16.174-31.896 16.174-12.497 0-24.405-6.042-31.855-16.163-1.411-1.916-3.646-3.049-6.025-3.054-2.389 0-4.623 1.124-6.038 3.03-7.633 10.287-19.262 16.187-31.904 16.187-12.496 0-24.405-6.042-31.854-16.163-1.412-1.918-3.651-3.052-6.033-3.054-2.386 0-4.625 1.129-6.039 3.043-7.483 10.128-19.42 16.174-31.932 16.174-12.464 0-24.375-6.047-31.864-16.176-1.415-1.913-3.652-3.041-6.032-3.041s-4.617 1.13-6.031 3.043c-7.593 10.278-19.218 16.174-31.893 16.174-4.142 0-7.5 3.357-7.5 7.5s3.358 7.5 7.5 7.5c14.17 0 27.804-5.631 37.928-15.386 10.123 9.756 23.744 15.386 37.894 15.386 14.186 0 27.828-5.627 37.955-15.379 10.102 9.751 23.725 15.379 37.903 15.379 14.375 0 27.787-5.511 37.932-15.366 10.101 9.743 23.719 15.366 37.891 15.366 14.16 0 27.784-5.622 37.906-15.366 10.123 9.855 23.528 15.366 37.915 15.366 14.169 0 27.803-5.631 37.927-15.386 10.124 9.755 23.757 15.386 37.928 15.386 14.178 0 27.8-5.627 37.902-15.378 10.124 9.75 23.754 15.378 37.919 15.378 4.142 0 7.5-3.357 7.5-7.5s-3.358-7.5-7.5-7.5z"/><path d="m7.5 385c14.17 0 27.804-5.631 37.928-15.386 5.716 5.509 12.548 9.7 19.96 12.307.36.153.737.271 1.123.367 5.383 1.764 11.051 2.712 16.811 2.712 5.769 0 11.444-.945 16.833-2.706.373-.094.738-.207 1.086-.354 7.445-2.604 14.304-6.799 20.036-12.319 10.102 9.751 23.725 15.379 37.903 15.379 14.375 0 27.787-5.511 37.932-15.366 5.706 5.504 12.536 9.692 19.954 12.295.364.155.745.274 1.136.371 5.378 1.757 11.041 2.7 16.801 2.7 5.75 0 11.407-.942 16.782-2.696.399-.098.789-.22 1.16-.379 7.415-2.604 14.248-6.789 19.964-12.292 10.123 9.856 23.528 15.367 37.915 15.367 14.169 0 27.803-5.631 37.927-15.386 10.124 9.755 23.757 15.386 37.928 15.386 14.178 0 27.8-5.627 37.902-15.378 10.124 9.75 23.754 15.378 37.919 15.378 4.142 0 7.5-3.357 7.5-7.5s-3.358-7.5-7.5-7.5c-12.674 0-24.3-5.896-31.896-16.174-1.414-1.914-3.652-3.043-6.032-3.043-2.389.002-4.628 1.136-6.04 3.054-7.449 10.121-19.357 16.163-31.853 16.163-12.489 0-24.412-6.046-31.896-16.174-1.414-1.914-3.652-3.043-6.032-3.043s-4.618 1.129-6.032 3.043c-7.484 10.127-19.407 16.174-31.895 16.174-12.65 0-24.264-5.896-31.863-16.175-1.415-1.913-3.653-3.042-6.032-3.042s-4.617 1.129-6.031 3.043c-2.635 3.566-5.829 6.613-9.396 9.081v-243.786c0-29.41 23.927-53.338 53.338-53.338s53.338 23.928 53.338 53.338c0 12.406 10.093 22.5 22.5 22.5s22.5-10.094 22.5-22.5c0-54.224-44.114-98.338-98.338-98.338s-98.338 44.114-98.338 98.338v81.662h-106.68v-81.662c0-29.41 23.927-53.338 53.338-53.338 12.835 0 25.254 4.66 34.97 13.122 3.123 2.723 7.861 2.396 10.582-.729 2.72-3.123 2.394-7.861-.73-10.581-12.447-10.841-28.365-16.812-44.821-16.812-37.682 0-68.338 30.656-68.338 68.338v81.662h-15v-81.662c0-45.953 37.385-83.338 83.338-83.338 18.348 0 35.767 5.88 50.373 17.003 3.293 2.51 8 1.872 10.511-1.423 2.509-3.295 1.873-8.001-1.423-10.511-17.24-13.13-37.802-20.069-59.461-20.069-54.224 0-98.338 44.114-98.338 98.338v243.764c-3.552-2.465-6.735-5.504-9.364-9.061-1.415-1.913-3.652-3.041-6.032-3.041s-4.617 1.13-6.031 3.043c-7.596 10.278-19.221 16.174-31.896 16.174-4.142 0-7.5 3.357-7.5 7.5s3.358 7.5 7.5 7.5zm195.647-31.163c-1.411-1.916-3.646-3.049-6.025-3.054-2.389 0-4.623 1.124-6.038 3.03-7.633 10.288-19.262 16.187-31.904 16.187-12.496 0-24.405-6.042-31.854-16.163-1.412-1.918-3.651-3.052-6.033-3.054-2.386 0-4.625 1.129-6.039 3.043-2.643 3.577-5.849 6.632-9.432 9.104v-42.146h106.68v42.12c-3.555-2.466-6.735-5.508-9.355-9.067zm9.355-108.054v30h-106.68v-30zm-121.68 30h-15v-30h15zm-15 15h136.68v15h-136.68zm151.68-171.662c0-45.953 37.385-83.338 83.338-83.338s83.338 37.385 83.338 83.338c0 4.136-3.365 7.5-7.5 7.5-4.136 0-7.5-3.364-7.5-7.5 0-37.682-30.656-68.338-68.338-68.338s-68.338 30.656-68.338 68.338v250.136c-2.456.481-4.965.743-7.5.743-2.536 0-5.045-.261-7.5-.743zm-15 96.662v15h-136.68v-15zm-136.68 105h15v48.476c-2.456.48-4.965.741-7.5.741s-5.044-.263-7.5-.746z"/></svg>