<svg enable-background="new 0 0 512.001 512.001" viewBox="0 0 512.001 512.001" xmlns="http://www.w3.org/2000/svg"><path d="m448.758 225.212c-43.608 19.005-65.651 26.134-68.166 28.042-2.739 2.082-4.79 4.851-6.021 7.969-1.272-1.087-2.544-2.154-3.826-3.2 4.611-6.21 19.6-26.315 22.288-33.026 8.261-10.965 5.811-28.057-5.128-35.693-9.764-6.8-19.929-13.077-30.226-18.667-5.857-3.18-13.19-1.662-17.436 3.59-1.364 1.692-3.036 3.385-4.985 5.057.503-2.749.892-5.692 1.169-8.78.544-6.082-2.872-11.734-8.513-14.062-16.616-6.851-33.95-12.308-51.499-16.195-5.026-1.108-10.216.636-13.549 4.564-2.236 2.636-4.687 5.631-7.323 8.975 3.415-8.384-2.099-17.821-11.169-18.954-69.225-8.602-89.501 20.733-131.562 73.889-32.175 17.857-57.54 45.232-73.602 79.52-3.374 7.21-2.626 15.682 1.969 22.103 25.726 35.977 75.853 64.514 147.378 64.514 15.857 0 32.442-1.374 49.745-4.133 23.576 18.398 51.924 25.848 78.269 23.58 9.801-.852 13.733-12.828 6.739-19.467-4.851-4.585-10.308-11.775-16.103-21.129 19.17-6.257 39.037-13.908 59.56-22.934l8.082-2.974c.687 5.928 4.123 11.118 9.375 14.082 1.423.773-2.26-.595 69.222 21.693 29.101 9.057 58.555-12.636 58.555-43.016v-54.073c0-32.424-33.361-54.275-63.243-41.275zm-208.538-75.386c-2.082 3.764-3.723 7.58-4.892 11.364-4.61 14.898 15.074 24.946 24.401 12.441 5.405-7.231 10.205-13.344 14.267-18.154 16.011 3.59 31.816 8.554 46.996 14.759-.359 3.528-.882 6.769-1.569 9.641-2.969 12.529 11.371 21.991 21.693 14.39 4.103-3.026 7.58-6.216 10.369-9.487 9.395 5.159 18.688 10.923 27.621 17.139 3.768 2.635 4.682 9.865 1.61 13.857-3.711 4.897 2.59-.474-22.031 32.678-62.466-47.629-141.523-77.661-215.769-52.965 28.615-35.386 47.661-51.284 97.304-45.663zm-67.94 209.113c-57.474-3.802-97.876-28.608-118.588-57.54-1.364-1.908-1.569-4.451-.554-6.636 19.304-41.224 52.629-70.18 93.151-84.207 2.626 1.826 6.934 5.087 11.826 9.805 31.572 30.488 43.566 77.285 14.165 138.578zm87.591 7.713c10.482-2.267 21.211-5.016 32.175-8.236 4.615 7.693 9.487 14.934 14.441 20.883-11.825-.144-28.913-2.575-46.616-12.647zm101.367-50.237c-5.245 1.747-89.95 43.002-172.271 43.078 24.819-55.954 21.348-114.096-24.319-154.055 70.762-15.393 145.801 21.19 200.897 68.289 16.947 14.412 41.685 12.401 37.437 24.472-1.749 5.096-6.772 4.818-13.364 7.785-2.618.962-9.951 3.657-28.38 10.431zm96.772 32.472-66.72-20.749c-1.771-1.476-1-3.519-1.262-5.908l13.867-5.098c13.259-4.872 18.95-20.635 11.652-32.524-5.841-9.495-16.782-11.509-26.862-15.282.058-.807-.354-1.991.687-3.292 6.708-2.574 36.832-14.216 65.53-26.719 19.317-8.42 41.714 5.349 41.714 27.17v54.073c0 19.988-19.394 34.295-38.606 28.329z"/><circle cx="99.1" cy="271.351" r="12.459"/><path d="m69.398 177.856c-4.249 0-7.693 3.444-7.693 7.692 0 9.69-8.127 17.478-17.992 16.866-14.972-.93-21.73-20.262-9.447-30.079 11.587-9.261 18.231-23.494 18.231-39.05v-32.921c26.827-7.713 26.857-45.878 0-53.599v-34.235c0-4.248-3.443-7.693-7.693-7.693s-7.693 3.444-7.693 7.693v34.236c-11.646 3.349-20.194 14.091-20.194 26.8s8.549 23.451 20.194 26.8v32.923c.001 10.694-4.653 20.798-12.452 27.031-23.77 18.996-10.359 57.516 20.179 57.516 18.074 0 32.251-14.755 32.251-32.287.002-4.248-3.441-7.693-7.691-7.693zm-37.095-104.29c0-6.894 5.608-12.502 12.502-12.502s12.502 5.608 12.502 12.502c0 6.436-4.89 11.749-11.15 12.426-.945-.168-1.759-.168-2.705 0-6.259-.677-11.149-5.99-11.149-12.426z"/><path d="m274.551 489.262c-2.805-3.188-7.667-3.5-10.856-.692-4.841 4.259-12.139 4.323-17.072-.015-10.671-9.391-26.687-9.413-37.385.006-4.87 4.288-12.178 4.297-17.059 0-3.191-2.807-8.052-2.496-10.857.692-2.806 3.19-2.497 8.05.692 10.857 10.7 9.416 26.717 9.395 37.39-.003 4.852-4.272 12.152-4.319 17.074.012 18.647 16.404 47.988.412 38.073-10.857z"/><path d="m344.097 439.189c-2.806-3.19-7.666-3.501-10.856-.695-4.843 4.261-12.14 4.324-17.073-.014-10.672-9.391-26.687-9.413-37.386.006-4.87 4.288-12.179 4.297-17.06 0-3.191-2.807-8.052-2.496-10.857.692-9.924 11.278 19.447 27.263 38.083 10.855 4.852-4.272 12.152-4.319 17.074.012 18.578 16.342 48.039.474 38.075-10.856z"/><path d="m95.225 407.949c-2.806-3.19-7.669-3.501-10.857-.694-4.84 4.258-12.139 4.325-17.072-.016-10.676-9.39-26.689-9.411-37.385.007-4.892 4.306-12.196 4.28-17.059.001-3.191-2.807-8.05-2.496-10.857.692-9.924 11.275 19.439 27.262 38.082 10.855 4.852-4.273 12.152-4.319 17.074.012 18.648 16.404 47.99.412 38.074-10.857z"/><path d="m455.75 480.489c-2.806-3.192-7.667-3.504-10.857-.696-2.399 2.109-6.14 2.461-9.116-.045-8.398-7.35-20.958-7.348-29.352.04-2.588 2.278-6.47 2.283-9.064.001-3.189-2.808-8.05-2.497-10.857.692-9.118 10.361 14.83 24.284 30.087 10.855 2.443-2.152 6.248-2.425 9.116.044 15.356 13.447 39.014-.691 30.043-10.891z"/><path d="m128.008 461.654c-2.805-3.19-7.668-3.503-10.857-.696-2.487 2.187-6.32 2.378-9.076-.01-8.393-7.382-20.979-7.398-29.391.005-2.599 2.288-6.48 2.274-9.064.001-3.189-2.807-8.052-2.496-10.857.692-9.115 10.357 14.832 24.286 30.086 10.855 2.635-2.318 6.55-2.247 9.077.009 15.32 13.48 39.115-.587 30.082-10.856z"/><path d="m438.981 388.89c-2.806-3.19-7.667-3.503-10.857-.696-2.599 2.285-6.477 2.274-9.062.001-8.632-7.552-21.169-7.259-29.404-.007-2.593 2.282-6.476 2.281-9.066.001-3.189-2.808-8.05-2.497-10.857.692-2.806 3.19-2.497 8.05.692 10.857 8.408 7.403 20.999 7.389 29.396-.001 2.414-2.126 6.219-2.449 9.115.044 15.33 13.424 39.066-.632 30.043-10.891z"/></svg>