<svg enable-background="new 0 0 511.328 511.328" viewBox="0 0 511.328 511.328" xmlns="http://www.w3.org/2000/svg"><path d="m255.664 0c-114.896 0-208.368 114.688-208.368 255.664s93.472 255.664 208.368 255.664 208.368-114.688 208.368-255.664-93.472-255.664-208.368-255.664zm0 479.328c-97.248 0-176.368-100.336-176.368-223.664s79.12-223.664 176.368-223.664 176.368 100.336 176.368 223.664-79.12 223.664-176.368 223.664z"/><path d="m255.664 48c-88.432 0-160.368 93.152-160.368 207.664 0 114.496 71.936 207.664 160.368 207.664s160.368-93.168 160.368-207.664c0-114.512-71.936-207.664-160.368-207.664zm0 383.328c-70.768 0-128.368-78.8-128.368-175.664s57.584-175.664 128.368-175.664 128.368 78.8 128.368 175.664-57.6 175.664-128.368 175.664z"/></svg>