<svg xmlns="http://www.w3.org/2000/svg" viewBox="0 0 511.328 511.328"><path d="M255.664 0C140.768 0 47.296 114.688 47.296 255.664s93.472 255.664 208.368 255.664S464.032 396.64 464.032 255.664 370.56 0 255.664 0zm0 479.328c-97.248 0-176.368-100.336-176.368-223.664S158.416 32 255.664 32s176.368 100.336 176.368 223.664-79.12 223.664-176.368 223.664z"/><path d="M255.664 48c-88.432 0-160.368 93.152-160.368 207.664 0 114.496 71.936 207.664 160.368 207.664s160.368-93.168 160.368-207.664C416.032 141.152 344.096 48 255.664 48zm0 383.328c-70.768 0-128.368-78.8-128.368-175.664S184.88 80 255.664 80s128.368 78.8 128.368 175.664-57.6 175.664-128.368 175.664z"/></svg>