<svg enable-background="new 0 0 511.921 511.921" viewBox="0 0 511.921 511.921" xmlns="http://www.w3.org/2000/svg"><path d="m439.932 279.956h-367.943c-2.211 0-3.999 1.789-3.999 4v15.998c0 2.209 1.788 3.998 3.999 3.998h367.944c2.21 0 3.999-1.789 3.998-3.998v-15.998c0-2.211-1.789-4-3.999-4zm-3.999 15.998h-359.945v-8h359.945z"/><path d="m79.988 303.952c-2.211 0-4 1.789-4 4v199.969c0 2.211 1.789 4 4 4 2.21 0 3.999-1.789 3.999-4v-199.969c0-2.211-1.789-4-3.999-4z"/><path d="m95.985 303.952c-2.21 0-3.999 1.789-3.999 4v199.969c0 2.211 1.789 4 3.999 4 2.211 0 4-1.789 4-4v-199.969c0-2.211-1.789-4-4-4z"/><path d="m95.985 503.921h-15.997c-2.211 0-4 1.789-4 4s1.789 4 4 4h15.997c2.211 0 4-1.789 4-4s-1.789-4-4-4z"/><path d="m415.936 303.952c-2.21 0-3.999 1.789-3.999 4v199.969c0 2.211 1.789 4 3.999 4 2.211 0 4-1.789 4-4v-199.969c0-2.211-1.789-4-4-4z"/><path d="m431.934 303.952c-2.211 0-3.999 1.789-3.999 4v199.969c0 2.211 1.788 4 3.999 4s4-1.789 4-4v-199.969c0-2.211-1.789-4-4-4z"/><path d="m431.934 503.921h-15.998c-2.21 0-3.999 1.789-3.999 4s1.789 4 3.999 4h15.998c2.211 0 4-1.789 4-4s-1.789-4-4-4z"/><path d="m407.937 335.948h-303.953c-2.211 0-3.999 1.789-3.999 3.998 0 2.211 1.788 4 3.999 4h303.954c2.211 0 3.999-1.789 3.998-4 0-2.209-1.788-3.998-3.999-3.998z"/><path d="m255.961 0c-46.309 0-83.987 37.677-83.987 83.987 0 2.21 1.789 3.999 4 3.999 2.21 0 3.999-1.789 3.999-3.999 0-41.9 34.089-75.988 75.988-75.988s75.988 34.088 75.988 75.988c0 2.21 1.789 3.999 3.999 3.999 2.211 0 3.999-1.789 3.999-3.999 0-46.309-37.674-83.987-83.986-83.987z"/><path d="m175.974 79.987c-2.211 0-4 1.789-4 4v191.969c0 2.211 1.789 4 4 4 2.21 0 3.999-1.789 3.999-4v-191.969c0-2.211-1.789-4-3.999-4z"/><path d="m167.974 71.989c-37.49 0-67.989 30.499-67.989 67.989 0 2.211 1.788 3.999 3.999 3.999s3.999-1.788 3.999-3.998c0-33.081 26.91-59.991 59.991-59.991 2.211 0 3.999-1.789 3.999-4 0-2.21-1.788-3.999-3.999-3.999z"/><path d="m103.984 135.978c-2.211 0-3.999 1.789-3.999 4v135.978c0 2.211 1.788 4 3.999 4s3.999-1.789 3.999-4v-135.978c0-2.211-1.788-4-3.999-4z"/><path d="m343.948 71.988c-2.211 0-4 1.789-4 3.999 0 2.211 1.789 4 4 4 33.081 0 59.99 26.91 59.99 59.991 0 2.211 1.789 3.999 4 3.999s3.999-1.788 3.999-4c0-37.49-30.503-67.989-67.989-67.989z"/><path d="m407.938 135.978c-2.211 0-4 1.789-4 4v135.978c0 2.211 1.789 4 4 4s3.999-1.789 3.999-4v-135.978c0-2.211-1.788-4-3.999-4z"/><path d="m335.948 79.987c-2.21 0-3.999 1.789-3.999 4v191.969c0 2.211 1.789 4 3.999 4 2.211 0 3.999-1.789 3.999-4v-191.969c0-2.211-1.788-4-3.999-4z"/><path d="m306.765 113.178c-1.562-1.562-4.093-1.562-5.655 0l-95.95 95.938c-1.562 1.562-1.562 4.093 0 5.655.781.781 1.805 1.172 2.828 1.172s2.046-.391 2.827-1.172l95.95-95.938c1.562-1.562 1.562-4.093 0-5.655z"/><path d="m290.767 169.153c-1.561-1.562-4.093-1.562-5.655 0l-23.996 23.981c-1.562 1.558-1.562 4.094 0 5.656.781.78 1.805 1.171 2.828 1.171s2.046-.391 2.827-1.171l23.996-23.981c1.562-1.558 1.562-4.094 0-5.656z"/><path d="m250.782 129.16c-1.562-1.562-4.093-1.562-5.655 0l-23.996 23.996c-1.562 1.562-1.562 4.093 0 5.655.78.781 1.804 1.172 2.827 1.172 1.024 0 2.047-.391 2.828-1.172l23.996-23.996c1.562-1.562 1.562-4.093 0-5.655z"/><path d="m279.957 319.95h-47.992c-2.211 0-4 1.789-4 4 0 2.209 1.789 3.998 4 3.998h47.992c2.211 0 4-1.789 4-3.998 0-2.211-1.789-4-4-4z"/><path d="m231.965 311.952c-2.211 0-4 1.787-4 3.998v8c0 2.209 1.789 3.998 4 3.998 2.21 0 3.999-1.789 3.999-3.998v-8c0-2.211-1.789-3.998-3.999-3.998z"/><path d="m279.957 311.952c-2.211 0-3.999 1.787-3.999 3.998v8c0 2.209 1.788 3.998 3.999 3.998s4-1.789 4-3.998v-8c0-2.211-1.789-3.998-4-3.998z"/><path d="m175.974 343.946c-2.211 0-4 1.789-4 4v159.975c0 2.211 1.789 4 4 4 2.21 0 3.999-1.789 3.999-4v-159.975c0-2.211-1.789-4-3.999-4z"/><path d="m167.975 391.939h-63.99c-2.211 0-3.999 1.789-3.999 4s1.788 4 3.999 4h63.99c2.211 0 3.999-1.789 3.999-4s-1.788-4-3.999-4z"/><path d="m167.975 447.931h-63.99c-2.211 0-3.999 1.789-3.999 4 0 2.209 1.788 3.998 3.999 3.998h63.99c2.211 0 3.999-1.789 3.999-3.998 0-2.211-1.788-4-3.999-4z"/><path d="m143.979 423.935h-15.998c-2.21 0-3.999 1.789-3.999 3.998 0 2.211 1.789 4 3.999 4h15.998c2.21 0 3.999-1.789 3.999-4 0-2.209-1.789-3.998-3.999-3.998z"/><path d="m143.979 415.935c-2.211 0-4 1.789-4 4v7.998c0 2.211 1.789 4 4 4 2.21 0 3.999-1.789 3.999-4v-7.998c0-2.211-1.789-4-3.999-4z"/><path d="m127.981 415.935c-2.21 0-3.999 1.789-3.999 4v7.998c0 2.211 1.789 4 3.999 4s4-1.789 4-4v-7.998c0-2.211-1.789-4-4-4z"/><path d="m143.979 479.925h-15.998c-2.21 0-3.999 1.789-3.999 4s1.789 4 3.999 4h15.998c2.21 0 3.999-1.789 3.999-4s-1.789-4-3.999-4z"/><path d="m143.979 471.927c-2.211 0-4 1.789-4 4v7.998c0 2.211 1.789 4 4 4 2.21 0 3.999-1.789 3.999-4v-7.998c0-2.211-1.789-4-3.999-4z"/><path d="m127.981 471.927c-2.21 0-3.999 1.789-3.999 4v7.998c0 2.211 1.789 4 3.999 4s4-1.789 4-4v-7.998c0-2.211-1.789-4-4-4z"/><path d="m143.979 367.942h-15.998c-2.21 0-3.999 1.789-3.999 4s1.789 4 3.999 4h15.998c2.21 0 3.999-1.789 3.999-4s-1.789-4-3.999-4z"/><path d="m143.979 359.944c-2.211 0-4 1.789-4 3.998v8c0 2.211 1.789 4 4 4 2.21 0 3.999-1.789 3.999-4v-8c0-2.209-1.789-3.998-3.999-3.998z"/><path d="m127.981 359.944c-2.21 0-3.999 1.789-3.999 3.998v8c0 2.211 1.789 4 3.999 4s4-1.789 4-4v-8c0-2.209-1.789-3.998-4-3.998z"/><path d="m167.975 503.921h-63.99c-2.211 0-3.999 1.789-3.999 4s1.788 4 3.999 4h63.99c2.211 0 3.999-1.789 3.999-4s-1.788-4-3.999-4z"/><path d="m335.948 343.946c-2.21 0-3.999 1.789-3.999 4v159.975c0 2.211 1.789 4 3.999 4 2.211 0 3.999-1.789 3.999-4v-159.975c0-2.211-1.788-4-3.999-4z"/><path d="m407.938 391.939h-63.99c-2.211 0-4 1.789-4 4s1.789 4 4 4h63.99c2.211 0 3.999-1.789 3.999-4s-1.788-4-3.999-4z"/><path d="m407.938 447.931h-63.99c-2.211 0-4 1.789-4 4 0 2.209 1.789 3.998 4 3.998h63.99c2.211 0 3.999-1.789 3.999-3.998 0-2.211-1.788-4-3.999-4z"/><path d="m383.941 423.935h-15.998c-2.211 0-3.999 1.789-3.999 3.998 0 2.211 1.788 4 3.999 4h15.998c2.21 0 3.999-1.789 3.999-4 0-2.209-1.789-3.998-3.999-3.998z"/><path d="m367.943 415.935c-2.211 0-3.999 1.789-3.999 4v7.998c0 2.211 1.788 4 3.999 4s4-1.789 4-4v-7.998c0-2.211-1.789-4-4-4z"/><path d="m383.941 415.935c-2.211 0-4 1.789-4 4v7.998c0 2.211 1.789 4 4 4 2.21 0 3.999-1.789 3.999-4v-7.998c0-2.211-1.789-4-3.999-4z"/><path d="m383.941 479.925h-15.998c-2.211 0-3.999 1.789-3.999 4s1.788 4 3.999 4h15.998c2.21 0 3.999-1.789 3.999-4s-1.789-4-3.999-4z"/><path d="m367.943 471.927c-2.211 0-3.999 1.789-3.999 4v7.998c0 2.211 1.788 4 3.999 4s4-1.789 4-4v-7.998c0-2.211-1.789-4-4-4z"/><path d="m383.941 471.927c-2.211 0-4 1.789-4 4v7.998c0 2.211 1.789 4 4 4 2.21 0 3.999-1.789 3.999-4v-7.998c0-2.211-1.789-4-3.999-4z"/><path d="m383.941 367.942h-15.998c-2.211 0-3.999 1.789-3.999 4s1.788 4 3.999 4h15.998c2.21 0 3.999-1.789 3.999-4s-1.789-4-3.999-4z"/><path d="m367.943 359.944c-2.211 0-3.999 1.789-3.999 3.998v8c0 2.211 1.788 4 3.999 4s4-1.789 4-4v-8c0-2.209-1.789-3.998-4-3.998z"/><path d="m383.941 359.944c-2.211 0-4 1.789-4 3.998v8c0 2.211 1.789 4 4 4 2.21 0 3.999-1.789 3.999-4v-8c0-2.209-1.789-3.998-3.999-3.998z"/><path d="m407.938 503.921h-63.99c-2.211 0-4 1.789-4 4s1.789 4 4 4h63.99c2.211 0 3.999-1.789 3.999-4s-1.788-4-3.999-4z"/></svg>