<svg xmlns="http://www.w3.org/2000/svg" viewBox="0 0 511.921 511.921"><path d="M439.932 279.956H71.989a3.997 3.997 0 0 0-3.999 4v15.998a3.996 3.996 0 0 0 3.999 3.998h367.944a3.995 3.995 0 0 0 3.998-3.998v-15.998c0-2.211-1.789-4-3.999-4zm-3.999 15.998H75.988v-8h359.945v8z"/><path d="M79.988 303.952c-2.211 0-4 1.789-4 4v199.969c0 2.211 1.789 4 4 4a3.997 3.997 0 0 0 3.999-4V307.952c0-2.211-1.789-4-3.999-4zM95.985 303.952a3.997 3.997 0 0 0-3.999 4v199.969c0 2.211 1.789 4 3.999 4 2.211 0 4-1.789 4-4V307.952c0-2.211-1.789-4-4-4z"/><path d="M95.985 503.921H79.988c-2.211 0-4 1.789-4 4s1.789 4 4 4h15.997c2.211 0 4-1.789 4-4s-1.789-4-4-4zM415.936 303.952a3.997 3.997 0 0 0-3.999 4v199.969c0 2.211 1.789 4 3.999 4 2.211 0 4-1.789 4-4V307.952c0-2.211-1.789-4-4-4zM431.934 303.952a3.997 3.997 0 0 0-3.999 4v199.969c0 2.211 1.788 4 3.999 4s4-1.789 4-4V307.952c0-2.211-1.789-4-4-4z"/><path d="M431.934 503.921h-15.998c-2.21 0-3.999 1.789-3.999 4s1.789 4 3.999 4h15.998c2.211 0 4-1.789 4-4s-1.789-4-4-4zM407.937 335.948H103.984a3.996 3.996 0 0 0-3.999 3.998c0 2.211 1.788 4 3.999 4h303.954a3.995 3.995 0 0 0 3.998-4 3.996 3.996 0 0 0-3.999-3.998zM255.961 0c-46.309 0-83.987 37.677-83.987 83.987a3.997 3.997 0 0 0 4 3.999 3.997 3.997 0 0 0 3.999-3.999c0-41.9 34.089-75.988 75.988-75.988s75.988 34.088 75.988 75.988a3.997 3.997 0 0 0 3.999 3.999 3.997 3.997 0 0 0 3.999-3.999C339.947 37.678 302.273 0 255.961 0z"/><path d="M175.974 79.987c-2.211 0-4 1.789-4 4v191.969c0 2.211 1.789 4 4 4a3.997 3.997 0 0 0 3.999-4V83.987c0-2.211-1.789-4-3.999-4zM167.974 71.989c-37.49 0-67.989 30.499-67.989 67.989 0 2.211 1.788 3.999 3.999 3.999s3.999-1.788 3.999-3.998c0-33.081 26.91-59.991 59.991-59.991a3.997 3.997 0 0 0 3.999-4 3.997 3.997 0 0 0-3.999-3.999z"/><path d="M103.984 135.978a3.997 3.997 0 0 0-3.999 4v135.978c0 2.211 1.788 4 3.999 4s3.999-1.789 3.999-4V139.978c0-2.211-1.788-4-3.999-4zM343.948 71.988c-2.211 0-4 1.789-4 3.999 0 2.211 1.789 4 4 4 33.081 0 59.99 26.91 59.99 59.991 0 2.211 1.789 3.999 4 3.999s3.999-1.788 3.999-4c0-37.49-30.503-67.989-67.989-67.989z"/><path d="M407.938 135.978c-2.211 0-4 1.789-4 4v135.978c0 2.211 1.789 4 4 4s3.999-1.789 3.999-4V139.978c0-2.211-1.788-4-3.999-4zM335.948 79.987a3.997 3.997 0 0 0-3.999 4v191.969c0 2.211 1.789 4 3.999 4a3.997 3.997 0 0 0 3.999-4V83.987c0-2.211-1.788-4-3.999-4zM306.765 113.178a3.998 3.998 0 0 0-5.655 0l-95.95 95.938a3.998 3.998 0 0 0 2.828 6.827 3.986 3.986 0 0 0 2.827-1.172l95.95-95.938a3.998 3.998 0 0 0 0-5.655zM290.767 169.153a3.998 3.998 0 0 0-5.655 0l-23.996 23.981a4 4 0 0 0 5.655 5.656l23.996-23.981a4 4 0 0 0 0-5.656zM250.782 129.16a3.998 3.998 0 0 0-5.655 0l-23.996 23.996a3.998 3.998 0 0 0 2.827 6.827 3.987 3.987 0 0 0 2.828-1.172l23.996-23.996a3.998 3.998 0 0 0 0-5.655zM279.957 319.95h-47.992c-2.211 0-4 1.789-4 4a3.997 3.997 0 0 0 4 3.998h47.992c2.211 0 4-1.789 4-3.998 0-2.211-1.789-4-4-4z"/><path d="M231.965 311.952c-2.211 0-4 1.787-4 3.998v8a3.997 3.997 0 0 0 4 3.998 3.997 3.997 0 0 0 3.999-3.998v-8a3.996 3.996 0 0 0-3.999-3.998zM279.957 311.952a3.995 3.995 0 0 0-3.999 3.998v8c0 2.209 1.788 3.998 3.999 3.998s4-1.789 4-3.998v-8a3.996 3.996 0 0 0-4-3.998zM175.974 343.946c-2.211 0-4 1.789-4 4v159.975c0 2.211 1.789 4 4 4a3.997 3.997 0 0 0 3.999-4V347.946c0-2.211-1.789-4-3.999-4zM167.975 391.939h-63.99c-2.211 0-3.999 1.789-3.999 4s1.788 4 3.999 4h63.99c2.211 0 3.999-1.789 3.999-4s-1.788-4-3.999-4z"/><path d="M167.975 447.931h-63.99a3.997 3.997 0 0 0-3.999 4 3.996 3.996 0 0 0 3.999 3.998h63.99a3.996 3.996 0 0 0 3.999-3.998c0-2.211-1.788-4-3.999-4zM143.979 423.935h-15.998a3.997 3.997 0 0 0-3.999 3.998c0 2.211 1.789 4 3.999 4h15.998a3.997 3.997 0 0 0 3.999-4 3.997 3.997 0 0 0-3.999-3.998z"/><path d="M143.979 415.935c-2.211 0-4 1.789-4 4v7.998c0 2.211 1.789 4 4 4a3.997 3.997 0 0 0 3.999-4v-7.998c0-2.211-1.789-4-3.999-4zM127.981 415.935a3.997 3.997 0 0 0-3.999 4v7.998c0 2.211 1.789 4 3.999 4s4-1.789 4-4v-7.998c0-2.211-1.789-4-4-4zM143.979 479.925h-15.998c-2.21 0-3.999 1.789-3.999 4s1.789 4 3.999 4h15.998c2.21 0 3.999-1.789 3.999-4s-1.789-4-3.999-4z"/><path d="M143.979 471.927c-2.211 0-4 1.789-4 4v7.998c0 2.211 1.789 4 4 4a3.997 3.997 0 0 0 3.999-4v-7.998c0-2.211-1.789-4-3.999-4zM127.981 471.927a3.997 3.997 0 0 0-3.999 4v7.998c0 2.211 1.789 4 3.999 4s4-1.789 4-4v-7.998c0-2.211-1.789-4-4-4zM143.979 367.942h-15.998c-2.21 0-3.999 1.789-3.999 4s1.789 4 3.999 4h15.998c2.21 0 3.999-1.789 3.999-4s-1.789-4-3.999-4z"/><path d="M143.979 359.944c-2.211 0-4 1.789-4 3.998v8c0 2.211 1.789 4 4 4a3.997 3.997 0 0 0 3.999-4v-8a3.997 3.997 0 0 0-3.999-3.998zM127.981 359.944a3.997 3.997 0 0 0-3.999 3.998v8c0 2.211 1.789 4 3.999 4s4-1.789 4-4v-8a3.997 3.997 0 0 0-4-3.998zM167.975 503.921h-63.99c-2.211 0-3.999 1.789-3.999 4s1.788 4 3.999 4h63.99c2.211 0 3.999-1.789 3.999-4s-1.788-4-3.999-4zM335.948 343.946a3.997 3.997 0 0 0-3.999 4v159.975c0 2.211 1.789 4 3.999 4a3.997 3.997 0 0 0 3.999-4V347.946c0-2.211-1.788-4-3.999-4zM407.938 391.939h-63.99c-2.211 0-4 1.789-4 4s1.789 4 4 4h63.99c2.211 0 3.999-1.789 3.999-4s-1.788-4-3.999-4zM407.938 447.931h-63.99c-2.211 0-4 1.789-4 4a3.997 3.997 0 0 0 4 3.998h63.99a3.996 3.996 0 0 0 3.999-3.998c0-2.211-1.788-4-3.999-4zM383.941 423.935h-15.998a3.996 3.996 0 0 0-3.999 3.998c0 2.211 1.788 4 3.999 4h15.998a3.997 3.997 0 0 0 3.999-4 3.997 3.997 0 0 0-3.999-3.998z"/><path d="M367.943 415.935a3.997 3.997 0 0 0-3.999 4v7.998c0 2.211 1.788 4 3.999 4s4-1.789 4-4v-7.998c0-2.211-1.789-4-4-4zM383.941 415.935c-2.211 0-4 1.789-4 4v7.998c0 2.211 1.789 4 4 4a3.997 3.997 0 0 0 3.999-4v-7.998c0-2.211-1.789-4-3.999-4zM383.941 479.925h-15.998c-2.211 0-3.999 1.789-3.999 4s1.788 4 3.999 4h15.998c2.21 0 3.999-1.789 3.999-4s-1.789-4-3.999-4z"/><path d="M367.943 471.927a3.997 3.997 0 0 0-3.999 4v7.998c0 2.211 1.788 4 3.999 4s4-1.789 4-4v-7.998c0-2.211-1.789-4-4-4zM383.941 471.927c-2.211 0-4 1.789-4 4v7.998c0 2.211 1.789 4 4 4a3.997 3.997 0 0 0 3.999-4v-7.998c0-2.211-1.789-4-3.999-4zM383.941 367.942h-15.998c-2.211 0-3.999 1.789-3.999 4s1.788 4 3.999 4h15.998c2.21 0 3.999-1.789 3.999-4s-1.789-4-3.999-4z"/><path d="M367.943 359.944a3.996 3.996 0 0 0-3.999 3.998v8c0 2.211 1.788 4 3.999 4s4-1.789 4-4v-8a3.997 3.997 0 0 0-4-3.998zM383.941 359.944c-2.211 0-4 1.789-4 3.998v8c0 2.211 1.789 4 4 4a3.997 3.997 0 0 0 3.999-4v-8a3.997 3.997 0 0 0-3.999-3.998zM407.938 503.921h-63.99c-2.211 0-4 1.789-4 4s1.789 4 4 4h63.99c2.211 0 3.999-1.789 3.999-4s-1.788-4-3.999-4z"/></svg>