<svg xmlns="http://www.w3.org/2000/svg" viewBox="0 0 496 496"><path d="M407.192 144H496V96H368c-22.056 0-40 17.944-40 40 0 13.128 6.448 24.704 16.248 32H344v40h-24c-13.232 0-24 10.768-24 24v9.856c-16.016 3.648-30.008 12.616-40 24.984V216c0-30.872-25.128-56-56-56v-8c0-13.232-10.768-24-24-24h-24V72h-.224c7.752-5.776 13.416-14.192 15.416-24H248V0H128c-22.056 0-40 17.944-40 40 0 13.128 6.448 24.704 16.248 32H104v56H80c-13.232 0-24 10.768-24 24v8c-30.872 0-56 25.128-56 56v240c0 22.056 17.944 40 40 40h176c10.776 0 20.528-4.328 27.728-11.28C247.976 491.472 255.448 496 264 496h208c13.232 0 24-10.768 24-24V312c0-34.2-23.984-62.848-56-70.144V232c0-13.232-10.768-24-24-24h-24v-40h-.224c7.752-5.776 13.416-14.192 15.416-24zM168 144h8c4.416 0 8 3.584 8 8v8h-16v-16zm-16 0v16h-16v-16h16zm-32-16V79.192c2.584.528 5.264.808 8 .808 2.752 0 5.408-.344 8-.88V128h-16zm-16-88c0-13.232 10.768-24 24-24h104v16h-80v8c0 13.232-10.768 24-24 24s-24-10.768-24-24zm0 104h16v16h-16v-16zm-32 8c0-4.416 3.584-8 8-8h8v16H72v-8zm168 160v144c0 13.232-10.768 24-24 24H40c-13.232 0-24-10.768-24-24V216c0-22.056 17.944-40 40-40h144c22.056 0 40 17.944 40 40v96zm104-88h16v16h-16v-16zm-32 8c0-4.416 3.584-8 8-8h8v16h-16v-8zm168 200h-16v16h16v24c0 4.416-3.584 8-8 8H264c-4.416 0-8-3.584-8-8v-24h192v-16H256V320h224v112zm-72-208h8c4.416 0 8 3.584 8 8v8h-16v-16zm16 32c28.152 0 51.456 20.912 55.36 48H256.64c3.904-27.088 27.208-48 55.36-48h112zm-32-32v16h-16v-16h16zm-32-16v-32.808c2.584.528 5.264.808 8 .808 2.752 0 5.408-.344 8-.88V208h-16zm32-72c0 13.232-10.768 24-24 24s-24-10.768-24-24 10.768-24 24-24h112v16h-88v8z"/><path d="M32 448h192V208H32v240zm16-224h160v208H48V224z"/><path d="M146.736 275.568C143.152 268.44 135.976 264 128 264s-15.16 4.44-18.736 11.576l-24.32 48.648A47.167 47.167 0 0 0 80 345.168C80 370.992 101.008 392 126.832 392h2.328c25.832 0 46.84-21.008 46.84-46.832a47.192 47.192 0 0 0-4.944-20.944l-24.32-48.656zM129.168 376h-2.328C109.832 376 96 362.168 96 345.168c0-4.752 1.128-9.52 3.256-13.792l24.32-48.632c.848-1.696 2.544-2.744 4.424-2.744s3.576 1.048 4.424 2.736l24.32 48.632a31.13 31.13 0 0 1 3.256 13.8c0 17-13.832 30.832-30.832 30.832zM368 336h-96v80h96v-80zm-16 64h-64v-48h64v48zM384 336h16v16h-16zM416 336h48v16h-48zM384 368h80v16h-80zM448 400h16v16h-16zM384 400h48v16h-48z"/></svg>