<svg enable-background="new 0 0 473.04 473.04" viewBox="0 0 473.04 473.04" xmlns="http://www.w3.org/2000/svg"><path d="m324.878 22.72-29.68-21.2c-1.35-.978-2.973-1.509-4.64-1.52h-120c-4.418 0-8 3.582-8 8s3.582 8 8 8h54.64v18.08h-5.68c-9.18 1.003-15.808 9.258-14.805 18.437.002.014.003.028.005.043v19.6c-.049.853-.049 1.707 0 2.56-21.6 2.56-25.12 19.76-25.12 30.32v27.52c.025 1.404.212 2.8.56 4.16-18.96 4.88-35.36 19.44-35.36 49.12v236.16c0 24.72 13.44 51.04 51.04 51.04h76.8c37.68 0 51.04-26.4 51.04-51.04v-235.92c0-30.56-17.44-45.2-37.2-49.6.125-1.223.125-2.456 0-3.68v-28.08c0-22.72-13.84-28.96-25.12-30.32.049-.853.049-1.707 0-2.56v-19.28c.833-9.188-5.933-17.315-15.12-18.16h-5.68v-18.32h47.2l27.84 19.68c3.601 2.563 8.597 1.721 11.16-1.88s1.721-8.597-1.88-11.16zm-16.88 163.36v235.92c0 16-6.08 35.04-35.04 35.04h-76.8c-28.96 0-35.04-19.04-35.04-35.04v-235.92c0-28.96 19.04-35.04 35.04-35.04h76.8c15.92-.08 35.04 6 35.04 35.04zm-51.52-96.08c13.6 0 14.72 6.96 14.72 14.72v27.84c0 1.193-.967 2.16-2.16 2.16h-71.04c-1.193 0-2.16-.967-2.16-2.16v-27.84c0-13.6 6.96-14.72 14.72-14.72zm-10.56-40c.279.685.415 1.42.4 2.16v19.6c.015.74-.121 1.475-.4 2.16h-24.8c-.279-.685-.415-1.42-.4-2.16v-19.2c-.015-.74.121-1.475.4-2.16z"/><path d="m279.278 246.4h-83.28c-8.837 0-16 7.163-16 16v83.28c0 8.837 7.163 16 16 16h83.28c8.837 0 16-7.163 16-16v-83.28c0-8.837-7.163-16-16-16zm-83.28 99.28v-83.28h83.28l.08 83.28z"/></svg>