<svg xmlns="http://www.w3.org/2000/svg" viewBox="0 0 473.04 473.04"><path d="M324.878 22.72l-29.68-21.2a8 8 0 0 0-4.64-1.52h-120a8 8 0 0 0 0 16h54.64v18.08h-5.68c-9.18 1.003-15.808 9.258-14.805 18.437l.005.043v19.6a22.31 22.31 0 0 0 0 2.56c-21.6 2.56-25.12 19.76-25.12 30.32v27.52c.025 1.404.212 2.8.56 4.16-18.96 4.88-35.36 19.44-35.36 49.12V422c0 24.72 13.44 51.04 51.04 51.04h76.8c37.68 0 51.04-26.4 51.04-51.04V186.08c0-30.56-17.44-45.2-37.2-49.6a18.103 18.103 0 0 0 0-3.68v-28.08c0-22.72-13.84-28.96-25.12-30.32a22.31 22.31 0 0 0 0-2.56V52.56c.833-9.188-5.933-17.315-15.12-18.16h-5.68V16.08h47.2l27.84 19.68a8.002 8.002 0 0 0 11.16-1.88 8.002 8.002 0 0 0-1.88-11.16zm-16.88 163.36V422c0 16-6.08 35.04-35.04 35.04h-76.8c-28.96 0-35.04-19.04-35.04-35.04V186.08c0-28.96 19.04-35.04 35.04-35.04h76.8c15.92-.08 35.04 6 35.04 35.04zM256.478 90c13.6 0 14.72 6.96 14.72 14.72v27.84a2.16 2.16 0 0 1-2.16 2.16h-71.04a2.16 2.16 0 0 1-2.16-2.16v-27.84c0-13.6 6.96-14.72 14.72-14.72h45.92zm-10.56-40c.279.685.415 1.42.4 2.16v19.6a5.434 5.434 0 0 1-.4 2.16h-24.8a5.434 5.434 0 0 1-.4-2.16v-19.2a5.434 5.434 0 0 1 .4-2.16l24.8-.4z"/><path d="M279.278 246.4h-83.28c-8.837 0-16 7.163-16 16v83.28c0 8.837 7.163 16 16 16h83.28c8.837 0 16-7.163 16-16V262.4c0-8.837-7.163-16-16-16zm-83.28 99.28V262.4h83.28l.08 83.28h-83.36z"/></svg>