<svg enable-background="new 0 0 54.908 54.908" viewBox="0 0 54.908 54.908" xmlns="http://www.w3.org/2000/svg"><path d="m54.615 19.123c-7.243-7.244-16.89-11.233-27.161-11.233s-19.917 3.988-27.161 11.233c-.391.391-.391 1.023 0 1.414s1.023.391 1.414 0c6.866-6.867 16.01-10.648 25.747-10.648s18.881 3.781 25.747 10.647c.195.195.451.293.707.293s.512-.098.707-.293c.391-.39.391-1.023 0-1.413z"/><path d="m6.171 25c-.391.391-.391 1.023 0 1.414.195.195.451.293.707.293s.512-.098.707-.293c10.955-10.956 28.781-10.956 39.737 0 .391.391 1.023.391 1.414 0s.391-1.023 0-1.414c-11.734-11.734-30.829-11.736-42.565 0z"/><path d="m27.454 24.508c-5.825 0-11.295 2.263-15.404 6.371-.391.391-.391 1.023 0 1.414s1.023.391 1.414 0c3.731-3.73 8.699-5.785 13.99-5.785s10.259 2.055 13.99 5.785c.195.195.451.293.707.293s.512-.098.707-.293c.391-.391.391-1.023 0-1.414-4.108-4.108-9.579-6.371-15.404-6.371z"/><path d="m27.454 33.916c-3.612 0-6.551 2.939-6.551 6.552s2.939 6.552 6.551 6.552c3.613 0 6.552-2.939 6.552-6.552s-2.939-6.552-6.552-6.552zm0 11.103c-2.51 0-4.551-2.042-4.551-4.552s2.042-4.552 4.551-4.552 4.552 2.042 4.552 4.552-2.042 4.552-4.552 4.552z"/></svg>