<svg enable-background="new 0 0 383.563 383.563" viewBox="0 0 383.563 383.563" xmlns="http://www.w3.org/2000/svg"><path d="m359.399 62.563h-119.702c-.929-5.959-2.956-11.555-5.852-16.592l99.926-31.312c3.953-1.238 6.153-5.447 4.915-9.399-1.239-3.953-5.446-6.156-9.399-4.914l-105.725 33.129c-8.519-7.41-19.632-11.912-31.783-11.912s-23.263 4.502-31.782 11.912l-105.726-33.129c-3.954-1.239-8.161.962-9.399 4.914-1.239 3.953.961 8.161 4.914 9.399l99.926 31.312c-2.896 5.037-4.923 10.633-5.852 16.592h-119.696c-12.445 0-22.57 10.125-22.57 22.569v253.861c0 12.445 10.125 22.57 22.57 22.57h3.617v14.5c0 4.142 3.358 7.5 7.5 7.5s7.5-3.358 7.5-7.5v-14.5h298v14.5c0 4.142 3.357 7.5 7.5 7.5s7.5-3.358 7.5-7.5v-14.5h3.617c12.444 0 22.569-10.125 22.569-22.57v-253.861c.002-12.444-10.123-22.569-22.568-22.569zm-167.62-26c15.893 0 29.227 11.128 32.644 26h-65.287c3.416-14.871 16.749-26 32.643-26zm175.19 302.43c0 4.174-3.396 7.57-7.569 7.57h-335.236c-4.174 0-7.57-3.396-7.57-7.57v-253.861c0-4.174 3.396-7.569 7.57-7.569h335.235c4.174 0 7.569 3.396 7.569 7.569v253.861z"/><path d="m346.972 103.687c-.577-3.369-3.358-5.922-6.764-6.208-98.491-8.285-198.365-8.285-296.854 0-3.406.287-6.187 2.839-6.764 6.208-11.912 69.591-11.912 140.162 0 209.752.577 3.369 3.358 5.921 6.764 6.208 49.244 4.143 98.835 6.214 148.427 6.214 49.591 0 99.182-2.071 148.427-6.214 3.405-.287 6.187-2.839 6.764-6.208 11.912-69.591 11.912-140.161 0-209.752zm-13.832 201.492c-93.832 7.576-188.886 7.576-282.716 0-10.354-64.139-10.354-129.093 0-193.232 93.831-7.576 188.884-7.576 282.716 0 10.353 64.139 10.353 129.093 0 193.232z"/><path d="m321.094 168.689c-4.136.229-7.303 3.768-7.073 7.904 1.457 26.309 1.103 52.978-1.054 79.266-.339 4.128 2.733 7.75 6.861 8.088.209.017.416.025.621.025 3.864 0 7.146-2.968 7.467-6.887 2.213-26.97 2.577-54.331 1.081-81.323-.229-4.135-3.75-7.296-7.903-7.073z"/><path d="m319.672 159.642c.241 0 .485-.012.73-.035 4.123-.399 7.143-4.064 6.743-8.188-.743-7.689-1.651-15.482-2.698-23.165-.56-4.105-4.355-6.977-8.444-6.418-4.104.56-6.979 4.34-6.419 8.444 1.021 7.489 1.906 15.087 2.632 22.583.375 3.878 3.638 6.779 7.456 6.779z"/><path d="m357.635 325.832c-5.754-3.788-13.351 1.804-11.339 8.411.913 2.997 3.672 5.151 6.801 5.309 3.269.165 6.321-1.891 7.431-4.962 1.147-3.176-.069-6.899-2.893-8.758z"/></svg>