<svg xmlns="http://www.w3.org/2000/svg" viewBox="0 0 297 297"><path d="M293.697 128.584L155.329 3.912a9.989 9.989 0 0 0-13.366-.006L3.311 128.576A9.986 9.986 0 0 0 .664 139.58a9.988 9.988 0 0 0 9.327 6.414h31.38v139.672c0 5.518 4.473 9.99 9.989 9.99h194.281c5.517 0 9.989-4.473 9.989-9.99V145.994h31.38a9.99 9.99 0 0 0 6.687-17.41zM61.35 275.676V140.482l79.66-70.998v66.73a56.672 56.672 0 0 0-7.861 1.609l-9.298-22.016a7.49 7.49 0 0 0-9.817-3.986 7.49 7.49 0 0 0-3.986 9.816l9.333 22.101a57.276 57.276 0 0 0-5.751 3.939l-5.617-5.617a7.493 7.493 0 0 0-10.596 0 7.492 7.492 0 0 0-.001 10.596l5.678 5.678a57.235 57.235 0 0 0-3.812 5.732l-20.903-11.604a7.495 7.495 0 0 0-10.187 2.916 7.49 7.49 0 0 0 2.915 10.186l22.374 12.42a56.607 56.607 0 0 0-1.414 7.168h-9.499a7.493 7.493 0 1 0 0 14.986h9.499a56.607 56.607 0 0 0 1.414 7.168l-22.374 12.42a7.49 7.49 0 0 0-2.915 10.186 7.487 7.487 0 0 0 10.187 2.916l20.903-11.604a57.064 57.064 0 0 0 3.812 5.732l-5.678 5.678a7.492 7.492 0 0 0 .001 10.596c1.463 1.465 3.38 2.195 5.297 2.195s3.836-.732 5.299-2.195l5.617-5.617a57.692 57.692 0 0 0 5.244 3.641l-8.826 20.902a7.49 7.49 0 0 0 6.898 10.408 7.495 7.495 0 0 0 6.905-4.578l8.733-20.68a56.326 56.326 0 0 0 8.426 1.771v26.596H61.35zm45.192-83.025c0-20.58 14.896-37.732 34.468-41.275v82.549c-19.572-3.543-34.468-20.696-34.468-41.274zm49.95-8.717c4.713 0 8.548 3.91 8.548 8.717 0 4.805-3.835 8.713-8.548 8.713v-17.43zm79.159 91.745h-79.656v-14.398c.165.012.33.025.498.025a7.492 7.492 0 0 0 7.492-7.492v-5.09l2.32 2.33a7.476 7.476 0 0 0 5.309 2.205 7.464 7.464 0 0 0 5.287-2.186 7.493 7.493 0 0 0 .021-10.596l-12.937-12.984V215.11a22.971 22.971 0 0 0 3.039-1.277l14.405 14.457a7.472 7.472 0 0 0 5.308 2.205 7.468 7.468 0 0 0 5.288-2.186 7.493 7.493 0 0 0 .019-10.596l-14.48-14.531c.484-.977.9-1.992 1.248-3.039h12.374l12.925 12.971a7.472 7.472 0 0 0 5.308 2.205 7.493 7.493 0 0 0 5.306-12.782l-2.386-2.395h5.102a7.492 7.492 0 0 0 7.492-7.492 7.493 7.493 0 0 0-7.492-7.494h-5.104l2.389-2.396a7.493 7.493 0 0 0-.021-10.596 7.49 7.49 0 0 0-10.596.02l-12.924 12.973h-12.373a23.872 23.872 0 0 0-1.249-3.041l14.48-14.529a7.492 7.492 0 0 0-.019-10.596 7.489 7.489 0 0 0-10.596.018l-14.405 14.457a23.3 23.3 0 0 0-3.039-1.277v-12.381l12.936-12.982a7.493 7.493 0 0 0-.018-10.596 7.489 7.489 0 0 0-10.596.02l-2.321 2.33v-5.09a7.491 7.491 0 0 0-7.492-7.492c-.168 0-.333.016-.498.025V69.487l79.656 70.998v135.194zm13.794-149.661l-94.297-84.047a9.99 9.99 0 0 0-13.293-.002l-94.301 84.049H36.042l112.594-101.24 112.362 101.24h-11.553z"/></svg>