<svg enable-background="new 0 0 512 512" viewBox="0 0 512 512" xmlns="http://www.w3.org/2000/svg"><path d="m366.933 307.2h-221.866c-4.71 0-8.533 3.814-8.533 8.533v187.733c0 4.719 3.823 8.533 8.533 8.533h221.867c4.719 0 8.533-3.814 8.533-8.533v-187.733c0-4.719-3.815-8.533-8.534-8.533zm-8.533 187.733h-204.8v-170.666h204.8z"/><path d="m366.933 307.2h-221.866c-4.71 0-8.533 3.814-8.533 8.533v187.733c0 4.719 3.823 8.533 8.533 8.533h221.867c4.719 0 8.533-3.814 8.533-8.533v-187.733c0-4.719-3.815-8.533-8.534-8.533zm-8.533 187.733h-204.8v-170.666h204.8z"/><path d="m145.067 307.2h-136.534c-4.71 0-8.533 3.814-8.533 8.533v187.733c0 4.72 3.823 8.534 8.533 8.534h136.533c4.71 0 8.533-3.814 8.533-8.533v-187.734c.001-4.719-3.822-8.533-8.532-8.533zm-8.534 187.733h-119.466v-170.666h119.467v170.666z"/><path d="m503.467 307.2h-136.534c-4.719 0-8.533 3.814-8.533 8.533v187.733c0 4.719 3.814 8.533 8.533 8.533h136.533c4.719 0 8.533-3.814 8.533-8.533v-187.733c.001-4.719-3.813-8.533-8.532-8.533zm-8.534 187.733h-119.466v-170.666h119.467v170.666z"/><path d="m332.8 375.467h-153.6c-4.71 0-8.533 3.814-8.533 8.533v85.333c0 4.719 3.823 8.533 8.533 8.533h153.6c4.719 0 8.533-3.814 8.533-8.533v-85.333c0-4.719-3.814-8.533-8.533-8.533zm-8.533 85.333h-136.534v-68.267h136.533v68.267z"/><path d="m264.533 341.333h17.067v17.067h-17.067z"/><path d="m230.4 341.333h17.067v17.067h-17.067z"/><path d="m196.267 341.333h17.067v17.067h-17.067z"/><path d="m298.667 341.333h17.067v17.067h-17.067z"/><path d="m8.533 375.467h136.533v17.067h-136.533z"/><path d="m59.733 341.333h34.133v17.067h-34.133z"/><path d="m59.733 409.6h34.133v17.067h-34.133z"/><path d="m366.933 375.467h136.533v17.067h-136.533z"/><path d="m426.667 384h17.067v119.467h-17.067z"/><path d="m418.133 341.333h34.133v17.067h-34.133z"/><path d="m392.533 426.667h17.067v25.6h-17.067z"/><path d="m460.8 426.667h17.067v25.6h-17.067z"/><path d="m364.433 139.034-31.633-31.633v-98.868c0-4.71-3.814-8.533-8.533-8.533h-136.534c-4.71 0-8.533 3.823-8.533 8.533v98.867l-31.633 31.633c-2.441 2.44-3.174 6.11-1.852 9.301 1.323 3.183 4.437 5.265 7.885 5.265h204.8c3.447 0 6.571-2.082 7.885-5.265 1.322-3.191.589-6.86-1.852-9.3zm-190.234-2.501 19.567-19.567c1.604-1.596 2.5-3.772 2.5-6.033v-93.866h119.467v93.867c0 2.261.896 4.437 2.5 6.033l19.567 19.567h-163.601z"/><path d="m460.8 187.733c-18.825 0-34.133 15.309-34.133 34.133v8.533h17.067v-8.533c0-9.412 7.654-17.067 17.067-17.067 9.412 0 17.067 7.654 17.067 17.067v93.867h17.067v-93.867c-.002-18.824-15.31-34.133-34.135-34.133z"/><path d="m460.8 273.067h25.6v17.067h-25.6z"/><path d="m247.467 256h-85.333c-4.71 0-8.533 3.814-8.533 8.533v51.2c0 4.719 3.823 8.533 8.533 8.533h85.333c4.71 0 8.533-3.814 8.533-8.533v-51.2c0-4.719-3.823-8.533-8.533-8.533zm-8.534 51.2h-68.267v-34.133h68.267z"/><path d="m136.533 273.067h25.6v17.067h-25.6z"/><path d="m247.467 273.067h25.6v17.067h-25.6z"/><path d="m145.067 0h-136.534c-4.71 0-8.533 3.823-8.533 8.533v102.4c0 4.71 3.823 8.533 8.533 8.533h136.533c4.71 0 8.533-3.823 8.533-8.533v-102.4c.001-4.71-3.822-8.533-8.532-8.533zm-8.534 102.4h-119.466v-85.333h119.467v85.333z"/><path d="m102.4 51.2h17.067v34.133h-17.067z"/><path d="m503.467 0h-136.534c-4.719 0-8.533 3.823-8.533 8.533v102.4c0 4.71 3.814 8.533 8.533 8.533h136.533c4.719 0 8.533-3.823 8.533-8.533v-102.4c.001-4.71-3.813-8.533-8.532-8.533zm-8.534 102.4h-119.466v-85.333h119.467v85.333z"/><path d="m392.533 51.2h17.067v34.133h-17.067z"/><path d="m0 170.667h153.6v17.067h-153.6z"/><path d="m17.067 153.6h17.067v76.8h-17.067z"/><path d="m25.6 221.867c-14.114 0-25.6 11.486-25.6 25.6s11.486 25.6 25.6 25.6 25.6-11.486 25.6-25.6-11.486-25.6-25.6-25.6zm0 34.133c-4.702 0-8.533-3.831-8.533-8.533s3.831-8.533 8.533-8.533 8.533 3.831 8.533 8.533-3.831 8.533-8.533 8.533z"/><path d="m51.2 153.6h17.067v76.8h-17.067z"/><path d="m59.733 221.867c-14.114 0-25.6 11.486-25.6 25.6s11.486 25.6 25.6 25.6 25.6-11.486 25.6-25.6-11.486-25.6-25.6-25.6zm0 34.133c-4.702 0-8.533-3.831-8.533-8.533s3.831-8.533 8.533-8.533 8.533 3.831 8.533 8.533c.001 4.702-3.831 8.533-8.533 8.533z"/><path d="m85.333 153.6h17.067v76.8h-17.067z"/><path d="m93.867 221.867c-14.114 0-25.6 11.486-25.6 25.6s11.486 25.6 25.6 25.6 25.6-11.486 25.6-25.6-11.486-25.6-25.6-25.6zm0 34.133c-4.702 0-8.533-3.831-8.533-8.533s3.831-8.533 8.533-8.533 8.533 3.831 8.533 8.533-3.831 8.533-8.533 8.533z"/></svg>