<svg enable-background="new 0 0 512 512" viewBox="0 0 512 512" xmlns="http://www.w3.org/2000/svg"><path d="m491.797 348.594-225.141-118.938v-15.016c.094-.023.188-.055.297-.078 35.469-8.781 59.281-30.875 59.281-59.281 0-32.742-26.547-59.281-59.281-59.281-30.234 0-56.516 22.125-59.109 51.773-.078.453-.125.922-.125 1.391 0 .055-.016.109-.016.172 0 5.891 4.781 10.664 10.672 10.664s10.672-4.773 10.672-10.664h.062c.859-9.227 5.344-15.844 9.281-19.969 7.281-7.648 17.703-12.031 28.562-12.031 20.922 0 37.938 17.023 37.938 37.945 0 7.984-3.328 15.305-9.922 21.758-7.703 7.539-19.156 13.352-33.141 16.812 0 0-16.203 5-16.484 5.102v3.711h-.016v26.992l-225.108 118.938c-12.078 6.218-20.219 17.906-20.219 31.312 0 19.938 18.016 36.094 40.234 36.094h1.203 429.141 1.203c22.219 0 40.219-16.156 40.219-36.094 0-13.406-8.125-25.094-20.203-31.312zm-20.016 46.062h-1.203-429.14-1.203c-10.234 0-18.891-6.75-18.891-14.75 0-4.938 3.234-9.562 8.656-12.375l.094-.031.094-.062 225.797-119.289 225.844 119.289.094.062.094.031c5.422 2.812 8.656 7.438 8.656 12.375-.001 8-8.657 14.75-18.892 14.75z"/></svg>