<svg enable-background="new 0 0 476.004 476.004" viewBox="0 0 476.004 476.004" xmlns="http://www.w3.org/2000/svg"><path d="m454.81 2.167c-.928-.109-1.862-.164-2.797-.165h-428.016c-13.255.002-23.999 10.748-23.997 24.003 0 .937.055 1.874.165 2.805l12.232 104c1.424 12.084 11.665 21.19 23.832 21.192h43.456l35.608 149.552c2.548 10.831 12.226 18.476 23.352 18.448h198.72c11.126.028 20.804-7.617 23.352-18.448l35.608-149.552h43.456c12.164-.006 22.401-9.111 23.824-21.192l12.232-104c1.551-13.164-7.864-25.092-21.027-26.643zm-109.653 297.683c-.857 3.609-4.083 6.156-7.792 6.152h-198.72c-3.71.004-6.935-2.543-7.792-6.152l-34.72-145.848h283.744zm114.784-272.92-12.216 104c-.471 4.031-3.885 7.071-7.944 7.072h-403.552c-4.059-.001-7.473-3.041-7.944-7.072l-12.232-104c-.513-4.388 2.63-8.361 7.018-8.874.307-.036.617-.054.926-.054h428c4.418.001 7.999 3.584 7.998 8.002 0 .309-.018.619-.054.926z"/><path d="m189.317 272.778-6.768-88c-.677-8.319-7.606-14.737-15.952-14.776h-30.536c-8.837 0-16 7.163-16 16 0 1.209.137 2.414.408 3.592l20.312 88c1.649 7.291 8.149 12.453 15.624 12.408h16.96c8.837-.001 16-7.165 15.999-16.001 0-.408-.016-.816-.047-1.223zm-32.912 1.224-20.344-88h30.536l6.768 88z"/><path d="m262.588 170.049c-.407-.031-.815-.047-1.223-.047h-46.72c-8.837.001-16 7.165-15.999 16.001 0 .408.016.816.047 1.223l6.768 88c.677 8.319 7.606 14.737 15.952 14.776h33.184c8.346-.039 15.275-6.457 15.952-14.776l6.768-88c.676-8.811-5.919-16.501-14.729-17.177zm-7.991 103.953h-33.184l-6.784-88h.016 46.72z"/><path d="m343.509 170.41c-1.168-.269-2.362-.406-3.56-.408h-30.536c-8.346.039-15.275 6.457-15.952 14.776l-6.768 88c-.676 8.811 5.918 16.501 14.729 17.177.407.031.815.047 1.223.047h16.96c7.463.03 13.946-5.129 15.592-12.408l20.312-88c1.984-8.611-3.389-17.2-12-19.184zm-23.904 103.592h-16.96l6.768-88h30.528z"/><path d="m339.857 420.578c-3.07-3.178-8.134-3.266-11.312-.196-.066.064-.132.129-.196.196-49.891 49.896-130.784 49.899-180.68.008-.003-.003-.005-.005-.008-.008-3.07-3.178-8.134-3.266-11.312-.196s-3.266 8.134-.196 11.312c.064.067.13.132.196.196 56.134 56.143 147.153 56.15 203.296.016.005-.005.011-.011.016-.016 3.178-3.07 3.265-8.134.196-11.312z"/><path d="m315.857 396.578c-3.07-3.178-8.134-3.266-11.312-.196-.066.064-.132.129-.196.196-36.664 36.584-96.024 36.584-132.688 0-3.124-3.123-8.188-3.123-11.312 0-3.123 3.124-3.123 8.188 0 11.312 42.871 42.888 112.392 42.902 155.281.031.01-.01.021-.021.031-.031 3.178-3.07 3.265-8.134.196-11.312z"/><path d="m291.857 372.578c-3.07-3.178-8.134-3.266-11.312-.196-.066.064-.132.129-.196.196-23.412 23.322-61.275 23.322-84.688 0-3.124-3.123-8.188-3.123-11.312 0-3.123 3.124-3.123 8.188 0 11.312 29.661 29.568 77.652 29.568 107.312 0 3.178-3.07 3.265-8.134.196-11.312z"/><path d="m267.465 348.346c-3.1-2.995-8.016-2.995-11.116 0-10.139 10.113-26.549 10.113-36.688 0-3.178-3.07-8.242-2.982-11.312.196-2.994 3.1-2.994 8.015 0 11.116 16.39 16.35 42.922 16.35 59.312 0 3.069-3.178 2.982-8.242-.196-11.312z"/></svg>