<svg enable-background="new 0 0 512 512" viewBox="0 0 512 512" xmlns="http://www.w3.org/2000/svg"><path d="m494.246 119.123h-476.492c-9.79 0-17.754 7.964-17.754 17.754v109.96c0 9.79 7.964 17.754 17.754 17.754h4.566l32.66 48.991v15.725c0 14.842 12.075 26.917 26.917 26.917h6.047c28.161 22.345 93.371 36.653 168.056 36.653s139.895-14.309 168.056-36.653h6.047c14.842 0 26.917-12.075 26.917-26.917v-15.725l32.66-48.991h4.566c9.79 0 17.754-7.964 17.754-17.754v-109.96c0-9.79-7.964-17.754-17.754-17.754zm-451.277 145.468h39.501v37.799h-14.302zm396.87 64.716c0 5.369-4.367 9.736-9.736 9.736h-91.63c-4.744 0-8.591 3.846-8.591 8.591s3.846 8.591 8.591 8.591h49.426c-31.529 11.937-80.277 19.471-131.899 19.471s-100.37-7.533-131.899-19.472h177.714c4.744 0 8.591-3.846 8.591-8.591s-3.846-8.591-8.591-8.591h-219.918c-5.369 0-9.736-4.367-9.736-9.736v-9.736h367.678zm-340.188-26.918v-37.799h19.472v37.799zm36.653 0v-37.799h19.472v37.799zm36.654 0v-37.799h19.472v37.799zm36.653 0v-37.799h19.472v37.799zm36.653 0v-37.799h19.472v37.799zm36.653 0v-37.799h19.472v37.799zm36.653 0v-37.799h19.472v37.799zm36.654 0v-37.799h19.472v37.799zm36.653 0v-37.799h19.472v37.799zm50.955 0h-14.302v-37.799h39.501zm50.987-55.552c0 .316-.257.573-.573.573h-476.492c-.316 0-.573-.257-.573-.573v-109.96c0-.316.257-.573.573-.573h476.492c.316 0 .573.257.573.573z"/><path d="m291.555 185.696c-.805-4.674-5.247-7.812-9.925-7.006-4.676.806-7.812 5.249-7.006 9.926.183 1.061.276 2.151.276 3.242 0 10.421-8.478 18.899-18.899 18.899s-18.899-8.478-18.899-18.899 8.478-18.899 18.899-18.899c.937 0 1.877.069 2.795.204 4.694.693 9.06-2.55 9.753-7.244s-2.55-9.06-7.244-9.753c-1.746-.258-3.531-.388-5.306-.388-19.895 0-36.081 16.186-36.081 36.081s16.186 36.081 36.081 36.081 36.081-16.186 36.081-36.081c-.001-2.069-.177-4.141-.525-6.163z"/></svg>