<svg enable-background="new 0 0 512 512" viewBox="0 0 512 512" xmlns="http://www.w3.org/2000/svg"><path d="m511.168 344.981c.789-2.112 1.067-4.437.341-6.784l-42.176-137.067v-126.463c0-29.397-23.915-53.333-53.333-53.333h-320c-29.419 0-53.333 23.936-53.333 53.333v126.464l-42.176 137.066c-.725 2.325-.448 4.651.341 6.784-.512 2.262-.832 4.587-.832 7.019v85.333 42.667c0 5.888 4.779 10.667 10.667 10.667h42.667c5.887 0 10.666-4.779 10.666-10.667v-32h384v32c0 5.888 4.779 10.667 10.667 10.667h42.667c5.888 0 10.667-4.779 10.667-10.667v-42.667-85.333c-.001-2.432-.321-4.757-.833-7.019zm-447.168-270.314c0-17.643 14.357-32 32-32h320c17.643 0 32 14.357 32 32v117.333h-28.992l-9.941-39.765c-3.584-14.272-16.363-24.235-31.062-24.235h-68.672c-17.643 0-32 14.357-32 32v32h-42.667v-31.979c0-17.643-14.357-32-32-32h-68.672c-14.699 0-27.477 9.984-31.061 24.235l-9.941 39.744h-28.992zm333.099 134.57c-2.048 2.603-5.12 4.096-8.427 4.096h-79.339c-5.867 0-10.667-4.779-10.667-10.667v-42.666c0-5.888 4.8-10.667 10.667-10.667h68.693c4.907 0 9.152 3.307 10.347 8.064l10.667 42.667c.811 3.221.107 6.549-1.941 9.173zm-183.744-49.237v42.56c0 .043-.021.064-.021.107v.043c-.021 5.867-4.8 10.624-10.645 10.624h-79.339c-3.328 0-6.379-1.493-8.427-4.096-2.048-2.624-2.752-5.973-1.941-9.173l10.667-42.667c1.195-4.736 5.44-8.064 10.368-8.064h68.672c5.866-.001 10.666 4.778 10.666 10.666zm-152.15 53.333h32.107c1.131 3.2 2.603 6.272 4.757 9.045 6.144 7.808 15.339 12.288 25.259 12.288h79.339c13.888 0 25.621-8.96 30.037-21.333h46.592c4.416 12.395 16.149 21.333 30.037 21.333h79.339c9.92 0 19.093-4.48 25.237-12.288 2.155-2.752 3.627-5.845 4.757-9.045h32.128l32.939 107.051c-1.237-.149-2.453-.384-3.733-.384h-448c-1.28 0-2.496.235-3.712.384zm-18.538 256h-21.334v-21.333h21.333v21.333zm448 0h-21.333v-21.333h21.333zm0-42.666h-469.334v-74.667c0-5.888 4.8-10.667 10.667-10.667h448c5.867 0 10.667 4.779 10.667 10.667z"/></svg>