<svg xmlns="http://www.w3.org/2000/svg" viewBox="0 0 512 512"><path d="M511.168 344.981c.789-2.112 1.067-4.437.341-6.784L469.333 201.13V74.667c0-29.397-23.915-53.333-53.333-53.333H96c-29.419 0-53.333 23.936-53.333 53.333v126.464L.491 338.197c-.725 2.325-.448 4.651.341 6.784C.32 347.243 0 349.568 0 352v128c0 5.888 4.779 10.667 10.667 10.667h42.667C59.221 490.667 64 485.888 64 480v-32h384v32c0 5.888 4.779 10.667 10.667 10.667h42.667c5.888 0 10.667-4.779 10.667-10.667V352c-.001-2.432-.321-4.757-.833-7.019zM64 74.667c0-17.643 14.357-32 32-32h320c17.643 0 32 14.357 32 32V192h-28.992l-9.941-39.765A31.994 31.994 0 0 0 378.005 128h-68.672c-17.643 0-32 14.357-32 32v32h-42.667v-31.979c0-17.643-14.357-32-32-32h-68.672c-14.699 0-27.477 9.984-31.061 24.235L92.992 192H64V74.667zm333.099 134.57a10.663 10.663 0 0 1-8.427 4.096h-79.339c-5.867 0-10.667-4.779-10.667-10.667V160c0-5.888 4.8-10.667 10.667-10.667h68.693c4.907 0 9.152 3.307 10.347 8.064l10.667 42.667a10.58 10.58 0 0 1-1.941 9.173zM213.355 160v42.56c0 .043-.021.064-.021.107v.043c-.021 5.867-4.8 10.624-10.645 10.624H123.35a10.633 10.633 0 0 1-8.427-4.096 10.595 10.595 0 0 1-1.941-9.173l10.667-42.667a10.667 10.667 0 0 1 10.368-8.064h68.672c5.866-.001 10.666 4.778 10.666 10.666zm-152.15 53.333h32.107c1.131 3.2 2.603 6.272 4.757 9.045 6.144 7.808 15.339 12.288 25.259 12.288h79.339c13.888 0 25.621-8.96 30.037-21.333h46.592c4.416 12.395 16.149 21.333 30.037 21.333h79.339c9.92 0 19.093-4.48 25.237-12.288 2.155-2.752 3.627-5.845 4.757-9.045h32.128l32.939 107.051c-1.237-.149-2.453-.384-3.733-.384H32c-1.28 0-2.496.235-3.712.384l32.917-107.051zm-18.538 256H21.333V448h21.333v21.333zm448 0h-21.333V448h21.333v21.333zm0-42.666H21.333V352c0-5.888 4.8-10.667 10.667-10.667h448c5.867 0 10.667 4.779 10.667 10.667v74.667z"/></svg>