<svg enable-background="new 0 0 512 512" viewBox="0 0 512 512" xmlns="http://www.w3.org/2000/svg"><path d="m440 188h-8v-64c-.026-22.08-17.92-39.974-40-40h-272c-22.08.026-39.974 17.92-40 40v64h-8c-39.744.048-71.952 32.256-72 72v112h16v56h40v-56h400v56h40v-56h16v-112c-.048-39.744-32.256-71.952-72-72zm-344-64c0-13.255 10.745-24 24-24h272c13.255 0 24 10.745 24 24v64h-24v-32c0-13.255-10.745-24-24-24h-72c-13.255 0-24 10.745-24 24v32h-32v-32c0-13.255-10.745-24-24-24h-72c-13.255 0-24 10.745-24 24v32h-24zm280 32v32h-88v-32c0-4.418 3.582-8 8-8h72c4.418 0 8 3.582 8 8zm-152 0v32h-88v-32c0-4.418 3.582-8 8-8h72c4.418 0 8 3.582 8 8zm-184 256h-8v-40h8zm440 0h-8v-40h8zm16-56h-480v-40h480zm0-56h-480v-40c.035-30.913 25.087-55.965 56-56h368c30.913.035 55.965 25.087 56 56z"/></svg>