<svg enable-background="new 0 0 415.79 415.79" viewBox="0 0 415.79 415.79" xmlns="http://www.w3.org/2000/svg"><path d="m339.394 401.79h-109.694l-38.208-124.151 142.351-42.896c2.188-.659 3.918-2.347 4.631-4.518.713-2.172.321-4.556-1.05-6.384-32.466-43.297-84.124-69.146-138.185-69.146-11.996 0-23.965 1.269-35.74 3.767-1.602.434-5.98 1.371-7.418 1.742l-1.846-6.118c-1.117-3.701-5.024-5.793-8.724-4.68-3.701 1.117-5.797 5.022-4.681 8.724l1.844 6.111c-1.4.483-4.778 1.654-7.14 2.645-28.744 11.344-53.696 30.014-72.762 54.594-21.574 27.811-34.051 61.008-36.082 96-.133 2.282.858 4.485 2.652 5.901 1.25.986 2.782 1.505 4.336 1.505.677 0 1.356-.098 2.02-.298l142.39-42.909 36.966 120.111h-94.049c-3.866 0-7 3.134-7 7s3.134 7 7 7h218.39c3.866 0 7-3.134 7-7-.001-3.866-3.135-7-7.001-7zm-186.016-226.301h.002c3.625-1.093 7.279-2.049 10.953-2.879 27.806 3.295 51.527 17.264 70.523 41.551 9.172 11.726 15.04 23.237 18.182 30.31l-144.615 43.579c-1.289-7.63-2.759-20.468-1.593-35.308 2.414-30.727 14.458-55.469 35.795-73.577 3.521-1.346 7.105-2.576 10.752-3.675zm166.502 48.839-53.329 16.07c-3.265-7.632-9.747-20.809-20.361-34.471-12.881-16.581-28.209-29.107-45.326-37.21 45.702.477 89.392 21.015 119.016 55.611zm-209.958-28.03c-9.712 16.163-15.52 35-17.087 55.844-1.298 17.251.579 31.816 2.074 39.98l-53.33 16.071c5.629-45.787 31.086-86.45 68.343-111.895z"/><path d="m233.672 88.22h33.58c3.866 0 7-3.134 7-7s-3.134-7-7-7h-33.58c-3.866 0-7 3.134-7 7s3.134 7 7 7z"/><path d="m382.112 74.22h-33.577c-3.866 0-7 3.134-7 7s3.134 7 7 7h33.577c3.866 0 7-3.134 7-7s-3.133-7-7-7z"/><path d="m342.023 105.452c-2.734-2.733-7.166-2.733-9.9 0-2.733 2.732-2.733 7.166 0 9.898l11.456 11.457c1.367 1.366 3.159 2.05 4.95 2.05s3.583-.684 4.95-2.05c2.733-2.733 2.733-7.166 0-9.899z"/><path d="m300.893 123.564v31.876c0 3.866 3.134 7 7 7s7-3.134 7-7v-31.876c0-3.866-3.134-7-7-7s-7 3.134-7 7z"/><path d="m273.761 105.452-11.455 11.456c-2.733 2.733-2.733 7.166.001 9.899 1.366 1.367 3.158 2.05 4.949 2.05s3.583-.684 4.95-2.05l11.455-11.457c2.733-2.733 2.733-7.166-.001-9.899-2.732-2.733-7.165-2.732-9.899.001z"/><path d="m307.896 106.254c13.804 0 25.033-11.23 25.033-25.034s-11.229-25.034-25.033-25.034c-13.805 0-25.036 11.23-25.036 25.034s11.231 25.034 25.036 25.034zm0-36.068c6.084 0 11.033 4.95 11.033 11.034 0 6.085-4.949 11.034-11.033 11.034-6.085 0-11.036-4.949-11.036-11.034-.001-6.084 4.951-11.034 11.036-11.034z"/><path d="m273.762 56.988c1.366 1.367 3.158 2.05 4.949 2.05s3.583-.684 4.95-2.05c2.733-2.734 2.733-7.166-.001-9.899l-11.455-11.454c-2.733-2.734-7.165-2.733-9.899 0-2.733 2.733-2.733 7.166.001 9.899z"/><path d="m307.893 45.876c3.866 0 7-3.134 7-7v-31.876c0-3.866-3.134-7-7-7s-7 3.134-7 7v31.876c0 3.866 3.133 7 7 7z"/><path d="m337.073 59.038c1.791 0 3.583-.683 4.949-2.05l11.456-11.454c2.734-2.733 2.734-7.165.001-9.899-2.733-2.733-7.166-2.734-9.899-.001l-11.456 11.454c-2.734 2.733-2.734 7.166-.001 9.899 1.367 1.367 3.158 2.051 4.95 2.051z"/></svg>