<svg xmlns="http://www.w3.org/2000/svg" viewBox="0 0 415.79 415.79"><path d="M339.394 401.79H229.7l-38.208-124.151 142.351-42.896a7.002 7.002 0 0 0 3.581-10.902c-32.466-43.297-84.124-69.146-138.185-69.146a172.167 172.167 0 0 0-35.74 3.767c-1.602.434-5.98 1.371-7.418 1.742l-1.846-6.118a7.002 7.002 0 0 0-13.405 4.044l1.844 6.111c-1.4.483-4.778 1.654-7.14 2.645C106.79 178.23 81.838 196.9 62.772 221.48c-21.574 27.811-34.051 61.008-36.082 96a7 7 0 0 0 9.008 7.108l142.39-42.909 36.966 120.111h-94.049a7 7 0 1 0 0 14h218.39a7 7 0 1 0-.001-14zM153.378 175.489h.002a160.28 160.28 0 0 1 10.953-2.879c27.806 3.295 51.527 17.264 70.523 41.551 9.172 11.726 15.04 23.237 18.182 30.31L108.423 288.05c-1.289-7.63-2.759-20.468-1.593-35.308 2.414-30.727 14.458-55.469 35.795-73.577a156.847 156.847 0 0 1 10.752-3.675l.001-.001zm166.502 48.839l-53.329 16.07c-3.265-7.632-9.747-20.809-20.361-34.471-12.881-16.581-28.209-29.107-45.326-37.21 45.702.477 89.392 21.015 119.016 55.611zm-209.958-28.03c-9.712 16.163-15.52 35-17.087 55.844-1.298 17.251.579 31.816 2.074 39.98l-53.33 16.071c5.629-45.787 31.086-86.45 68.343-111.895zM233.672 88.22h33.58a7 7 0 1 0 0-14h-33.58a7 7 0 1 0 0 14zM382.112 74.22h-33.577a7 7 0 1 0 0 14h33.577a7 7 0 1 0 0-14zM342.023 105.452a7 7 0 1 0-9.9 9.898l11.456 11.457a6.983 6.983 0 0 0 4.95 2.05 7 7 0 0 0 4.95-11.949l-11.456-11.456zM300.893 123.564v31.876a7 7 0 1 0 14 0v-31.876a7 7 0 1 0-14 0zM273.761 105.452l-11.455 11.456a7 7 0 0 0 9.9 9.899l11.455-11.457a7 7 0 0 0-9.9-9.898zM307.896 106.254c13.804 0 25.033-11.23 25.033-25.034S321.7 56.186 307.896 56.186c-13.805 0-25.036 11.23-25.036 25.034s11.231 25.034 25.036 25.034zm0-36.068c6.084 0 11.033 4.95 11.033 11.034 0 6.085-4.949 11.034-11.033 11.034-6.085 0-11.036-4.949-11.036-11.034-.001-6.084 4.951-11.034 11.036-11.034zM273.762 56.988a6.975 6.975 0 0 0 4.949 2.05 7 7 0 0 0 4.949-11.949l-11.455-11.454a7 7 0 1 0-9.898 9.899l11.455 11.454zM307.893 45.876a7 7 0 0 0 7-7V7a7 7 0 1 0-14 0v31.876a7 7 0 0 0 7 7zM337.073 59.038a6.975 6.975 0 0 0 4.949-2.05l11.456-11.454a7 7 0 0 0-9.898-9.9l-11.456 11.454a7 7 0 0 0 4.949 11.95z"/></svg>