<svg enable-background="new 0 0 480 480" viewBox="0 0 480 480" xmlns="http://www.w3.org/2000/svg"><path d="m80 232c26.51 0 48-21.49 48-48s-21.49-48-48-48-48 21.49-48 48c.026 26.499 21.501 47.974 48 48zm0-80c17.673 0 32 14.327 32 32s-14.327 32-32 32-32-14.327-32-32 14.327-32 32-32z"/><path d="m64 64c22.08.026 39.974 17.92 40 40 0 4.418 3.582 8 8 8s8-3.582 8-8c.026-22.08 17.92-39.974 40-40 4.418 0 8-3.582 8-8s-3.582-8-8-8c-22.08-.026-39.974-17.92-40-40 0-4.418-3.582-8-8-8s-8 3.582-8 8c-.026 22.08-17.92 39.974-40 40-4.418 0-8 3.582-8 8s3.582 8 8 8zm48-27.2c4.745 7.865 11.335 14.455 19.2 19.2-7.865 4.745-14.455 11.335-19.2 19.2-4.745-7.865-11.335-14.455-19.2-19.2 7.865-4.745 14.455-11.335 19.2-19.2z"/><path d="m384 400c-22.08-.026-39.974-17.92-40-40 0-4.418-3.582-8-8-8s-8 3.582-8 8c-.026 22.08-17.92 39.974-40 40-4.418 0-8 3.582-8 8s3.582 8 8 8c22.08.026 39.974 17.92 40 40 0 4.418 3.582 8 8 8s8-3.582 8-8c.026-22.08 17.92-39.974 40-40 4.418 0 8-3.582 8-8s-3.582-8-8-8zm-48 27.2c-4.745-7.865-11.335-14.455-19.2-19.2 7.865-4.745 14.455-11.335 19.2-19.2 4.745 7.865 11.335 14.455 19.2 19.2-7.865 4.745-14.455 11.335-19.2 19.2z"/><path d="m192 160c-13.255 0-24 10.745-24 24v32h-40v16h48c4.418 0 8-3.582 8-8v-40c0-4.418 3.582-8 8-8s8 3.582 8 8v56c0 4.418-3.582 8-8 8h-64c-4.418 0-8 3.582-8 8v40c0 2.122.844 4.156 2.344 5.656l43.312 43.312c1.502 1.502 2.346 3.54 2.344 5.664v73.368c0 4.418-3.582 8-8 8s-8-3.582-8-8v-64c0-2.122-.844-4.156-2.344-5.656l-32-32c-3.124-3.123-8.188-3.123-11.312 0l-24 24c-3.123 3.124-3.123 8.188 0 11.312l19.312 19.312c1.502 1.502 2.346 3.54 2.344 5.664v73.368c0 4.418-3.582 8-8 8s-8-3.582-8-8v-64c0-2.122-.844-4.156-2.344-5.656l-35.312-35.312c-1.502-1.502-2.346-3.54-2.344-5.664v-25.368h16c13.255 0 24-10.745 24-24s-10.745-24-24-24h-16v-24h-16v32c0 4.418 3.582 8 8 8h24c4.418 0 8 3.582 8 8s-3.582 8-8 8h-40c-4.418 0-8-3.582-8-8v-56c0-4.418 3.582-8 8-8v-16c-13.255 0-24 10.745-24 24v56c0 13.255 10.745 24 24 24h8v25.368c-.016 6.37 2.516 12.483 7.032 16.976l32.968 32.968v60.688c0 13.255 10.745 24 24 24s24-10.745 24-24v-73.368c.02-6.371-2.512-12.485-7.032-16.976l-13.656-13.656 12.688-12.688 24 24v60.688c0 13.255 10.745 24 24 24s24-10.745 24-24v-73.368c.02-6.371-2.512-12.485-7.032-16.976l-40.968-40.968v-28.688h56c13.255 0 24-10.745 24-24v-56c0-13.255-10.745-24-24-24z"/><path d="m368 96c26.51 0 48-21.49 48-48s-21.49-48-48-48-48 21.49-48 48c.026 26.499 21.501 47.974 48 48zm0-80c17.673 0 32 14.327 32 32s-14.327 32-32 32-32-14.327-32-32 14.327-32 32-32z"/><path d="m456 80h-48v16h48c4.418 0 8 3.582 8 8v48c0 4.418-3.582 8-8 8s-8-3.582-8-8v-32c0-4.418-3.582-8-8-8h-32c-4.418 0-8 3.582-8 8v89.368c.002 2.124-.842 4.162-2.344 5.664l-27.312 27.312c-3.123 3.124-3.123 8.188 0 11.312l36.688 36.688c3.123 3.124 3.123 8.188 0 11.312l-1.376 1.368c-3.124 3.123-8.188 3.123-11.312 0l-49.376-49.376c-3.123-3.124-3.123-8.188 0-11.312l20.688-20.688c3.123-3.124 3.123-8.188 0-11.312l-24-24c-3.124-3.123-8.188-3.123-11.312 0l-32 32c-1.502 1.502-2.346 3.54-2.344 5.664v64c0 4.418-3.582 8-8 8s-8-3.582-8-8v-73.368c-.002-2.124.842-4.162 2.344-5.664l43.312-43.312c1.5-1.5 2.344-3.534 2.344-5.656v-40c0-4.418-3.582-8-8-8h-48c-4.418 0-8-3.582-8-8v-56c0-4.418 3.582-8 8-8s8 3.582 8 8v40c0 4.418 3.582 8 8 8h32v-16h-24v-32c0-13.255-10.745-24-24-24s-24 10.745-24 24v56c0 13.255 10.745 24 24 24h40v28.688l-40.968 40.968c-4.516 4.493-7.048 10.606-7.032 16.976v73.368c0 13.255 10.745 24 24 24s24-10.745 24-24v-60.688l24-24 12.688 12.688-15.032 15.024c-9.373 9.372-9.375 24.568-.003 33.941l.003.003 49.376 49.376c9.372 9.369 24.564 9.369 33.936 0l1.376-1.368c9.373-9.372 9.375-24.568.003-33.941-.001-.001-.002-.002-.003-.003l-31.032-31.032 21.656-21.656c4.52-4.491 7.052-10.605 7.032-16.976v-81.368h16v24c0 13.255 10.745 24 24 24s24-10.745 24-24v-48c0-13.255-10.745-24-24-24z"/><path d="m360 40h16v24h-16z"/><path d="m104 192v-24h-16v16h-16v16h24c4.418 0 8-3.582 8-8z"/></svg>