<svg enable-background="new 0 0 31.446 31.446" height="31.446" viewBox="0 0 31.446 31.446" width="31.446" xmlns="http://www.w3.org/2000/svg"><path d="m5.034 8.776c.149.021.34.032.554.032.959 0 1.78-.234 2.333-.757.425-.405.66-1.002.66-1.705 0-.704-.309-1.3-.769-1.662-.478-.384-1.191-.575-2.193-.575-.991 0-1.694.063-2.193.149v7.085h1.608zm0-3.378c.116-.032.339-.064.67-.064.809 0 1.267.395 1.267 1.055 0 .735-.532 1.172-1.395 1.172-.234 0-.404-.011-.543-.043z"/><path d="m1.999 13.565h8.008c1.013 0 1.834-.821 1.834-1.834v-8.009c0-1.013-.821-1.834-1.834-1.834h-8.008c-1.013 0-1.834.821-1.834 1.834v8.009c0 1.013.822 1.834 1.834 1.834zm-.385-9.734c0-.273.222-.495.495-.495h7.789c.273 0 .495.222.495.495v7.79c0 .272-.222.495-.495.495h-7.789c-.273 0-.495-.222-.495-.495z"/><path d="m7.592 23.151c-1.77 0-3.203 1.434-3.203 3.203 0 1.771 1.434 3.204 3.203 3.204 1.768 0 3.203-1.434 3.203-3.204 0-1.769-1.435-3.203-3.203-3.203zm0 4.17c-.532 0-.968-.434-.968-.967s.436-.967.968-.967c.531 0 .966.434.966.967s-.435.967-.966.967z"/><path d="m30.914 23.729-.525-4.262c-.102-.818-.817-1.418-1.642-1.373l-1.147.063-3.565-3.211c-.343-.309-.787-.479-1.249-.479l-7.241-.001c-1.625 0-3.201.555-4.468 1.573l-4.039 3.247-5.433 1.356c-.698.175-1.188.802-1.188 1.521v1.565c-.23.001-.417.188-.417.418v2.071c0 .295.239.534.534.534h3.067c-.013-.133-.04-.26-.04-.396 0-2.226 1.804-4.029 4.03-4.029s4.029 1.804 4.029 4.029c0 .137-.028.264-.041.396h8.494c-.013-.133-.04-.26-.04-.396 0-2.226 1.804-4.029 4.029-4.029 2.227 0 4.029 1.804 4.029 4.029 0 .137-.027.264-.041.396h2.861c.295 0 .534-.239.534-.534v-1.953c.004-.295-.236-.535-.531-.535zm-10.747-5.238-10.102.512 1.934-1.555c1.051-.846 2.357-1.306 3.706-1.306h4.462zm1.679-.086v-2.262h.657c.228 0 .447.084.616.237l2.062 1.856z"/><path d="m24.064 23.151c-1.77 0-3.203 1.434-3.203 3.203 0 1.771 1.435 3.204 3.203 3.204s3.203-1.434 3.203-3.204c.001-1.769-1.435-3.203-3.203-3.203zm0 4.17c-.532 0-.967-.434-.967-.967s.435-.967.967-.967c.531 0 .967.434.967.967s-.435.967-.967.967z"/></svg>