<svg enable-background="new 0 0 59.781 59.781" viewBox="0 0 59.781 59.781" xmlns="http://www.w3.org/2000/svg"><g fill="#010002"><path d="m37.686 47.845v-9.348h-12.69v-9.377h-15.426l-.026 30.661 40.692-.006v-11.93zm11.165 10.544-37.918.005.023-27.887h12.654v9.377h12.689v9.348h12.552c.001 0 .001 9.157 0 9.157z"/><circle cx="41.155" cy="3.813" r="3.813"/><path d="m30.889 21.212c1.318-1.215 2.51-2.545 3.656-3.914.047 2.726.135 5.451.004 8.174v.021c-.025.085-.059.165-.078.26-.284 1.456-.395 3.116-.984 4.492-.688 1.598-2.349 2.353-3.833 3.047-2.428 1.136-.314 4.722 2.1 3.593 2.008-.94 3.844-2.101 5.048-4.009.588-.93.914-2.004 1.148-3.104.912 5.218 2.299 10.354 3.688 15.459.704 2.585 4.718 1.487 4.015-1.104-1.582-5.827-3.166-11.695-4.043-17.678-.031-.211-.095-.389-.164-.554.021-.136.032-.276.041-.421.094-1.923.072-3.848.041-5.772 1.075.673 2.187 1.332 3.147 2.151 2.028 1.727 4.987-1.201 2.938-2.941-1.258-1.07-2.688-1.855-4.084-2.722-.793-.491-1.551-1.021-2.066-1.731.006-.901.021-1.802.062-2.702.191-3.877-4.996-4.374-6.521-1.535-.028.031-.06.052-.086.084-2.261 2.717-4.366 5.564-6.972 7.967-1.975 1.819.975 4.754 2.943 2.939z"/></g></svg>