<svg enable-background="new 0 0 45.828 45.828" height="45.828" viewBox="0 0 45.828 45.828" width="45.828" xmlns="http://www.w3.org/2000/svg"><path d="m27.299 35.748h-2.11v-.906c0-1.02-.774-1.805-1.794-1.805h-2.995c-1.019 0-1.901.785-1.901 1.805v.906h-2.003c-1.063 0-1.979.816-1.979 1.881v6.21c0 1.063.915 1.989 1.979 1.989h10.803c1.064 0 1.871-.926 1.871-1.989v-6.21c0-1.065-.808-1.881-1.871-1.881zm-3.381 0h-4.15v-.906c0-.318.315-.533.632-.533h2.995c.316 0 .523.215.523.533z"/><path d="m30.532 28.859c-.021.211.048.403.188.562.142.158.345.229.558.229h.263v13.951c0 1.192.967 2.159 2.16 2.159 1.191 0 2.158-.967 2.158-2.159v-13.951h1.018v13.95c0 1.193.967 2.16 2.16 2.16 1.191 0 2.158-.967 2.158-2.16v-13.95h.243c.216 0 .421-.072.565-.232.146-.16.215-.365.192-.58l-.282-4.48c1.571-.298 2.631-1.782 2.402-3.366l-1.175-8.154c-.261-1.816-1.813-3.175-3.647-3.175h-6.351c-1.851 0-3.412 1.382-3.654 3.216l-1.226 9.327-24.63.005c-1.189 0-2.153.965-2.153 2.154 0 1.188.964 2.153 2.153 2.153l27.146-.004z"/><circle cx="36.365" cy="3.958" r="3.958"/><path d="m10.13 12.372c-1.861 0-3.431 1.384-3.658 3.231l-.649 5.238h15.172l-.683-5.259c-.239-1.837-1.803-3.21-3.656-3.21z"/><circle cx="13.403" cy="7.008" r="3.958"/></svg>